{
.appVersion = "1352";
DisplayStrings = (
"nHHHHHHHOOHOHHOOOOnnnooo\012ABCDEFGHIJKLMNOPOQRSTUVWXYZ/space \012LOST/space HOHHOH/space NOONHNOONON\012CH/Adotbelow Y",
"WAYFARER\012TAYLOR/space SWIFT\012V/acircumflexdotbelow y/space V/Acircumflexdotbelow Y/space Varied.",
"/zcaron/Zcaron ABCDEFGHIJKLMNOPQRSTUVWXYZabcdefghijklmnopqrstuvwxyzßÆ/AEacute/aeacute/oslashacute/pi ªºæø/OE/oe/Tcommaaccent/tcommaaccent/fi/fl/f_t/s_t/c_t ð/Lslash/lslash/Scaron/scaron ÇÉÜáàåäâçéèêëíìîïúùûüÊËÈÍÎÏÌÚÛÙÝý/ydieresis/Ydieresis/A.ss02/a.ss02/longs/Ldot/Cacute/Ccaron/Ccircumflex/Cdotaccent/Dcaron/Dcroat/Ebreve/Ecaron/Edotaccent/Emacron/Eogonek/Gbreve/Gcircumflex/Gdotaccent/Hbar/Hcircumflex/Ibreve/Idotaccent/Imacron/Iogonek/IJ/Jcircumflex/Kcommaaccent/Lacute/Lcaron/Nacute/Ncaron/Racute/Rcaron/Sacute/Scedilla/Scircumflex/Tbar/Tcaron/Ubreve/Uhungarumlaut/Umacron/Uogonek/Uring/Wacute/Wcircumflex/Wdieresis/Wgrave/Ycircumflex/Ygrave/Zacute/Zdotaccent/abreve/amacron/aogonek/cacute/ccaron/ccircumflex/cdotaccent/dcaron/dcroat/ebreve/ecaron/edotaccent/emacron/eogonek/gbreve/gcircumflex/gdotaccent/hbar/hcircumflex/ibreve/imacron/iogonek/ij/jcircumflex/kgreenlandic/lacute/lcaron/ldot/nacute/napostrophe/ncaron/racute/rcaron/sacute/scedilla/scircumflex/tbar/tcaron/ubreve/uhungarumlaut/umacron/uogonek/uring/wacute/wcircumflex/wdieresis/wgrave/ycircumflex/ygrave/zacute/zdotaccent/Eng/eng Ðó/obreve ôöò/ohungarumlaut/omacron Ó/Obreve ÔÖÒ/Ohungarumlaut/Omacron Ø/Oslashacute/Itilde Õ/Utilde Ññ/itilde ãõ/utilde Á/Abreve ÂÀÄ/Amacron/Aogonek ÅÃÞþ",
notHO,
"nnnoonnoononn\012nnn/Placeholder no/Placeholder oo\012abcdefghijkolmno\012pqrsnotuvwoxoyz",

glyphs = (
{
glyphname = A;
lastChange = "2021-08-11 03:34:21 +0000";
layers = (
{
anchors = (
{
name = bottom;
position = "{346, 0}";
},
{
name = ogonek;
position = "{623, 10}";
},
{
name = top;
position = "{346, 460}";
}
);
background = {
anchors = (
{
name = bottom;
position = "{346, 0}";
},
{
name = ogonek;
position = "{623, 10}";
},
{
name = top;
position = "{346, 460}";
}
);
hints = (
{
horizontal = 1;
place = "{64, 151}";
type = Stem;
},
{
horizontal = 1;
place = "{460, -20}";
target = down;
type = TopGhost;
},
{
place = "{26, 685}";
type = Stem;
},
{
horizontal = 1;
place = "{0, 215}";
type = Stem;
}
);
paths = (
{
closed = 1;
nodes = (
"179 0 LINE",
"219 86 LINE",
"397 86 LINE",
"440 0 LINE",
"687 0 LINE",
"510 374 LINE",
"482 434 OFFCURVE",
"427 464 OFFCURVE",
"350 464 CURVE",
"251 464 OFFCURVE",
"210 430 OFFCURVE",
"183 374 CURVE",
"6 0 LINE"
);
},
{
closed = 1;
nodes = (
"302 265 LINE",
"304 269 OFFCURVE",
"306 274 OFFCURVE",
"306 274 CURVE",
"306 274 OFFCURVE",
"308 269 OFFCURVE",
"309 265 CURVE",
"355 169 LINE",
"254 169 LINE"
);
}
);
};
layerId = "C7668D88-AC50-4107-9C4B-DB5D26A8FA6C";
paths = (
{
closed = 1;
nodes = (
"179 0 LINE",
"219 86 LINE",
"397 86 LINE",
"440 0 LINE",
"687 0 LINE",
"510 374 LINE",
"482 434 OFFCURVE",
"427 464 OFFCURVE",
"350 464 CURVE",
"251 464 OFFCURVE",
"210 430 OFFCURVE",
"183 374 CURVE",
"6 0 LINE"
);
},
{
closed = 1;
nodes = (
"302 265 LINE",
"304 269 OFFCURVE",
"306 274 OFFCURVE",
"306 274 CURVE",
"306 274 OFFCURVE",
"308 269 OFFCURVE",
"309 265 CURVE",
"355 169 LINE",
"254 169 LINE"
);
}
);
width = 692;
},
{
anchors = (
{
name = bottom;
position = "{204, 0}";
},
{
name = ogonek;
position = "{400, 10}";
},
{
name = top;
position = "{204, 460}";
}
);
background = {
anchors = (
{
name = bottom;
position = "{204, 0}";
},
{
name = ogonek;
position = "{400, 10}";
},
{
name = top;
position = "{204, 460}";
}
);
paths = (
{
closed = 1;
nodes = (
"21 0 LINE",
"63 142 LINE",
"341 142 LINE",
"384 0 LINE",
"404 0 LINE",
"283 400 LINE SMOOTH",
"269 445 OFFCURVE",
"257 464 OFFCURVE",
"202 464 CURVE SMOOTH",
"147 464 OFFCURVE",
"132 441 OFFCURVE",
"120 400 CURVE SMOOTH",
"4 0 LINE"
);
},
{
closed = 1;
nodes = (
"137 400 LINE SMOOTH",
"144 424 OFFCURVE",
"152 449 OFFCURVE",
"202 449 CURVE SMOOTH",
"246 449 OFFCURVE",
"255 425 OFFCURVE",
"263 400 CURVE SMOOTH",
"336 159 LINE",
"68 159 LINE"
);
}
);
};
layerId = "B4E8C596-9C01-4F8A-BDA4-90320E25C0E6";
paths = (
{
closed = 1;
nodes = (
"21 0 LINE",
"63 142 LINE",
"341 142 LINE",
"384 0 LINE",
"404 0 LINE",
"283 400 LINE SMOOTH",
"269 445 OFFCURVE",
"257 464 OFFCURVE",
"202 464 CURVE SMOOTH",
"147 464 OFFCURVE",
"132 441 OFFCURVE",
"120 400 CURVE SMOOTH",
"4 0 LINE"
);
},
{
closed = 1;
nodes = (
"137 400 LINE SMOOTH",
"144 424 OFFCURVE",
"152 449 OFFCURVE",
"202 449 CURVE SMOOTH",
"246 449 OFFCURVE",
"255 425 OFFCURVE",
"263 400 CURVE SMOOTH",
"336 159 LINE",
"68 159 LINE"
);
}
);
width = 408;
}
);
leftKerningGroup = A;
note = A;
rightKerningGroup = A;
unicode = 0041;
},
{
glyphname = AE;
lastChange = "2021-08-11 03:30:46 +0000";
layers = (
{
anchors = (
{
name = bottom;
position = "{484, 0}";
},
{
name = top;
position = "{671, 460}";
}
);
background = {
anchors = (
{
name = bottom;
position = "{484, 0}";
},
{
name = top;
position = "{671, 460}";
}
);
paths = (
{
closed = 1;
nodes = (
"189 0 LINE",
"209 25 OFFCURVE",
"230 49 OFFCURVE",
"250 74 CURVE",
"408 74 LINE",
"408 0 LINE",
"589 0 OFFCURVE",
"769 0 OFFCURVE",
"950 0 CURVE",
"950 123 LINE",
"627 123 LINE",
"627 167 LINE",
"724 167 OFFCURVE",
"820 167 OFFCURVE",
"917 167 CURVE",
"917 290 LINE",
"627 290 LINE",
"627 337 LINE",
"950 337 LINE",
"950 378 OFFCURVE",
"950 419 OFFCURVE",
"950 460 CURVE",
"532 460 LINE SMOOTH",
"474 460 OFFCURVE",
"416 460 OFFCURVE",
"367 402 CURVE SMOOTH",
"206 208 OFFCURVE",
"180 177 OFFCURVE",
"35 0 CURVE"
);
},
{
closed = 1;
nodes = (
"346 191 OFFCURVE",
"368 219 OFFCURVE",
"390 248 CURVE SMOOTH",
"392 250 OFFCURVE",
"394 253 OFFCURVE",
"396 255 CURVE SMOOTH",
"400 260 OFFCURVE",
"404 265 OFFCURVE",
"408 270 CURVE",
"408 234 OFFCURVE",
"408 198 OFFCURVE",
"408 162 CURVE",
"380 162 OFFCURVE",
"352 162 OFFCURVE",
"324 162 CURVE"
);
}
);
};
layerId = "C7668D88-AC50-4107-9C4B-DB5D26A8FA6C";
paths = (
{
closed = 1;
nodes = (
"189 0 LINE",
"209 25 OFFCURVE",
"230 49 OFFCURVE",
"250 74 CURVE",
"408 74 LINE",
"408 0 LINE",
"589 0 OFFCURVE",
"769 0 OFFCURVE",
"950 0 CURVE",
"950 123 LINE",
"627 123 LINE",
"627 167 LINE",
"724 167 OFFCURVE",
"820 167 OFFCURVE",
"917 167 CURVE",
"917 290 LINE",
"627 290 LINE",
"627 337 LINE",
"950 337 LINE",
"950 378 OFFCURVE",
"950 419 OFFCURVE",
"950 460 CURVE",
"532 460 LINE SMOOTH",
"474 460 OFFCURVE",
"416 460 OFFCURVE",
"367 402 CURVE SMOOTH",
"206 208 OFFCURVE",
"180 177 OFFCURVE",
"35 0 CURVE"
);
},
{
closed = 1;
nodes = (
"346 191 OFFCURVE",
"368 219 OFFCURVE",
"390 248 CURVE SMOOTH",
"392 250 OFFCURVE",
"394 253 OFFCURVE",
"396 255 CURVE SMOOTH",
"400 260 OFFCURVE",
"404 265 OFFCURVE",
"408 270 CURVE",
"408 234 OFFCURVE",
"408 198 OFFCURVE",
"408 162 CURVE",
"380 162 OFFCURVE",
"352 162 OFFCURVE",
"324 162 CURVE"
);
}
);
width = 968;
},
{
anchors = (
{
name = bottom;
position = "{352, 0}";
},
{
name = top;
position = "{352, 460}";
}
);
background = {
anchors = (
{
name = bottom;
position = "{352, 0}";
},
{
name = top;
position = "{352, 460}";
}
);
paths = (
{
closed = 1;
nodes = (
"18 0 LINE",
"47 47 OFFCURVE",
"75 95 OFFCURVE",
"104 142 CURVE",
"319 142 LINE",
"319 0 LINE",
"440 0 OFFCURVE",
"562 0 OFFCURVE",
"683 0 CURVE",
"683 17 LINE",
"339 17 LINE",
"339 236 LINE",
"445 236 OFFCURVE",
"551 236 OFFCURVE",
"657 236 CURVE",
"657 253 LINE",
"339 253 LINE",
"339 443 LINE",
"683 443 LINE",
"683 449 OFFCURVE",
"683 454 OFFCURVE",
"683 460 CURVE",
"330 460 LINE SMOOTH",
"301 460 OFFCURVE",
"270 454 OFFCURVE",
"236 396 CURVE SMOOTH",
"157 264 OFFCURVE",
"78 132 OFFCURVE",
"-1 0 CURVE"
);
},
{
closed = 1;
nodes = (
"162 239 OFFCURVE",
"210 319 OFFCURVE",
"258 399 CURVE SMOOTH",
"272 424 OFFCURVE",
"289 443 OFFCURVE",
"313 443 CURVE SMOOTH",
"315 443 OFFCURVE",
"317 443 OFFCURVE",
"319 443 CURVE",
"319 348 OFFCURVE",
"319 254 OFFCURVE",
"319 159 CURVE",
"251 159 OFFCURVE",
"182 159 OFFCURVE",
"114 159 CURVE"
);
}
);
};
layerId = "B4E8C596-9C01-4F8A-BDA4-90320E25C0E6";
paths = (
{
closed = 1;
nodes = (
"18 0 LINE",
"47 47 OFFCURVE",
"75 95 OFFCURVE",
"104 142 CURVE",
"319 142 LINE",
"319 0 LINE",
"440 0 OFFCURVE",
"562 0 OFFCURVE",
"683 0 CURVE",
"683 17 LINE",
"339 17 LINE",
"339 236 LINE",
"445 236 OFFCURVE",
"551 236 OFFCURVE",
"657 236 CURVE",
"657 253 LINE",
"339 253 LINE",
"339 443 LINE",
"683 443 LINE",
"683 449 OFFCURVE",
"683 454 OFFCURVE",
"683 460 CURVE",
"330 460 LINE SMOOTH",
"301 460 OFFCURVE",
"270 454 OFFCURVE",
"236 396 CURVE SMOOTH",
"157 264 OFFCURVE",
"78 132 OFFCURVE",
"-1 0 CURVE"
);
},
{
closed = 1;
nodes = (
"162 239 OFFCURVE",
"210 319 OFFCURVE",
"258 399 CURVE SMOOTH",
"272 424 OFFCURVE",
"289 443 OFFCURVE",
"313 443 CURVE SMOOTH",
"315 443 OFFCURVE",
"317 443 OFFCURVE",
"319 443 CURVE",
"319 348 OFFCURVE",
"319 254 OFFCURVE",
"319 159 CURVE",
"251 159 OFFCURVE",
"182 159 OFFCURVE",
"114 159 CURVE"
);
}
);
width = 704;
}
);
leftKerningGroup = AE;
note = AE;
rightKerningGroup = E;
unicode = 00C6;
},
{
glyphname = B;
lastChange = "2021-07-01 18:39:37 +0000";
layers = (
{
anchors = (
{
name = bottom;
position = "{349, 0}";
},
{
name = top;
position = "{349, 460}";
}
);
background = {
anchors = (
{
name = bottom;
position = "{349, 0}";
},
{
name = top;
position = "{349, 460}";
}
);
hints = (
{
horizontal = 1;
place = "{0, 103}";
type = Stem;
},
{
horizontal = 1;
place = "{189, 97}";
type = Stem;
},
{
horizontal = 1;
place = "{372, 88}";
type = Stem;
},
{
place = "{40, 228}";
type = Stem;
},
{
place = "{434, 227}";
type = Stem;
}
);
paths = (
{
closed = 1;
nodes = (
"40 0 LINE",
"70 -1 OFFCURVE",
"347 -1 OFFCURVE",
"463 -1 CURVE SMOOTH",
"628 -1 OFFCURVE",
"661 22 OFFCURVE",
"661 137 CURVE SMOOTH",
"661 218 OFFCURVE",
"636 245 OFFCURVE",
"552 245 CURVE",
"579 245 OFFCURVE",
"645 255 OFFCURVE",
"645 348 CURVE SMOOTH",
"645 413 OFFCURVE",
"616 452 OFFCURVE",
"539 459 CURVE SMOOTH",
"481 464 OFFCURVE",
"373 462 OFFCURVE",
"87 460 CURVE SMOOTH",
"57 460 OFFCURVE",
"40 453 OFFCURVE",
"40 414 CURVE SMOOTH"
);
},
{
closed = 1;
nodes = (
"227 286 LINE",
"227 279 OFFCURVE",
"223 189 OFFCURVE",
"237 189 CURVE SMOOTH",
"388 189 LINE SMOOTH",
"428 189 OFFCURVE",
"434 177 OFFCURVE",
"434 147 CURVE SMOOTH",
"434 103 OFFCURVE",
"423 103 OFFCURVE",
"387 103 CURVE SMOOTH",
"273 103 OFFCURVE",
"284 103 OFFCURVE",
"268 103 CURVE",
"268 344 LINE SMOOTH",
"268 369 OFFCURVE",
"289 372 OFFCURVE",
"294 372 CURVE SMOOTH",
"328 372 OFFCURVE",
"362 372 OFFCURVE",
"385 372 CURVE SMOOTH",
"411 372 OFFCURVE",
"417 358 OFFCURVE",
"417 330 CURVE SMOOTH",
"417 286 OFFCURVE",
"405 286 OFFCURVE",
"381 286 CURVE SMOOTH"
);
}
);
};
layerId = "C7668D88-AC50-4107-9C4B-DB5D26A8FA6C";
paths = (
{
closed = 1;
nodes = (
"40 0 LINE",
"70 -1 OFFCURVE",
"347 -1 OFFCURVE",
"463 -1 CURVE SMOOTH",
"628 -1 OFFCURVE",
"661 22 OFFCURVE",
"661 137 CURVE SMOOTH",
"661 218 OFFCURVE",
"636 245 OFFCURVE",
"552 245 CURVE",
"579 245 OFFCURVE",
"645 255 OFFCURVE",
"645 348 CURVE SMOOTH",
"645 413 OFFCURVE",
"616 452 OFFCURVE",
"539 459 CURVE SMOOTH",
"481 464 OFFCURVE",
"373 462 OFFCURVE",
"87 460 CURVE SMOOTH",
"57 460 OFFCURVE",
"40 453 OFFCURVE",
"40 414 CURVE SMOOTH"
);
},
{
closed = 1;
nodes = (
"227 286 LINE",
"227 279 OFFCURVE",
"223 189 OFFCURVE",
"237 189 CURVE SMOOTH",
"388 189 LINE SMOOTH",
"428 189 OFFCURVE",
"434 177 OFFCURVE",
"434 147 CURVE SMOOTH",
"434 103 OFFCURVE",
"423 103 OFFCURVE",
"387 103 CURVE SMOOTH",
"273 103 OFFCURVE",
"284 103 OFFCURVE",
"268 103 CURVE",
"268 344 LINE SMOOTH",
"268 369 OFFCURVE",
"289 372 OFFCURVE",
"294 372 CURVE SMOOTH",
"328 372 OFFCURVE",
"362 372 OFFCURVE",
"385 372 CURVE SMOOTH",
"411 372 OFFCURVE",
"417 358 OFFCURVE",
"417 330 CURVE SMOOTH",
"417 286 OFFCURVE",
"405 286 OFFCURVE",
"381 286 CURVE SMOOTH"
);
}
);
width = 697;
},
{
anchors = (
{
name = bottom;
position = "{271, 0}";
},
{
name = top;
position = "{271, 460}";
}
);
background = {
anchors = (
{
name = bottom;
position = "{271, 0}";
},
{
name = top;
position = "{271, 460}";
}
);
paths = (
{
closed = 1;
nodes = (
"75 0 LINE",
"105 -2 OFFCURVE",
"161 -3 OFFCURVE",
"272 -3 CURVE SMOOTH",
"353 -3 OFFCURVE",
"473 -4 OFFCURVE",
"473 123 CURVE SMOOTH",
"473 232 OFFCURVE",
"411 238 OFFCURVE",
"377 238 CURVE",
"409 243 OFFCURVE",
"454 269 OFFCURVE",
"454 348 CURVE SMOOTH",
"454 413 OFFCURVE",
"425 452 OFFCURVE",
"348 459 CURVE SMOOTH",
"290 464 OFFCURVE",
"182 462 OFFCURVE",
"122 460 CURVE SMOOTH",
"92 459 OFFCURVE",
"75 453 OFFCURVE",
"75 414 CURVE SMOOTH"
);
},
{
closed = 1;
nodes = (
"140 244 LINE",
"140 237 OFFCURVE",
"139 227 OFFCURVE",
"151 227 CURVE SMOOTH",
"322 227 LINE SMOOTH",
"423 227 OFFCURVE",
"452 203 OFFCURVE",
"452 124 CURVE SMOOTH",
"452 14 OFFCURVE",
"357 14 OFFCURVE",
"272 14 CURVE SMOOTH",
"158 14 OFFCURVE",
"104 15 OFFCURVE",
"95 16 CURVE",
"95 416 LINE SMOOTH",
"95 441 OFFCURVE",
"117 443 OFFCURVE",
"122 443 CURVE SMOOTH",
"167 445 OFFCURVE",
"279 449 OFFCURVE",
"351 441 CURVE SMOOTH",
"408 435 OFFCURVE",
"433 403 OFFCURVE",
"433 350 CURVE SMOOTH",
"433 263 OFFCURVE",
"378 244 OFFCURVE",
"321 244 CURVE SMOOTH"
);
}
);
};
layerId = "B4E8C596-9C01-4F8A-BDA4-90320E25C0E6";
paths = (
{
closed = 1;
nodes = (
"75 0 LINE",
"105 -2 OFFCURVE",
"161 -3 OFFCURVE",
"272 -3 CURVE SMOOTH",
"353 -3 OFFCURVE",
"473 -4 OFFCURVE",
"473 123 CURVE SMOOTH",
"473 232 OFFCURVE",
"411 238 OFFCURVE",
"377 238 CURVE",
"409 243 OFFCURVE",
"454 269 OFFCURVE",
"454 348 CURVE SMOOTH",
"454 413 OFFCURVE",
"425 452 OFFCURVE",
"348 459 CURVE SMOOTH",
"290 464 OFFCURVE",
"182 462 OFFCURVE",
"122 460 CURVE SMOOTH",
"92 459 OFFCURVE",
"75 453 OFFCURVE",
"75 414 CURVE SMOOTH"
);
},
{
closed = 1;
nodes = (
"140 244 LINE",
"140 237 OFFCURVE",
"139 227 OFFCURVE",
"151 227 CURVE SMOOTH",
"322 227 LINE SMOOTH",
"423 227 OFFCURVE",
"452 203 OFFCURVE",
"452 124 CURVE SMOOTH",
"452 14 OFFCURVE",
"357 14 OFFCURVE",
"272 14 CURVE SMOOTH",
"158 14 OFFCURVE",
"104 15 OFFCURVE",
"95 16 CURVE",
"95 416 LINE SMOOTH",
"95 441 OFFCURVE",
"117 443 OFFCURVE",
"122 443 CURVE SMOOTH",
"167 445 OFFCURVE",
"279 449 OFFCURVE",
"351 441 CURVE SMOOTH",
"408 435 OFFCURVE",
"433 403 OFFCURVE",
"433 350 CURVE SMOOTH",
"433 263 OFFCURVE",
"378 244 OFFCURVE",
"321 244 CURVE SMOOTH"
);
}
);
width = 518;
}
);
leftKerningGroup = H;
leftMetricsKey = H;
note = B;
rightKerningGroup = B;
unicode = 0042;
},
{
glyphname = C;
lastChange = "2021-07-01 18:39:04 +0000";
layers = (
{
anchors = (
{
name = bottom;
position = "{363, 0}";
},
{
name = top;
position = "{369, 460}";
}
);
background = {
anchors = (
{
name = bottom;
position = "{363, 0}";
},
{
name = top;
position = "{369, 460}";
}
);
paths = (
{
closed = 1;
nodes = (
"20 25 OFFCURVE",
"142 -6 OFFCURVE",
"387 -6 CURVE SMOOTH",
"446 -6 OFFCURVE",
"505 -4 OFFCURVE",
"557 4 CURVE SMOOTH",
"627 12 OFFCURVE",
"644 39 OFFCURVE",
"644 82 CURVE SMOOTH",
"644 146 LINE",
"546 127 OFFCURVE",
"483 117 OFFCURVE",
"424 117 CURVE SMOOTH",
"303 117 OFFCURVE",
"253 126 OFFCURVE",
"253 227 CURVE SMOOTH",
"253 334 OFFCURVE",
"302 339 OFFCURVE",
"406 339 CURVE SMOOTH",
"469 339 OFFCURVE",
"571 327 OFFCURVE",
"644 304 CURVE",
"644 373 LINE SMOOTH",
"644 419 OFFCURVE",
"628 444 OFFCURVE",
"562 452 CURVE SMOOTH",
"507 459 OFFCURVE",
"456 462 OFFCURVE",
"396 462 CURVE SMOOTH",
"192 462 OFFCURVE",
"20 451 OFFCURVE",
"20 226 CURVE SMOOTH"
);
}
);
};
layerId = "C7668D88-AC50-4107-9C4B-DB5D26A8FA6C";
paths = (
{
closed = 1;
nodes = (
"20 25 OFFCURVE",
"142 -6 OFFCURVE",
"387 -6 CURVE SMOOTH",
"446 -6 OFFCURVE",
"505 -4 OFFCURVE",
"557 4 CURVE SMOOTH",
"627 12 OFFCURVE",
"644 39 OFFCURVE",
"644 82 CURVE SMOOTH",
"644 146 LINE",
"546 127 OFFCURVE",
"483 117 OFFCURVE",
"424 117 CURVE SMOOTH",
"303 117 OFFCURVE",
"253 126 OFFCURVE",
"253 227 CURVE SMOOTH",
"253 334 OFFCURVE",
"302 339 OFFCURVE",
"406 339 CURVE SMOOTH",
"469 339 OFFCURVE",
"571 327 OFFCURVE",
"644 304 CURVE",
"644 373 LINE SMOOTH",
"644 419 OFFCURVE",
"628 444 OFFCURVE",
"562 452 CURVE SMOOTH",
"507 459 OFFCURVE",
"456 462 OFFCURVE",
"396 462 CURVE SMOOTH",
"192 462 OFFCURVE",
"20 451 OFFCURVE",
"20 226 CURVE SMOOTH"
);
}
);
width = 674;
},
{
anchors = (
{
name = bottom;
position = "{273, 0}";
},
{
name = top;
position = "{273, 460}";
}
);
background = {
anchors = (
{
name = bottom;
position = "{273, 0}";
},
{
name = top;
position = "{273, 460}";
}
);
paths = (
{
closed = 1;
nodes = (
"50 33 OFFCURVE",
"112 -8 OFFCURVE",
"275 -8 CURVE SMOOTH",
"321 -8 OFFCURVE",
"365 -5 OFFCURVE",
"410 4 CURVE SMOOTH",
"439 9 OFFCURVE",
"445 16 OFFCURVE",
"445 25 CURVE SMOOTH",
"445 33 LINE",
"417 18 OFFCURVE",
"327 8 OFFCURVE",
"273 8 CURVE SMOOTH",
"112 8 OFFCURVE",
"70 63 OFFCURVE",
"70 230 CURVE SMOOTH",
"70 395 OFFCURVE",
"119 450 OFFCURVE",
"273 450 CURVE SMOOTH",
"327 450 OFFCURVE",
"417 440 OFFCURVE",
"445 425 CURVE",
"445 433 LINE SMOOTH",
"445 442 OFFCURVE",
"439 449 OFFCURVE",
"410 454 CURVE SMOOTH",
"365 463 OFFCURVE",
"321 466 OFFCURVE",
"275 466 CURVE SMOOTH",
"119 466 OFFCURVE",
"50 422 OFFCURVE",
"50 230 CURVE SMOOTH"
);
}
);
};
layerId = "B4E8C596-9C01-4F8A-BDA4-90320E25C0E6";
paths = (
{
closed = 1;
nodes = (
"50 33 OFFCURVE",
"112 -8 OFFCURVE",
"275 -8 CURVE SMOOTH",
"321 -8 OFFCURVE",
"365 -5 OFFCURVE",
"410 4 CURVE SMOOTH",
"439 9 OFFCURVE",
"445 16 OFFCURVE",
"445 25 CURVE SMOOTH",
"445 33 LINE",
"417 18 OFFCURVE",
"327 8 OFFCURVE",
"273 8 CURVE SMOOTH",
"112 8 OFFCURVE",
"70 63 OFFCURVE",
"70 230 CURVE SMOOTH",
"70 395 OFFCURVE",
"119 450 OFFCURVE",
"273 450 CURVE SMOOTH",
"327 450 OFFCURVE",
"417 440 OFFCURVE",
"445 425 CURVE",
"445 433 LINE SMOOTH",
"445 442 OFFCURVE",
"439 449 OFFCURVE",
"410 454 CURVE SMOOTH",
"365 463 OFFCURVE",
"321 466 OFFCURVE",
"275 466 CURVE SMOOTH",
"119 466 OFFCURVE",
"50 422 OFFCURVE",
"50 230 CURVE SMOOTH"
);
}
);
width = 485;
}
);
leftKerningGroup = O;
leftMetricsKey = O;
note = C;
rightKerningGroup = C;
unicode = 0043;
},
{
glyphname = D;
lastChange = "2021-07-01 18:39:42 +0000";
layers = (
{
anchors = (
{
name = bottom;
position = "{355, 0}";
},
{
name = center;
position = "{355, 230}";
},
{
name = top;
position = "{355, 460}";
}
);
background = {
anchors = (
{
name = bottom;
position = "{355, 0}";
},
{
name = center;
position = "{355, 230}";
},
{
name = top;
position = "{355, 460}";
}
);
paths = (
{
closed = 1;
nodes = (
"670 450 OFFCURVE",
"547 460 OFFCURVE",
"382 460 CURVE SMOOTH",
"293 460 OFFCURVE",
"205 460 OFFCURVE",
"116 460 CURVE SMOOTH",
"54 460 OFFCURVE",
"40 437 OFFCURVE",
"40 381 CURVE SMOOTH",
"40 0 LINE",
"134 0 OFFCURVE",
"228 0 OFFCURVE",
"322 0 CURVE SMOOTH",
"535 0 OFFCURVE",
"670 4 OFFCURVE",
"670 226 CURVE SMOOTH"
);
},
{
closed = 1;
nodes = (
"268 318 LINE",
"268 328 OFFCURVE",
"268 339 OFFCURVE",
"268 349 CURVE",
"293 349 OFFCURVE",
"319 349 OFFCURVE",
"344 349 CURVE SMOOTH",
"418 349 OFFCURVE",
"444 342 OFFCURVE",
"444 227 CURVE SMOOTH",
"444 158 OFFCURVE",
"425 112 OFFCURVE",
"353 112 CURVE SMOOTH",
"325 112 OFFCURVE",
"296 112 OFFCURVE",
"268 112 CURVE"
);
}
);
};
layerId = "C7668D88-AC50-4107-9C4B-DB5D26A8FA6C";
paths = (
{
closed = 1;
nodes = (
"670 450 OFFCURVE",
"547 460 OFFCURVE",
"382 460 CURVE SMOOTH",
"293 460 OFFCURVE",
"205 460 OFFCURVE",
"116 460 CURVE SMOOTH",
"54 460 OFFCURVE",
"40 437 OFFCURVE",
"40 381 CURVE SMOOTH",
"40 0 LINE",
"134 0 OFFCURVE",
"228 0 OFFCURVE",
"322 0 CURVE SMOOTH",
"535 0 OFFCURVE",
"670 4 OFFCURVE",
"670 226 CURVE SMOOTH"
);
},
{
closed = 1;
nodes = (
"268 318 LINE",
"268 328 OFFCURVE",
"268 339 OFFCURVE",
"268 349 CURVE",
"293 349 OFFCURVE",
"319 349 OFFCURVE",
"344 349 CURVE SMOOTH",
"418 349 OFFCURVE",
"444 342 OFFCURVE",
"444 227 CURVE SMOOTH",
"444 158 OFFCURVE",
"425 112 OFFCURVE",
"353 112 CURVE SMOOTH",
"325 112 OFFCURVE",
"296 112 OFFCURVE",
"268 112 CURVE"
);
}
);
width = 710;
},
{
anchors = (
{
name = bottom;
position = "{272, 0}";
},
{
name = center;
position = "{272, 230}";
},
{
name = top;
position = "{272, 460}";
}
);
background = {
anchors = (
{
name = bottom;
position = "{272, 0}";
},
{
name = center;
position = "{272, 230}";
},
{
name = top;
position = "{272, 460}";
}
);
paths = (
{
closed = 1;
nodes = (
"493 450 OFFCURVE",
"417 455 OFFCURVE",
"298 462 CURVE SMOOTH",
"261 464 OFFCURVE",
"145 462 OFFCURVE",
"120 460 CURVE SMOOTH",
"74 456 OFFCURVE",
"75 438 OFFCURVE",
"75 398 CURVE SMOOTH",
"75 0 LINE",
"95 0 OFFCURVE",
"198 -3 OFFCURVE",
"245 -3 CURVE SMOOTH",
"387 -3 OFFCURVE",
"493 -10 OFFCURVE",
"493 225 CURVE SMOOTH"
);
},
{
closed = 1;
nodes = (
"95 404 LINE SMOOTH",
"95 434 OFFCURVE",
"102 438 OFFCURVE",
"116 441 CURVE SMOOTH",
"143 446 OFFCURVE",
"236 446 OFFCURVE",
"265 446 CURVE SMOOTH",
"426 446 OFFCURVE",
"473 408 OFFCURVE",
"473 224 CURVE SMOOTH",
"473 42 OFFCURVE",
"418 14 OFFCURVE",
"257 14 CURVE SMOOTH",
"224 14 OFFCURVE",
"111 16 OFFCURVE",
"95 17 CURVE"
);
}
);
};
layerId = "B4E8C596-9C01-4F8A-BDA4-90320E25C0E6";
paths = (
{
closed = 1;
nodes = (
"493 450 OFFCURVE",
"417 455 OFFCURVE",
"298 462 CURVE SMOOTH",
"261 464 OFFCURVE",
"145 462 OFFCURVE",
"120 460 CURVE SMOOTH",
"74 456 OFFCURVE",
"75 438 OFFCURVE",
"75 398 CURVE SMOOTH",
"75 0 LINE",
"95 0 OFFCURVE",
"198 -3 OFFCURVE",
"245 -3 CURVE SMOOTH",
"387 -3 OFFCURVE",
"493 -10 OFFCURVE",
"493 225 CURVE SMOOTH"
);
},
{
closed = 1;
nodes = (
"95 404 LINE SMOOTH",
"95 434 OFFCURVE",
"102 438 OFFCURVE",
"116 441 CURVE SMOOTH",
"143 446 OFFCURVE",
"236 446 OFFCURVE",
"265 446 CURVE SMOOTH",
"426 446 OFFCURVE",
"473 408 OFFCURVE",
"473 224 CURVE SMOOTH",
"473 42 OFFCURVE",
"418 14 OFFCURVE",
"257 14 CURVE SMOOTH",
"224 14 OFFCURVE",
"111 16 OFFCURVE",
"95 17 CURVE"
);
}
);
width = 521;
}
);
leftKerningGroup = H;
leftMetricsKey = H;
note = D;
rightKerningGroup = O;
unicode = 0044;
},
{
glyphname = E;
lastChange = "2021-07-01 18:39:47 +0000";
layers = (
{
anchors = (
{
name = bottom;
position = "{332, 0}";
},
{
name = ogonek;
position = "{399, 10}";
},
{
name = top;
position = "{332, 460}";
},
{
name = topleft;
position = "{20, 460}";
}
);
background = {
anchors = (
{
name = bottom;
position = "{332, 0}";
},
{
name = ogonek;
position = "{399, 10}";
},
{
name = top;
position = "{332, 460}";
},
{
name = topleft;
position = "{20, 460}";
}
);
paths = (
{
closed = 1;
nodes = (
"624 0 LINE",
"624 116 LINE",
"269 116 LINE",
"269 174 LINE",
"589 174 LINE",
"589 289 LINE",
"269 289 LINE",
"269 344 LINE",
"624 344 LINE",
"624 460 LINE",
"114 460 LINE SMOOTH",
"40 460 OFFCURVE",
"40 440 OFFCURVE",
"40 380 CURVE SMOOTH",
"40 0 LINE"
);
}
);
};
layerId = "C7668D88-AC50-4107-9C4B-DB5D26A8FA6C";
paths = (
{
closed = 1;
nodes = (
"624 0 LINE",
"624 116 LINE",
"269 116 LINE",
"269 174 LINE",
"589 174 LINE",
"589 289 LINE",
"269 289 LINE",
"269 344 LINE",
"624 344 LINE",
"624 460 LINE",
"114 460 LINE SMOOTH",
"40 460 OFFCURVE",
"40 440 OFFCURVE",
"40 380 CURVE SMOOTH",
"40 0 LINE"
);
}
);
width = 664;
},
{
anchors = (
{
name = bottom;
position = "{251, 0}";
},
{
name = ogonek;
position = "{433, 10}";
},
{
name = top;
position = "{251, 460}";
},
{
name = topleft;
position = "{43, 460}";
}
);
background = {
anchors = (
{
name = bottom;
position = "{251, 0}";
},
{
name = ogonek;
position = "{433, 10}";
},
{
name = top;
position = "{251, 460}";
},
{
name = topleft;
position = "{43, 460}";
}
);
paths = (
{
closed = 1;
nodes = (
"439 0 LINE",
"439 17 LINE",
"95 17 LINE",
"95 236 LINE",
"413 236 LINE",
"413 253 LINE",
"95 253 LINE",
"95 443 LINE",
"439 443 LINE",
"439 460 LINE",
"85 460 LINE SMOOTH",
"75 460 OFFCURVE",
"75 453 OFFCURVE",
"75 441 CURVE SMOOTH",
"75 0 LINE"
);
}
);
};
layerId = "B4E8C596-9C01-4F8A-BDA4-90320E25C0E6";
paths = (
{
closed = 1;
nodes = (
"439 0 LINE",
"439 17 LINE",
"95 17 LINE",
"95 236 LINE",
"413 236 LINE",
"413 253 LINE",
"95 253 LINE",
"95 443 LINE",
"439 443 LINE",
"439 460 LINE",
"85 460 LINE SMOOTH",
"75 460 OFFCURVE",
"75 453 OFFCURVE",
"75 441 CURVE SMOOTH",
"75 0 LINE"
);
}
);
width = 479;
}
);
leftKerningGroup = H;
leftMetricsKey = H;
note = E;
rightKerningGroup = E;
unicode = 0045;
},
{
glyphname = F;
lastChange = "2021-07-01 18:39:52 +0000";
layers = (
{
anchors = (
{
name = bottom;
position = "{325, 0}";
},
{
name = top;
position = "{325, 460}";
}
);
background = {
anchors = (
{
name = bottom;
position = "{325, 0}";
},
{
name = top;
position = "{325, 460}";
}
);
paths = (
{
closed = 1;
nodes = (
"269 0 LINE",
"269 174 LINE",
"589 174 LINE",
"589 289 LINE",
"269 289 LINE",
"269 344 LINE",
"624 344 LINE",
"624 460 LINE",
"114 460 LINE SMOOTH",
"40 460 OFFCURVE",
"40 440 OFFCURVE",
"40 380 CURVE SMOOTH",
"40 0 LINE"
);
}
);
};
layerId = "C7668D88-AC50-4107-9C4B-DB5D26A8FA6C";
paths = (
{
closed = 1;
nodes = (
"269 0 LINE",
"269 174 LINE",
"589 174 LINE",
"589 289 LINE",
"269 289 LINE",
"269 344 LINE",
"624 344 LINE",
"624 460 LINE",
"114 460 LINE SMOOTH",
"40 460 OFFCURVE",
"40 440 OFFCURVE",
"40 380 CURVE SMOOTH",
"40 0 LINE"
);
}
);
width = 649;
},
{
anchors = (
{
name = bottom;
position = "{243, 0}";
},
{
name = top;
position = "{243, 460}";
}
);
background = {
anchors = (
{
name = bottom;
position = "{243, 0}";
},
{
name = top;
position = "{243, 460}";
}
);
paths = (
{
closed = 1;
nodes = (
"95 0 LINE",
"95 236 LINE",
"413 236 LINE",
"413 253 LINE",
"95 253 LINE",
"95 443 LINE",
"439 443 LINE",
"439 460 LINE",
"85 460 LINE SMOOTH",
"75 460 OFFCURVE",
"75 453 OFFCURVE",
"75 441 CURVE SMOOTH",
"75 0 LINE"
);
}
);
};
layerId = "B4E8C596-9C01-4F8A-BDA4-90320E25C0E6";
paths = (
{
closed = 1;
nodes = (
"95 0 LINE",
"95 236 LINE",
"413 236 LINE",
"413 253 LINE",
"95 253 LINE",
"95 443 LINE",
"439 443 LINE",
"439 460 LINE",
"85 460 LINE SMOOTH",
"75 460 OFFCURVE",
"75 453 OFFCURVE",
"75 441 CURVE SMOOTH",
"75 0 LINE"
);
}
);
width = 462;
}
);
leftKerningGroup = H;
leftMetricsKey = H;
note = F;
rightKerningGroup = F;
unicode = 0046;
},
{
glyphname = G;
lastChange = "2021-07-01 18:38:46 +0000";
layers = (
{
anchors = (
{
name = bottom;
position = "{358, 0}";
},
{
name = top;
position = "{358, 460}";
}
);
background = {
anchors = (
{
name = bottom;
position = "{358, 0}";
},
{
name = top;
position = "{358, 460}";
}
);
paths = (
{
closed = 1;
nodes = (
"321 -3 OFFCURVE",
"336 -3 OFFCURVE",
"351 -3 CURVE SMOOTH",
"555 -3 OFFCURVE",
"693 -3 OFFCURVE",
"693 158 CURVE SMOOTH",
"694 290 LINE",
"406 290 LINE SMOOTH",
"312 290 OFFCURVE",
"306 263 OFFCURVE",
"306 174 CURVE",
"496 174 LINE",
"496 168 OFFCURVE",
"496 163 OFFCURVE",
"496 157 CURVE SMOOTH",
"496 131 OFFCURVE",
"474 117 OFFCURVE",
"367 117 CURVE SMOOTH",
"287 117 OFFCURVE",
"245 130 OFFCURVE",
"245 227 CURVE SMOOTH",
"245 337 OFFCURVE",
"284 348 OFFCURVE",
"422 348 CURVE SMOOTH",
"449 348 OFFCURVE",
"658 346 OFFCURVE",
"676 316 CURVE",
"676 370 LINE SMOOTH",
"676 402 OFFCURVE",
"674 441 OFFCURVE",
"608 454 CURVE SMOOTH",
"576 462 OFFCURVE",
"486 465 OFFCURVE",
"396 465 CURVE SMOOTH",
"164 465 OFFCURVE",
"20 443 OFFCURVE",
"20 226 CURVE SMOOTH",
"20 34 OFFCURVE",
"118 2 OFFCURVE",
"306 -3 CURVE SMOOTH"
);
}
);
};
layerId = "C7668D88-AC50-4107-9C4B-DB5D26A8FA6C";
paths = (
{
closed = 1;
nodes = (
"321 -3 OFFCURVE",
"336 -3 OFFCURVE",
"351 -3 CURVE SMOOTH",
"555 -3 OFFCURVE",
"693 -3 OFFCURVE",
"693 158 CURVE SMOOTH",
"694 290 LINE",
"406 290 LINE SMOOTH",
"312 290 OFFCURVE",
"306 263 OFFCURVE",
"306 174 CURVE",
"496 174 LINE",
"496 168 OFFCURVE",
"496 163 OFFCURVE",
"496 157 CURVE SMOOTH",
"496 131 OFFCURVE",
"474 117 OFFCURVE",
"367 117 CURVE SMOOTH",
"287 117 OFFCURVE",
"245 130 OFFCURVE",
"245 227 CURVE SMOOTH",
"245 337 OFFCURVE",
"284 348 OFFCURVE",
"422 348 CURVE SMOOTH",
"449 348 OFFCURVE",
"658 346 OFFCURVE",
"676 316 CURVE",
"676 370 LINE SMOOTH",
"676 402 OFFCURVE",
"674 441 OFFCURVE",
"608 454 CURVE SMOOTH",
"576 462 OFFCURVE",
"486 465 OFFCURVE",
"396 465 CURVE SMOOTH",
"164 465 OFFCURVE",
"20 443 OFFCURVE",
"20 226 CURVE SMOOTH",
"20 34 OFFCURVE",
"118 2 OFFCURVE",
"306 -3 CURVE SMOOTH"
);
}
);
width = 715;
},
{
anchors = (
{
name = bottom;
position = "{256, 0}";
},
{
name = top;
position = "{256, 460}";
}
);
background = {
anchors = (
{
name = bottom;
position = "{256, 0}";
},
{
name = top;
position = "{256, 460}";
}
);
paths = (
{
closed = 1;
nodes = (
"260 -9 OFFCURVE",
"261 -9 OFFCURVE",
"263 -9 CURVE SMOOTH",
"397 -9 OFFCURVE",
"465 32 OFFCURVE",
"465 187 CURVE SMOOTH",
"465 246 LINE",
"261 246 LINE SMOOTH",
"246 246 OFFCURVE",
"244 244 OFFCURVE",
"244 229 CURVE",
"445 229 LINE",
"445 222 OFFCURVE",
"446 206 OFFCURVE",
"445 185 CURVE SMOOTH",
"440 39 OFFCURVE",
"391 8 OFFCURVE",
"262 8 CURVE SMOOTH",
"111 8 OFFCURVE",
"70 67 OFFCURVE",
"70 230 CURVE SMOOTH",
"70 395 OFFCURVE",
"119 450 OFFCURVE",
"273 450 CURVE SMOOTH",
"327 450 OFFCURVE",
"417 440 OFFCURVE",
"445 425 CURVE",
"445 433 LINE SMOOTH",
"445 442 OFFCURVE",
"439 449 OFFCURVE",
"410 454 CURVE SMOOTH",
"365 463 OFFCURVE",
"321 466 OFFCURVE",
"275 466 CURVE SMOOTH",
"121 466 OFFCURVE",
"50 422 OFFCURVE",
"50 230 CURVE SMOOTH",
"50 40 OFFCURVE",
"112 -8 OFFCURVE",
"258 -9 CURVE SMOOTH"
);
}
);
};
layerId = "B4E8C596-9C01-4F8A-BDA4-90320E25C0E6";
paths = (
{
closed = 1;
nodes = (
"260 -9 OFFCURVE",
"261 -9 OFFCURVE",
"263 -9 CURVE SMOOTH",
"397 -9 OFFCURVE",
"465 32 OFFCURVE",
"465 187 CURVE SMOOTH",
"465 246 LINE",
"261 246 LINE SMOOTH",
"246 246 OFFCURVE",
"244 244 OFFCURVE",
"244 229 CURVE",
"445 229 LINE",
"445 222 OFFCURVE",
"446 206 OFFCURVE",
"445 185 CURVE SMOOTH",
"440 39 OFFCURVE",
"391 8 OFFCURVE",
"262 8 CURVE SMOOTH",
"111 8 OFFCURVE",
"70 67 OFFCURVE",
"70 230 CURVE SMOOTH",
"70 395 OFFCURVE",
"119 450 OFFCURVE",
"273 450 CURVE SMOOTH",
"327 450 OFFCURVE",
"417 440 OFFCURVE",
"445 425 CURVE",
"445 433 LINE SMOOTH",
"445 442 OFFCURVE",
"439 449 OFFCURVE",
"410 454 CURVE SMOOTH",
"365 463 OFFCURVE",
"321 466 OFFCURVE",
"275 466 CURVE SMOOTH",
"121 466 OFFCURVE",
"50 422 OFFCURVE",
"50 230 CURVE SMOOTH",
"50 40 OFFCURVE",
"112 -8 OFFCURVE",
"258 -9 CURVE SMOOTH"
);
}
);
width = 507;
}
);
leftKerningGroup = O;
leftMetricsKey = O;
note = G;
rightKerningGroup = G;
unicode = 0047;
},
{
glyphname = H;
lastChange = "2021-08-11 03:29:30 +0000";
layers = (
{
anchors = (
{
name = bottom;
position = "{352, 0}";
},
{
name = center;
position = "{352, 230}";
},
{
name = top;
position = "{352, 460}";
},
{
name = topleft;
position = "{20, 460}";
}
);
background = {
anchors = (
{
name = bottom;
position = "{352, 0}";
},
{
name = center;
position = "{352, 230}";
},
{
name = top;
position = "{352, 460}";
},
{
name = topleft;
position = "{20, 460}";
}
);
paths = (
{
closed = 1;
nodes = (
"268 0 LINE",
"268 182 LINE",
"436 182 LINE",
"436 0 LINE",
"598 0 LINE SMOOTH",
"670 0 OFFCURVE",
"664 36 OFFCURVE",
"664 77 CURVE SMOOTH",
"664 460 LINE",
"436 460 LINE",
"436 297 LINE",
"268 297 LINE",
"268 460 LINE",
"114 460 LINE SMOOTH",
"40 460 OFFCURVE",
"40 435 OFFCURVE",
"40 395 CURVE SMOOTH",
"40 0 LINE"
);
}
);
};
layerId = "C7668D88-AC50-4107-9C4B-DB5D26A8FA6C";
paths = (
{
closed = 1;
nodes = (
"268 0 LINE",
"268 182 LINE",
"436 182 LINE",
"436 0 LINE",
"598 0 LINE SMOOTH",
"670 0 OFFCURVE",
"664 36 OFFCURVE",
"664 77 CURVE SMOOTH",
"664 460 LINE",
"436 460 LINE",
"436 297 LINE",
"268 297 LINE",
"268 460 LINE",
"114 460 LINE SMOOTH",
"40 460 OFFCURVE",
"40 435 OFFCURVE",
"40 395 CURVE SMOOTH",
"40 0 LINE"
);
}
);
width = 704;
},
{
anchors = (
{
name = bottom;
position = "{272, 0}";
},
{
name = center;
position = "{272, 230}";
},
{
name = top;
position = "{272, 460}";
},
{
name = topleft;
position = "{43, 460}";
}
);
background = {
anchors = (
{
name = bottom;
position = "{272, 0}";
},
{
name = center;
position = "{272, 230}";
},
{
name = top;
position = "{272, 460}";
},
{
name = topleft;
position = "{43, 460}";
}
);
paths = (
{
closed = 1;
nodes = (
"95 0 LINE",
"95 229 LINE",
"449 229 LINE",
"449 0 LINE",
"457 0 LINE SMOOTH",
"467 0 OFFCURVE",
"469 3 OFFCURVE",
"469 18 CURVE SMOOTH",
"469 460 LINE",
"449 460 LINE",
"449 246 LINE",
"95 246 LINE",
"95 460 LINE",
"87 460 LINE SMOOTH",
"77 460 OFFCURVE",
"75 457 OFFCURVE",
"75 442 CURVE SMOOTH",
"75 0 LINE"
);
}
);
};
layerId = "B4E8C596-9C01-4F8A-BDA4-90320E25C0E6";
paths = (
{
closed = 1;
nodes = (
"95 0 LINE",
"95 229 LINE",
"449 229 LINE",
"449 0 LINE",
"457 0 LINE SMOOTH",
"467 0 OFFCURVE",
"469 3 OFFCURVE",
"469 18 CURVE SMOOTH",
"469 460 LINE",
"449 460 LINE",
"449 246 LINE",
"95 246 LINE",
"95 460 LINE",
"87 460 LINE SMOOTH",
"77 460 OFFCURVE",
"75 457 OFFCURVE",
"75 442 CURVE SMOOTH",
"75 0 LINE"
);
}
);
width = 544;
}
);
leftKerningGroup = H;
note = H;
rightKerningGroup = H;
unicode = 0048;
},
{
glyphname = I;
lastChange = "2021-07-01 18:40:04 +0000";
layers = (
{
anchors = (
{
name = bottom;
position = "{154, 0}";
},
{
name = ogonek;
position = "{226, 10}";
},
{
name = top;
position = "{154, 460}";
},
{
name = topleft;
position = "{20, 460}";
}
);
background = {
anchors = (
{
name = bottom;
position = "{154, 0}";
},
{
name = ogonek;
position = "{226, 10}";
},
{
name = top;
position = "{154, 460}";
},
{
name = topleft;
position = "{20, 460}";
}
);
paths = (
{
closed = 1;
nodes = (
"268 0 LINE",
"268 460 LINE",
"114 460 LINE",
"41 460 OFFCURVE",
"40 436 OFFCURVE",
"40 394 CURVE SMOOTH",
"40 263 OFFCURVE",
"40 131 OFFCURVE",
"40 0 CURVE"
);
}
);
};
layerId = "C7668D88-AC50-4107-9C4B-DB5D26A8FA6C";
paths = (
{
closed = 1;
nodes = (
"268 0 LINE",
"268 460 LINE",
"114 460 LINE",
"41 460 OFFCURVE",
"40 436 OFFCURVE",
"40 394 CURVE SMOOTH",
"40 263 OFFCURVE",
"40 131 OFFCURVE",
"40 0 CURVE"
);
}
);
width = 308;
},
{
anchors = (
{
name = bottom;
position = "{85, 0}";
},
{
name = ogonek;
position = "{95, 10}";
},
{
name = top;
position = "{85, 460}";
},
{
name = topleft;
position = "{7, 460}";
}
);
background = {
anchors = (
{
name = bottom;
position = "{85, 0}";
},
{
name = ogonek;
position = "{95, 10}";
},
{
name = top;
position = "{85, 460}";
},
{
name = topleft;
position = "{7, 460}";
}
);
paths = (
{
closed = 1;
nodes = (
"95 0 LINE",
"95 460 LINE",
"85 460 LINE SMOOTH",
"75 460 OFFCURVE",
"75 453 OFFCURVE",
"75 441 CURVE SMOOTH",
"75 294 OFFCURVE",
"75 147 OFFCURVE",
"75 0 CURVE"
);
}
);
};
layerId = "B4E8C596-9C01-4F8A-BDA4-90320E25C0E6";
paths = (
{
closed = 1;
nodes = (
"95 0 LINE",
"95 460 LINE",
"85 460 LINE SMOOTH",
"75 460 OFFCURVE",
"75 453 OFFCURVE",
"75 441 CURVE SMOOTH",
"75 294 OFFCURVE",
"75 147 OFFCURVE",
"75 0 CURVE"
);
}
);
width = 170;
}
);
leftKerningGroup = I;
leftMetricsKey = H;
note = I;
rightKerningGroup = I;
rightMetricsKey = H;
unicode = 0049;
},
{
glyphname = J;
lastChange = "2021-07-01 18:40:10 +0000";
layers = (
{
anchors = (
{
name = bottom;
position = "{203, 0}";
},
{
name = top;
position = "{242, 460}";
}
);
background = {
anchors = (
{
name = bottom;
position = "{203, 0}";
},
{
name = top;
position = "{242, 460}";
}
);
paths = (
{
closed = 1;
nodes = (
"366 379 LINE SMOOTH",
"366 433 OFFCURVE",
"370 460 OFFCURVE",
"292 460 CURVE SMOOTH",
"138 460 LINE",
"138 157 LINE SMOOTH",
"138 137 OFFCURVE",
"132 118 OFFCURVE",
"108 118 CURVE SMOOTH",
"85 118 OFFCURVE",
"43 129 OFFCURVE",
"25 136 CURVE",
"25 6 LINE",
"101 -1 OFFCURVE",
"138 -5 OFFCURVE",
"217 -1 CURVE SMOOTH",
"276 2 OFFCURVE",
"350 15 OFFCURVE",
"363 90 CURVE SMOOTH",
"366 105 OFFCURVE",
"366 126 OFFCURVE",
"366 148 CURVE SMOOTH"
);
}
);
};
layerId = "C7668D88-AC50-4107-9C4B-DB5D26A8FA6C";
paths = (
{
closed = 1;
nodes = (
"366 379 LINE SMOOTH",
"366 433 OFFCURVE",
"370 460 OFFCURVE",
"292 460 CURVE SMOOTH",
"138 460 LINE",
"138 157 LINE SMOOTH",
"138 137 OFFCURVE",
"132 118 OFFCURVE",
"108 118 CURVE SMOOTH",
"85 118 OFFCURVE",
"43 129 OFFCURVE",
"25 136 CURVE",
"25 6 LINE",
"101 -1 OFFCURVE",
"138 -5 OFFCURVE",
"217 -1 CURVE SMOOTH",
"276 2 OFFCURVE",
"350 15 OFFCURVE",
"363 90 CURVE SMOOTH",
"366 105 OFFCURVE",
"366 126 OFFCURVE",
"366 148 CURVE SMOOTH"
);
}
);
width = 406;
},
{
anchors = (
{
name = bottom;
position = "{116, 0}";
},
{
name = top;
position = "{151, 460}";
}
);
background = {
anchors = (
{
name = bottom;
position = "{116, 0}";
},
{
name = top;
position = "{151, 460}";
}
);
paths = (
{
closed = 1;
nodes = (
"161 445 LINE SMOOTH",
"161 454 OFFCURVE",
"160 460 OFFCURVE",
"151 460 CURVE SMOOTH",
"141 460 LINE",
"141 69 LINE SMOOTH",
"141 26 OFFCURVE",
"123 13 OFFCURVE",
"79 13 CURVE SMOOTH",
"69 13 OFFCURVE",
"47 16 OFFCURVE",
"40 19 CURVE",
"40 2 LINE",
"59 -3 OFFCURVE",
"85 -3 OFFCURVE",
"94 -3 CURVE SMOOTH",
"139 -3 OFFCURVE",
"155 25 OFFCURVE",
"159 49 CURVE SMOOTH",
"163 73 OFFCURVE",
"161 122 OFFCURVE",
"161 150 CURVE SMOOTH"
);
}
);
};
layerId = "B4E8C596-9C01-4F8A-BDA4-90320E25C0E6";
paths = (
{
closed = 1;
nodes = (
"161 445 LINE SMOOTH",
"161 454 OFFCURVE",
"160 460 OFFCURVE",
"151 460 CURVE SMOOTH",
"141 460 LINE",
"141 69 LINE SMOOTH",
"141 26 OFFCURVE",
"123 13 OFFCURVE",
"79 13 CURVE SMOOTH",
"69 13 OFFCURVE",
"47 16 OFFCURVE",
"40 19 CURVE",
"40 2 LINE",
"59 -3 OFFCURVE",
"85 -3 OFFCURVE",
"94 -3 CURVE SMOOTH",
"139 -3 OFFCURVE",
"155 25 OFFCURVE",
"159 49 CURVE SMOOTH",
"163 73 OFFCURVE",
"161 122 OFFCURVE",
"161 150 CURVE SMOOTH"
);
}
);
width = 236;
}
);
leftKerningGroup = J;
note = J;
rightKerningGroup = J;
rightMetricsKey = H;
unicode = 004A;
},
{
glyphname = K;
lastChange = "2021-06-29 03:47:53 +0000";
layers = (
{
anchors = (
{
name = bottom;
position = "{349, 0}";
},
{
name = top;
position = "{349, 460}";
}
);
background = {
anchors = (
{
name = bottom;
position = "{349, 0}";
},
{
name = top;
position = "{349, 460}";
}
);
hints = (
{
horizontal = 1;
place = "{0, 21}";
target = up;
type = BottomGhost;
},
{
horizontal = 1;
place = "{446, 22}";
type = Stem;
},
{
place = "{40, 227}";
type = Stem;
}
);
paths = (
{
closed = 1;
nodes = (
"629 -18 OFFCURVE",
"681 30 OFFCURVE",
"696 50 CURVE",
"425 266 LINE",
"633 417 LINE SMOOTH",
"644 425 OFFCURVE",
"683 453 OFFCURVE",
"687 456 CURVE",
"684 458 OFFCURVE",
"626 465 OFFCURVE",
"559 465 CURVE SMOOTH",
"487 465 OFFCURVE",
"439 457 OFFCURVE",
"399 428 CURVE SMOOTH",
"377 413 OFFCURVE",
"311 359 OFFCURVE",
"299 350 CURVE SMOOTH",
"285 340 OFFCURVE",
"275 333 OFFCURVE",
"270 329 CURVE SMOOTH",
"267 327 LINE",
"267 365 OFFCURVE",
"267 420 OFFCURVE",
"267 460 CURVE",
"216 460 OFFCURVE",
"164 460 OFFCURVE",
"113 460 CURVE SMOOTH",
"41 460 OFFCURVE",
"40 436 OFFCURVE",
"40 393 CURVE SMOOTH",
"40 0 LINE",
"116 0 OFFCURVE",
"191 0 OFFCURVE",
"267 0 CURVE",
"267 127 LINE",
"279 117 LINE SMOOTH",
"293 105 OFFCURVE",
"297 101 OFFCURVE",
"315 86 CURVE SMOOTH",
"352 55 OFFCURVE",
"383 32 OFFCURVE",
"412 15 CURVE SMOOTH",
"454 -9 OFFCURVE",
"493 -18 OFFCURVE",
"545 -18 CURVE SMOOTH"
);
}
);
};
layerId = "C7668D88-AC50-4107-9C4B-DB5D26A8FA6C";
paths = (
{
closed = 1;
nodes = (
"629 -18 OFFCURVE",
"681 30 OFFCURVE",
"696 50 CURVE",
"425 266 LINE",
"633 417 LINE SMOOTH",
"644 425 OFFCURVE",
"683 453 OFFCURVE",
"687 456 CURVE",
"684 458 OFFCURVE",
"626 465 OFFCURVE",
"559 465 CURVE SMOOTH",
"487 465 OFFCURVE",
"439 457 OFFCURVE",
"399 428 CURVE SMOOTH",
"377 413 OFFCURVE",
"311 359 OFFCURVE",
"299 350 CURVE SMOOTH",
"285 340 OFFCURVE",
"275 333 OFFCURVE",
"270 329 CURVE SMOOTH",
"267 327 LINE",
"267 365 OFFCURVE",
"267 420 OFFCURVE",
"267 460 CURVE",
"216 460 OFFCURVE",
"164 460 OFFCURVE",
"113 460 CURVE SMOOTH",
"41 460 OFFCURVE",
"40 436 OFFCURVE",
"40 393 CURVE SMOOTH",
"40 0 LINE",
"116 0 OFFCURVE",
"191 0 OFFCURVE",
"267 0 CURVE",
"267 127 LINE",
"279 117 LINE SMOOTH",
"293 105 OFFCURVE",
"297 101 OFFCURVE",
"315 86 CURVE SMOOTH",
"352 55 OFFCURVE",
"383 32 OFFCURVE",
"412 15 CURVE SMOOTH",
"454 -9 OFFCURVE",
"493 -18 OFFCURVE",
"545 -18 CURVE SMOOTH"
);
}
);
width = 697;
},
{
anchors = (
{
name = bottom;
position = "{219, 0}";
},
{
name = top;
position = "{219, 460}";
}
);
background = {
anchors = (
{
name = bottom;
position = "{219, 0}";
},
{
name = top;
position = "{219, 460}";
}
);
hints = (
{
horizontal = 1;
place = "{0, 21}";
target = up;
type = BottomGhost;
},
{
horizontal = 1;
place = "{231, 16}";
type = Stem;
},
{
place = "{53, 20}";
type = Stem;
}
);
paths = (
{
closed = 1;
nodes = (
"390 -1 OFFCURVE",
"395 -1 OFFCURVE",
"397 0 CURVE",
"190 244 LINE",
"284 349 LINE SMOOTH",
"292 358 OFFCURVE",
"377 453 OFFCURVE",
"381 456 CURVE",
"379 458 OFFCURVE",
"375 461 OFFCURVE",
"370 461 CURVE SMOOTH",
"365 461 OFFCURVE",
"360 459 OFFCURVE",
"355 453 CURVE SMOOTH",
"300 391 OFFCURVE",
"244 329 OFFCURVE",
"189 267 CURVE SMOOTH",
"177 253 OFFCURVE",
"172 247 OFFCURVE",
"149 247 CURVE SMOOTH",
"80 247 LINE",
"80 285 OFFCURVE",
"80 422 OFFCURVE",
"80 460 CURVE",
"76 460 OFFCURVE",
"74 460 OFFCURVE",
"68 460 CURVE SMOOTH",
"63 460 OFFCURVE",
"60 456 OFFCURVE",
"60 447 CURVE SMOOTH",
"60 0 LINE",
"70 0 OFFCURVE",
"72 0 OFFCURVE",
"80 0 CURVE",
"80 231 LINE",
"148 231 LINE SMOOTH",
"173 231 OFFCURVE",
"178 227 OFFCURVE",
"186 218 CURVE SMOOTH",
"210 189 OFFCURVE",
"344 31 OFFCURVE",
"361 12 CURVE SMOOTH",
"370 2 OFFCURVE",
"377 -1 OFFCURVE",
"385 -1 CURVE SMOOTH"
);
}
);
};
layerId = "B4E8C596-9C01-4F8A-BDA4-90320E25C0E6";
paths = (
{
closed = 1;
nodes = (
"390 -1 OFFCURVE",
"395 -1 OFFCURVE",
"397 0 CURVE",
"190 244 LINE",
"284 349 LINE SMOOTH",
"292 358 OFFCURVE",
"377 453 OFFCURVE",
"381 456 CURVE",
"379 458 OFFCURVE",
"375 461 OFFCURVE",
"370 461 CURVE SMOOTH",
"365 461 OFFCURVE",
"360 459 OFFCURVE",
"355 453 CURVE SMOOTH",
"300 391 OFFCURVE",
"244 329 OFFCURVE",
"189 267 CURVE SMOOTH",
"177 253 OFFCURVE",
"172 247 OFFCURVE",
"149 247 CURVE SMOOTH",
"80 247 LINE",
"80 285 OFFCURVE",
"80 422 OFFCURVE",
"80 460 CURVE",
"76 460 OFFCURVE",
"74 460 OFFCURVE",
"68 460 CURVE SMOOTH",
"63 460 OFFCURVE",
"60 456 OFFCURVE",
"60 447 CURVE SMOOTH",
"60 0 LINE",
"70 0 OFFCURVE",
"72 0 OFFCURVE",
"80 0 CURVE",
"80 231 LINE",
"148 231 LINE SMOOTH",
"173 231 OFFCURVE",
"178 227 OFFCURVE",
"186 218 CURVE SMOOTH",
"210 189 OFFCURVE",
"344 31 OFFCURVE",
"361 12 CURVE SMOOTH",
"370 2 OFFCURVE",
"377 -1 OFFCURVE",
"385 -1 CURVE SMOOTH"
);
}
);
width = 437;
}
);
leftKerningGroup = H;
note = K;
rightKerningGroup = K;
unicode = 004B;
},
{
glyphname = L;
lastChange = "2021-07-01 18:40:14 +0000";
layers = (
{
anchors = (
{
name = bottom;
position = "{300, 0}";
},
{
name = center;
position = "{300, 230}";
},
{
name = top;
position = "{204, 460}";
},
{
name = topright;
position = "{363, 460}";
}
);
background = {
anchors = (
{
name = bottom;
position = "{300, 0}";
},
{
name = center;
position = "{300, 230}";
},
{
name = top;
position = "{204, 460}";
},
{
name = topright;
position = "{363, 460}";
}
);
paths = (
{
closed = 1;
nodes = (
"114 460 LINE SMOOTH",
"39 460 OFFCURVE",
"40 437 OFFCURVE",
"40 390 CURVE SMOOTH",
"40 0 LINE",
"566 0 LINE",
"566 116 LINE",
"269 116 LINE",
"269 460 LINE"
);
}
);
};
layerId = "C7668D88-AC50-4107-9C4B-DB5D26A8FA6C";
paths = (
{
closed = 1;
nodes = (
"114 460 LINE SMOOTH",
"39 460 OFFCURVE",
"40 437 OFFCURVE",
"40 390 CURVE SMOOTH",
"40 0 LINE",
"566 0 LINE",
"566 116 LINE",
"269 116 LINE",
"269 460 LINE"
);
}
);
width = 599;
},
{
anchors = (
{
name = bottom;
position = "{224, 0}";
},
{
name = center;
position = "{224, 230}";
},
{
name = top;
position = "{85, 460}";
},
{
name = topright;
position = "{208, 460}";
}
);
background = {
anchors = (
{
name = bottom;
position = "{224, 0}";
},
{
name = center;
position = "{224, 230}";
},
{
name = top;
position = "{85, 460}";
},
{
name = topright;
position = "{208, 460}";
}
);
paths = (
{
closed = 1;
nodes = (
"85 460 LINE SMOOTH",
"75 460 OFFCURVE",
"75 453 OFFCURVE",
"75 441 CURVE SMOOTH",
"75 0 LINE",
"409 0 LINE",
"409 17 LINE",
"95 17 LINE",
"95 460 LINE"
);
}
);
};
layerId = "B4E8C596-9C01-4F8A-BDA4-90320E25C0E6";
paths = (
{
closed = 1;
nodes = (
"85 460 LINE SMOOTH",
"75 460 OFFCURVE",
"75 453 OFFCURVE",
"75 441 CURVE SMOOTH",
"75 0 LINE",
"409 0 LINE",
"409 17 LINE",
"95 17 LINE",
"95 460 LINE"
);
}
);
width = 424;
}
);
leftKerningGroup = H;
leftMetricsKey = H;
note = L;
rightKerningGroup = L;
unicode = 004C;
},
{
glyphname = Lslash;
lastChange = "2021-07-01 18:31:21 +0000";
layers = (
{
background = {
components = (
{
name = L;
}
);
paths = (
{
closed = 1;
nodes = (
"-20 130 LINE",
"0 79 LINE",
"379 206 LINE",
"363 258 LINE"
);
}
);
};
components = (
{
name = L;
}
);
layerId = "C7668D88-AC50-4107-9C4B-DB5D26A8FA6C";
paths = (
{
closed = 1;
nodes = (
"-20 130 LINE",
"0 79 LINE",
"379 206 LINE",
"363 258 LINE"
);
}
);
width = 599;
},
{
background = {
components = (
{
name = L;
transform = "{1, 0, 0, 1, 7, 0}";
}
);
hints = (
{
horizontal = 1;
place = "{0, 96}";
type = Stem;
},
{
horizontal = 1;
place = "{180, 97}";
type = Stem;
},
{
horizontal = 1;
place = "{364, 96}";
type = Stem;
},
{
place = "{175, 8}";
type = Stem;
}
);
paths = (
{
closed = 1;
nodes = (
"0 137 LINE",
"5 123 LINE",
"184 189 LINE",
"180 202 LINE"
);
}
);
};
components = (
{
name = L;
transform = "{1, 0, 0, 1, 7, 0}";
}
);
layerId = "B4E8C596-9C01-4F8A-BDA4-90320E25C0E6";
paths = (
{
closed = 1;
nodes = (
"0 137 LINE",
"5 123 LINE",
"184 189 LINE",
"180 202 LINE"
);
}
);
width = 408;
}
);
note = Lslash;
rightKerningGroup = L;
unicode = 0141;
},
{
glyphname = M;
lastChange = "2021-07-01 18:40:21 +0000";
layers = (
{
anchors = (
{
name = bottom;
position = "{384, 0}";
},
{
name = top;
position = "{384, 460}";
}
);
background = {
anchors = (
{
name = bottom;
position = "{384, 0}";
},
{
name = top;
position = "{384, 460}";
}
);
paths = (
{
closed = 1;
nodes = (
"199 0 LINE",
"199 218 LINE",
"207 179 LINE",
"281 0 LINE",
"414 0 LINE",
"488 179 LINE",
"496 218 LINE",
"496 0 LINE",
"645 0 LINE SMOOTH",
"710 0 OFFCURVE",
"728 0 OFFCURVE",
"728 66 CURVE SMOOTH",
"728 393 LINE SMOOTH",
"728 446 OFFCURVE",
"717 460 OFFCURVE",
"653 460 CURVE SMOOTH",
"463 460 LINE",
"387 276 LINE",
"385 263 LINE",
"383 263 LINE",
"381 276 LINE",
"299 460 LINE",
"123 460 LINE SMOOTH",
"56 460 OFFCURVE",
"40 453 OFFCURVE",
"40 400 CURVE SMOOTH",
"40 0 LINE"
);
}
);
};
layerId = "C7668D88-AC50-4107-9C4B-DB5D26A8FA6C";
paths = (
{
closed = 1;
nodes = (
"199 0 LINE",
"199 218 LINE",
"207 179 LINE",
"281 0 LINE",
"414 0 LINE",
"488 179 LINE",
"496 218 LINE",
"496 0 LINE",
"645 0 LINE SMOOTH",
"710 0 OFFCURVE",
"728 0 OFFCURVE",
"728 66 CURVE SMOOTH",
"728 393 LINE SMOOTH",
"728 446 OFFCURVE",
"717 460 OFFCURVE",
"653 460 CURVE SMOOTH",
"463 460 LINE",
"387 276 LINE",
"385 263 LINE",
"383 263 LINE",
"381 276 LINE",
"299 460 LINE",
"123 460 LINE SMOOTH",
"56 460 OFFCURVE",
"40 453 OFFCURVE",
"40 400 CURVE SMOOTH",
"40 0 LINE"
);
}
);
width = 768;
},
{
anchors = (
{
name = bottom;
position = "{306, 0}";
},
{
name = top;
position = "{306, 460}";
}
);
background = {
anchors = (
{
name = bottom;
position = "{306, 0}";
},
{
name = top;
position = "{306, 460}";
}
);
paths = (
{
closed = 1;
nodes = (
"92 0 LINE",
"92 425 LINE",
"94 421 LINE",
"286 0 LINE",
"307 0 LINE",
"504 430 LINE",
"507 436 LINE",
"507 0 LINE",
"517 0 LINE SMOOTH",
"526 0 OFFCURVE",
"527 5 OFFCURVE",
"527 18 CURVE SMOOTH",
"527 444 LINE SMOOTH",
"527 462 OFFCURVE",
"523 460 OFFCURVE",
"510 460 CURVE SMOOTH",
"499 460 LINE",
"301 28 LINE",
"299 23 LINE",
"298 20 LINE",
"296 25 LINE",
"98 460 LINE",
"89 460 LINE SMOOTH",
"74 460 OFFCURVE",
"75 458 OFFCURVE",
"75 429 CURVE SMOOTH",
"75 0 LINE"
);
}
);
};
layerId = "B4E8C596-9C01-4F8A-BDA4-90320E25C0E6";
paths = (
{
closed = 1;
nodes = (
"92 0 LINE",
"92 425 LINE",
"94 421 LINE",
"286 0 LINE",
"307 0 LINE",
"504 430 LINE",
"507 436 LINE",
"507 0 LINE",
"517 0 LINE SMOOTH",
"526 0 OFFCURVE",
"527 5 OFFCURVE",
"527 18 CURVE SMOOTH",
"527 444 LINE SMOOTH",
"527 462 OFFCURVE",
"523 460 OFFCURVE",
"510 460 CURVE SMOOTH",
"499 460 LINE",
"301 28 LINE",
"299 23 LINE",
"298 20 LINE",
"296 25 LINE",
"98 460 LINE",
"89 460 LINE SMOOTH",
"74 460 OFFCURVE",
"75 458 OFFCURVE",
"75 429 CURVE SMOOTH",
"75 0 LINE"
);
}
);
width = 602;
}
);
leftKerningGroup = H;
leftMetricsKey = H;
note = M;
rightKerningGroup = H;
rightMetricsKey = H;
unicode = 004D;
},
{
glyphname = N;
lastChange = "2021-07-01 18:40:27 +0000";
layers = (
{
anchors = (
{
name = bottom;
position = "{354, 0}";
},
{
name = top;
position = "{354, 460}";
}
);
background = {
anchors = (
{
name = bottom;
position = "{354, 0}";
},
{
name = top;
position = "{354, 460}";
}
);
paths = (
{
closed = 1;
nodes = (
"202 0 LINE",
"202 279 LINE",
"209 240 LINE",
"377 0 LINE",
"575 0 LINE SMOOTH",
"640 0 OFFCURVE",
"663 5 OFFCURVE",
"663 56 CURVE SMOOTH",
"663 386 LINE SMOOTH",
"663 409 OFFCURVE",
"662 455 OFFCURVE",
"667 460 CURVE",
"502 460 LINE",
"502 191 LINE",
"495 230 LINE",
"335 460 LINE",
"116 460 LINE SMOOTH",
"50 460 OFFCURVE",
"40 446 OFFCURVE",
"40 393 CURVE SMOOTH",
"40 0 LINE"
);
}
);
};
layerId = "C7668D88-AC50-4107-9C4B-DB5D26A8FA6C";
paths = (
{
closed = 1;
nodes = (
"202 0 LINE",
"202 279 LINE",
"209 240 LINE",
"377 0 LINE",
"575 0 LINE SMOOTH",
"640 0 OFFCURVE",
"663 5 OFFCURVE",
"663 56 CURVE SMOOTH",
"663 386 LINE SMOOTH",
"663 409 OFFCURVE",
"662 455 OFFCURVE",
"667 460 CURVE",
"502 460 LINE",
"502 191 LINE",
"495 230 LINE",
"335 460 LINE",
"116 460 LINE SMOOTH",
"50 460 OFFCURVE",
"40 446 OFFCURVE",
"40 393 CURVE SMOOTH",
"40 0 LINE"
);
}
);
width = 707;
},
{
anchors = (
{
name = bottom;
position = "{272, 0}";
},
{
name = top;
position = "{272, 460}";
}
);
background = {
anchors = (
{
name = bottom;
position = "{272, 0}";
},
{
name = top;
position = "{272, 460}";
}
);
paths = (
{
closed = 1;
nodes = (
"92 0 LINE",
"92 429 LINE",
"92 438 LINE",
"442 0 LINE",
"453 0 LINE SMOOTH",
"468 0 OFFCURVE",
"467 2 OFFCURVE",
"467 31 CURVE SMOOTH",
"467 438 LINE SMOOTH",
"467 447 OFFCURVE",
"467 457 OFFCURVE",
"469 460 CURVE",
"450 460 LINE",
"450 34 LINE",
"450 22 LINE",
"99 460 LINE",
"89 460 LINE SMOOTH",
"74 460 OFFCURVE",
"75 458 OFFCURVE",
"75 429 CURVE SMOOTH",
"75 0 LINE"
);
}
);
};
layerId = "B4E8C596-9C01-4F8A-BDA4-90320E25C0E6";
paths = (
{
closed = 1;
nodes = (
"92 0 LINE",
"92 429 LINE",
"92 438 LINE",
"442 0 LINE",
"453 0 LINE SMOOTH",
"468 0 OFFCURVE",
"467 2 OFFCURVE",
"467 31 CURVE SMOOTH",
"467 438 LINE SMOOTH",
"467 447 OFFCURVE",
"467 457 OFFCURVE",
"469 460 CURVE",
"450 460 LINE",
"450 34 LINE",
"450 22 LINE",
"99 460 LINE",
"89 460 LINE SMOOTH",
"74 460 OFFCURVE",
"75 458 OFFCURVE",
"75 429 CURVE SMOOTH",
"75 0 LINE"
);
}
);
width = 544;
}
);
leftKerningGroup = H;
leftMetricsKey = H;
note = N;
rightKerningGroup = H;
rightMetricsKey = H;
unicode = 004E;
},
{
glyphname = Eng;
lastChange = "2021-07-01 18:31:40 +0000";
layers = (
{
background = {
paths = (
{
closed = 1;
nodes = (
"94 0 OFFCURVE",
"149 0 OFFCURVE",
"205 0 CURVE",
"205 83 OFFCURVE",
"205 167 OFFCURVE",
"205 250 CURVE",
"380 0 LINE",
"399 0 OFFCURVE",
"419 0 OFFCURVE",
"438 0 CURVE",
"438 -16 OFFCURVE",
"438 -31 OFFCURVE",
"438 -47 CURVE SMOOTH",
"438 -67 OFFCURVE",
"432 -86 OFFCURVE",
"408 -86 CURVE SMOOTH",
"385 -86 OFFCURVE",
"343 -75 OFFCURVE",
"325 -68 CURVE",
"325 -111 OFFCURVE",
"325 -155 OFFCURVE",
"325 -198 CURVE",
"401 -205 OFFCURVE",
"438 -209 OFFCURVE",
"517 -205 CURVE SMOOTH",
"576 -202 OFFCURVE",
"650 -189 OFFCURVE",
"663 -114 CURVE SMOOTH",
"666 -99 OFFCURVE",
"666 -78 OFFCURVE",
"666 -56 CURVE SMOOTH",
"666 91 OFFCURVE",
"666 239 OFFCURVE",
"666 386 CURVE SMOOTH",
"666 409 OFFCURVE",
"665 455 OFFCURVE",
"670 460 CURVE",
"615 460 OFFCURVE",
"560 460 OFFCURVE",
"505 460 CURVE",
"505 380 OFFCURVE",
"505 300 OFFCURVE",
"505 220 CURVE",
"449 300 OFFCURVE",
"394 380 OFFCURVE",
"338 460 CURVE",
"269 460 OFFCURVE",
"201 460 OFFCURVE",
"132 460 CURVE SMOOTH",
"66 460 OFFCURVE",
"43 446 OFFCURVE",
"43 393 CURVE SMOOTH",
"43 280 OFFCURVE",
"43 166 OFFCURVE",
"43 53 CURVE SMOOTH",
"43 28 OFFCURVE",
"40 4 OFFCURVE",
"38 0 CURVE"
);
}
);
};
layerId = "C7668D88-AC50-4107-9C4B-DB5D26A8FA6C";
paths = (
{
closed = 1;
nodes = (
"94 0 OFFCURVE",
"149 0 OFFCURVE",
"205 0 CURVE",
"205 83 OFFCURVE",
"205 167 OFFCURVE",
"205 250 CURVE",
"380 0 LINE",
"399 0 OFFCURVE",
"419 0 OFFCURVE",
"438 0 CURVE",
"438 -16 OFFCURVE",
"438 -31 OFFCURVE",
"438 -47 CURVE SMOOTH",
"438 -67 OFFCURVE",
"432 -86 OFFCURVE",
"408 -86 CURVE SMOOTH",
"385 -86 OFFCURVE",
"343 -75 OFFCURVE",
"325 -68 CURVE",
"325 -111 OFFCURVE",
"325 -155 OFFCURVE",
"325 -198 CURVE",
"401 -205 OFFCURVE",
"438 -209 OFFCURVE",
"517 -205 CURVE SMOOTH",
"576 -202 OFFCURVE",
"650 -189 OFFCURVE",
"663 -114 CURVE SMOOTH",
"666 -99 OFFCURVE",
"666 -78 OFFCURVE",
"666 -56 CURVE SMOOTH",
"666 91 OFFCURVE",
"666 239 OFFCURVE",
"666 386 CURVE SMOOTH",
"666 409 OFFCURVE",
"665 455 OFFCURVE",
"670 460 CURVE",
"615 460 OFFCURVE",
"560 460 OFFCURVE",
"505 460 CURVE",
"505 380 OFFCURVE",
"505 300 OFFCURVE",
"505 220 CURVE",
"449 300 OFFCURVE",
"394 380 OFFCURVE",
"338 460 CURVE",
"269 460 OFFCURVE",
"201 460 OFFCURVE",
"132 460 CURVE SMOOTH",
"66 460 OFFCURVE",
"43 446 OFFCURVE",
"43 393 CURVE SMOOTH",
"43 280 OFFCURVE",
"43 166 OFFCURVE",
"43 53 CURVE SMOOTH",
"43 28 OFFCURVE",
"40 4 OFFCURVE",
"38 0 CURVE"
);
}
);
width = 714;
},
{
background = {
paths = (
{
closed = 1;
nodes = (
"58 0 OFFCURVE",
"65 0 OFFCURVE",
"71 0 CURVE",
"71 146 OFFCURVE",
"71 292 OFFCURVE",
"71 438 CURVE",
"425 -6 LINE",
"425 -6 OFFCURVE",
"426 -6 OFFCURVE",
"426 -6 CURVE",
"426 -42 OFFCURVE",
"426 -78 OFFCURVE",
"426 -114 CURVE SMOOTH",
"426 -157 OFFCURVE",
"408 -170 OFFCURVE",
"364 -170 CURVE SMOOTH",
"354 -170 OFFCURVE",
"332 -167 OFFCURVE",
"325 -164 CURVE",
"325 -170 OFFCURVE",
"325 -175 OFFCURVE",
"325 -181 CURVE",
"344 -186 OFFCURVE",
"370 -186 OFFCURVE",
"379 -186 CURVE SMOOTH",
"424 -186 OFFCURVE",
"440 -158 OFFCURVE",
"444 -134 CURVE SMOOTH",
"448 -110 OFFCURVE",
"446 -61 OFFCURVE",
"446 -33 CURVE SMOOTH",
"446 124 OFFCURVE",
"446 281 OFFCURVE",
"446 438 CURVE SMOOTH",
"446 447 OFFCURVE",
"446 457 OFFCURVE",
"448 460 CURVE",
"442 460 OFFCURVE",
"435 460 OFFCURVE",
"429 460 CURVE",
"429 314 OFFCURVE",
"429 168 OFFCURVE",
"429 22 CURVE",
"312 168 OFFCURVE",
"195 314 OFFCURVE",
"78 460 CURVE",
"75 460 OFFCURVE",
"71 460 OFFCURVE",
"68 460 CURVE SMOOTH",
"53 460 OFFCURVE",
"54 458 OFFCURVE",
"54 429 CURVE SMOOTH",
"54 293 OFFCURVE",
"54 158 OFFCURVE",
"54 22 CURVE SMOOTH",
"54 13 OFFCURVE",
"54 3 OFFCURVE",
"52 0 CURVE"
);
}
);
};
layerId = "B4E8C596-9C01-4F8A-BDA4-90320E25C0E6";
paths = (
{
closed = 1;
nodes = (
"58 0 OFFCURVE",
"65 0 OFFCURVE",
"71 0 CURVE",
"71 146 OFFCURVE",
"71 292 OFFCURVE",
"71 438 CURVE",
"425 -6 LINE",
"425 -6 OFFCURVE",
"426 -6 OFFCURVE",
"426 -6 CURVE",
"426 -42 OFFCURVE",
"426 -78 OFFCURVE",
"426 -114 CURVE SMOOTH",
"426 -157 OFFCURVE",
"408 -170 OFFCURVE",
"364 -170 CURVE SMOOTH",
"354 -170 OFFCURVE",
"332 -167 OFFCURVE",
"325 -164 CURVE",
"325 -170 OFFCURVE",
"325 -175 OFFCURVE",
"325 -181 CURVE",
"344 -186 OFFCURVE",
"370 -186 OFFCURVE",
"379 -186 CURVE SMOOTH",
"424 -186 OFFCURVE",
"440 -158 OFFCURVE",
"444 -134 CURVE SMOOTH",
"448 -110 OFFCURVE",
"446 -61 OFFCURVE",
"446 -33 CURVE SMOOTH",
"446 124 OFFCURVE",
"446 281 OFFCURVE",
"446 438 CURVE SMOOTH",
"446 447 OFFCURVE",
"446 457 OFFCURVE",
"448 460 CURVE",
"442 460 OFFCURVE",
"435 460 OFFCURVE",
"429 460 CURVE",
"429 314 OFFCURVE",
"429 168 OFFCURVE",
"429 22 CURVE",
"312 168 OFFCURVE",
"195 314 OFFCURVE",
"78 460 CURVE",
"75 460 OFFCURVE",
"71 460 OFFCURVE",
"68 460 CURVE SMOOTH",
"53 460 OFFCURVE",
"54 458 OFFCURVE",
"54 429 CURVE SMOOTH",
"54 293 OFFCURVE",
"54 158 OFFCURVE",
"54 22 CURVE SMOOTH",
"54 13 OFFCURVE",
"54 3 OFFCURVE",
"52 0 CURVE"
);
}
);
width = 499;
}
);
leftKerningGroup = H;
note = Eng;
rightKerningGroup = H;
unicode = 014A;
},
{
glyphname = O;
lastChange = "2021-08-11 03:31:37 +0000";
layers = (
{
anchors = (
{
name = bottom;
position = "{349, 0}";
},
{
name = center;
position = "{349, 230}";
},
{
name = ogonek;
position = "{627, 10}";
},
{
name = top;
position = "{349, 460}";
},
{
name = topleft;
position = "{20, 460}";
},
{
name = topright;
position = "{481, 460}";
}
);
background = {
anchors = (
{
name = bottom;
position = "{349, 0}";
},
{
name = center;
position = "{349, 230}";
},
{
name = ogonek;
position = "{627, 10}";
},
{
name = top;
position = "{349, 460}";
},
{
name = topleft;
position = "{20, 460}";
},
{
name = topright;
position = "{481, 460}";
}
);
paths = (
{
closed = 1;
nodes = (
"20 15 OFFCURVE",
"160 -7 OFFCURVE",
"341 -7 CURVE SMOOTH",
"519 -7 OFFCURVE",
"677 9 OFFCURVE",
"677 230 CURVE SMOOTH",
"677 446 OFFCURVE",
"534 467 OFFCURVE",
"356 467 CURVE SMOOTH",
"179 467 OFFCURVE",
"20 451 OFFCURVE",
"20 230 CURVE SMOOTH"
);
},
{
closed = 1;
nodes = (
"452 120 OFFCURVE",
"412 105 OFFCURVE",
"349 105 CURVE SMOOTH",
"283 105 OFFCURVE",
"244 120 OFFCURVE",
"244 228 CURVE SMOOTH",
"244 336 OFFCURVE",
"283 351 OFFCURVE",
"349 351 CURVE SMOOTH",
"412 351 OFFCURVE",
"452 336 OFFCURVE",
"452 228 CURVE SMOOTH"
);
}
);
};
layerId = "C7668D88-AC50-4107-9C4B-DB5D26A8FA6C";
paths = (
{
closed = 1;
nodes = (
"519 -7 OFFCURVE",
"677 9 OFFCURVE",
"677 230 CURVE SMOOTH",
"677 446 OFFCURVE",
"534 467 OFFCURVE",
"356 467 CURVE SMOOTH",
"179 467 OFFCURVE",
"20 451 OFFCURVE",
"20 230 CURVE SMOOTH",
"20 15 OFFCURVE",
"160 -7 OFFCURVE",
"341 -7 CURVE SMOOTH"
);
},
{
closed = 1;
nodes = (
"283 109 OFFCURVE",
"244 124 OFFCURVE",
"244 230 CURVE SMOOTH",
"244 336 OFFCURVE",
"283 351 OFFCURVE",
"349 351 CURVE SMOOTH",
"413 351 OFFCURVE",
"453 336 OFFCURVE",
"453 230 CURVE SMOOTH",
"453 124 OFFCURVE",
"413 109 OFFCURVE",
"349 109 CURVE SMOOTH"
);
}
);
width = 697;
},
{
anchors = (
{
name = bottom;
position = "{276, 0}";
},
{
name = center;
position = "{276, 230}";
},
{
name = ogonek;
position = "{490, 10}";
},
{
name = top;
position = "{276, 460}";
},
{
name = topleft;
position = "{29, 460}";
},
{
name = topright;
position = "{376, 460}";
}
);
background = {
anchors = (
{
name = bottom;
position = "{276, 0}";
},
{
name = center;
position = "{276, 230}";
},
{
name = ogonek;
position = "{490, 10}";
},
{
name = top;
position = "{276, 460}";
},
{
name = topleft;
position = "{29, 460}";
},
{
name = topright;
position = "{376, 460}";
}
);
paths = (
{
closed = 1;
nodes = (
"50 15 OFFCURVE",
"147 -7 OFFCURVE",
"270 -7 CURVE SMOOTH",
"392 -7 OFFCURVE",
"502 9 OFFCURVE",
"502 231 CURVE SMOOTH",
"502 447 OFFCURVE",
"405 469 OFFCURVE",
"282 469 CURVE SMOOTH",
"160 469 OFFCURVE",
"50 453 OFFCURVE",
"50 231 CURVE SMOOTH"
);
},
{
closed = 1;
nodes = (
"481 35 OFFCURVE",
"404 9 OFFCURVE",
"275 9 CURVE SMOOTH",
"147 9 OFFCURVE",
"71 35 OFFCURVE",
"71 230 CURVE SMOOTH",
"71 426 OFFCURVE",
"147 453 OFFCURVE",
"275 453 CURVE SMOOTH",
"404 453 OFFCURVE",
"481 426 OFFCURVE",
"481 230 CURVE SMOOTH"
);
}
);
};
layerId = "B4E8C596-9C01-4F8A-BDA4-90320E25C0E6";
paths = (
{
closed = 1;
nodes = (
"392 -7 OFFCURVE",
"502 9 OFFCURVE",
"502 231 CURVE SMOOTH",
"502 447 OFFCURVE",
"405 469 OFFCURVE",
"282 469 CURVE SMOOTH",
"160 469 OFFCURVE",
"50 453 OFFCURVE",
"50 231 CURVE SMOOTH",
"50 15 OFFCURVE",
"147 -7 OFFCURVE",
"270 -7 CURVE SMOOTH"
);
},
{
closed = 1;
nodes = (
"147 9 OFFCURVE",
"71 35 OFFCURVE",
"71 230 CURVE SMOOTH",
"71 426 OFFCURVE",
"147 453 OFFCURVE",
"275 453 CURVE SMOOTH",
"404 453 OFFCURVE",
"481 426 OFFCURVE",
"481 230 CURVE SMOOTH",
"481 35 OFFCURVE",
"404 9 OFFCURVE",
"275 9 CURVE SMOOTH"
);
}
);
width = 552;
}
);
leftKerningGroup = O;
note = O;
rightKerningGroup = O;
unicode = 004F;
},
{
glyphname = Oslash;
lastChange = "2021-07-01 18:32:31 +0000";
layers = (
{
anchors = (
{
name = bottom;
position = "{349, 0}";
},
{
name = top;
position = "{349, 460}";
}
);
background = {
anchors = (
{
name = bottom;
position = "{349, 0}";
},
{
name = top;
position = "{349, 460}";
}
);
paths = (
{
closed = 1;
nodes = (
"20 15 OFFCURVE",
"160 -7 OFFCURVE",
"341 -7 CURVE SMOOTH",
"519 -7 OFFCURVE",
"677 9 OFFCURVE",
"677 230 CURVE SMOOTH",
"677 446 OFFCURVE",
"534 467 OFFCURVE",
"356 467 CURVE SMOOTH",
"179 467 OFFCURVE",
"20 451 OFFCURVE",
"20 230 CURVE SMOOTH"
);
},
{
closed = 1;
nodes = (
"452 120 OFFCURVE",
"412 105 OFFCURVE",
"349 105 CURVE SMOOTH",
"283 105 OFFCURVE",
"244 120 OFFCURVE",
"244 228 CURVE SMOOTH",
"244 336 OFFCURVE",
"283 351 OFFCURVE",
"349 351 CURVE SMOOTH",
"412 351 OFFCURVE",
"452 336 OFFCURVE",
"452 228 CURVE SMOOTH"
);
},
{
closed = 1;
nodes = (
"253 -86 LINE",
"489 525 LINE",
"431 525 LINE",
"196 -86 LINE"
);
}
);
};
layerId = "C7668D88-AC50-4107-9C4B-DB5D26A8FA6C";
paths = (
{
closed = 1;
nodes = (
"20 15 OFFCURVE",
"160 -7 OFFCURVE",
"341 -7 CURVE SMOOTH",
"519 -7 OFFCURVE",
"677 9 OFFCURVE",
"677 230 CURVE SMOOTH",
"677 446 OFFCURVE",
"534 467 OFFCURVE",
"356 467 CURVE SMOOTH",
"179 467 OFFCURVE",
"20 451 OFFCURVE",
"20 230 CURVE SMOOTH"
);
},
{
closed = 1;
nodes = (
"452 120 OFFCURVE",
"412 105 OFFCURVE",
"349 105 CURVE SMOOTH",
"283 105 OFFCURVE",
"244 120 OFFCURVE",
"244 228 CURVE SMOOTH",
"244 336 OFFCURVE",
"283 351 OFFCURVE",
"349 351 CURVE SMOOTH",
"412 351 OFFCURVE",
"452 336 OFFCURVE",
"452 228 CURVE SMOOTH"
);
},
{
closed = 1;
nodes = (
"253 -86 LINE",
"489 525 LINE",
"431 525 LINE",
"196 -86 LINE"
);
}
);
width = 697;
},
{
anchors = (
{
name = bottom;
position = "{267, 0}";
},
{
name = top;
position = "{267, 460}";
}
);
background = {
anchors = (
{
name = bottom;
position = "{267, 0}";
},
{
name = top;
position = "{267, 460}";
}
);
paths = (
{
closed = 1;
nodes = (
"41 15 OFFCURVE",
"138 -7 OFFCURVE",
"261 -7 CURVE SMOOTH",
"383 -7 OFFCURVE",
"493 9 OFFCURVE",
"493 231 CURVE SMOOTH",
"493 447 OFFCURVE",
"396 469 OFFCURVE",
"273 469 CURVE SMOOTH",
"151 469 OFFCURVE",
"41 453 OFFCURVE",
"41 231 CURVE SMOOTH"
);
},
{
closed = 1;
nodes = (
"472 35 OFFCURVE",
"395 9 OFFCURVE",
"266 9 CURVE SMOOTH",
"138 9 OFFCURVE",
"62 35 OFFCURVE",
"62 230 CURVE SMOOTH",
"62 426 OFFCURVE",
"138 453 OFFCURVE",
"266 453 CURVE SMOOTH",
"395 453 OFFCURVE",
"472 426 OFFCURVE",
"472 230 CURVE SMOOTH"
);
},
{
closed = 1;
nodes = (
"136 -82 LINE",
"370 525 LINE",
"352 525 LINE",
"119 -82 LINE"
);
}
);
};
layerId = "B4E8C596-9C01-4F8A-BDA4-90320E25C0E6";
paths = (
{
closed = 1;
nodes = (
"41 15 OFFCURVE",
"138 -7 OFFCURVE",
"261 -7 CURVE SMOOTH",
"383 -7 OFFCURVE",
"493 9 OFFCURVE",
"493 231 CURVE SMOOTH",
"493 447 OFFCURVE",
"396 469 OFFCURVE",
"273 469 CURVE SMOOTH",
"151 469 OFFCURVE",
"41 453 OFFCURVE",
"41 231 CURVE SMOOTH"
);
},
{
closed = 1;
nodes = (
"472 35 OFFCURVE",
"395 9 OFFCURVE",
"266 9 CURVE SMOOTH",
"138 9 OFFCURVE",
"62 35 OFFCURVE",
"62 230 CURVE SMOOTH",
"62 426 OFFCURVE",
"138 453 OFFCURVE",
"266 453 CURVE SMOOTH",
"395 453 OFFCURVE",
"472 426 OFFCURVE",
"472 230 CURVE SMOOTH"
);
},
{
closed = 1;
nodes = (
"136 -82 LINE",
"370 525 LINE",
"352 525 LINE",
"119 -82 LINE"
);
}
);
width = 534;
}
);
leftKerningGroup = O;
note = Oslash;
rightKerningGroup = O;
unicode = 00D8;
},
{
glyphname = P;
lastChange = "2021-09-08 16:17:51 +0000";
layers = (
{
anchors = (
{
name = bottom;
position = "{346, 0}";
},
{
name = top;
position = "{346, 460}";
}
);
background = {
anchors = (
{
name = bottom;
position = "{346, 0}";
},
{
name = top;
position = "{346, 460}";
}
);
paths = (
{
closed = 1;
nodes = (
"268 0 LINE",
"268 110 OFFCURVE",
"268 219 OFFCURVE",
"268 330 CURVE SMOOTH",
"268 334 OFFCURVE",
"274 344 OFFCURVE",
"284 344 CURVE",
"328 344 OFFCURVE",
"355 344 OFFCURVE",
"399 344 CURVE SMOOTH",
"424 344 OFFCURVE",
"434 331 OFFCURVE",
"434 296 CURVE SMOOTH",
"434 259 OFFCURVE",
"422 239 OFFCURVE",
"399 239 CURVE SMOOTH",
"349 239 OFFCURVE",
"300 239 OFFCURVE",
"250 239 CURVE",
"217 239 OFFCURVE",
"223 229 OFFCURVE",
"223 128 CURVE",
"310 127 OFFCURVE",
"411 127 OFFCURVE",
"498 126 CURVE SMOOTH",
"596 125 OFFCURVE",
"663 169 OFFCURVE",
"663 303 CURVE SMOOTH",
"663 428 OFFCURVE",
"578 460 OFFCURVE",
"481 460 CURVE SMOOTH",
"359 460 OFFCURVE",
"237 460 OFFCURVE",
"115 460 CURVE SMOOTH",
"49 460 OFFCURVE",
"40 432 OFFCURVE",
"40 376 CURVE SMOOTH",
"40 251 OFFCURVE",
"41 125 OFFCURVE",
"41 0 CURVE"
);
}
);
};
layerId = "C7668D88-AC50-4107-9C4B-DB5D26A8FA6C";
paths = (
{
closed = 1;
nodes = (
"268 0 LINE",
"268 110 OFFCURVE",
"268 219 OFFCURVE",
"268 330 CURVE SMOOTH",
"268 334 OFFCURVE",
"274 344 OFFCURVE",
"284 344 CURVE",
"328 344 OFFCURVE",
"355 344 OFFCURVE",
"399 344 CURVE SMOOTH",
"424 344 OFFCURVE",
"434 331 OFFCURVE",
"434 296 CURVE SMOOTH",
"434 259 OFFCURVE",
"422 239 OFFCURVE",
"399 239 CURVE SMOOTH",
"349 239 OFFCURVE",
"300 239 OFFCURVE",
"250 239 CURVE",
"217 239 OFFCURVE",
"223 229 OFFCURVE",
"223 128 CURVE",
"310 127 OFFCURVE",
"411 127 OFFCURVE",
"498 126 CURVE SMOOTH",
"596 125 OFFCURVE",
"663 169 OFFCURVE",
"663 303 CURVE SMOOTH",
"663 428 OFFCURVE",
"578 460 OFFCURVE",
"481 460 CURVE SMOOTH",
"359 460 OFFCURVE",
"237 460 OFFCURVE",
"115 460 CURVE SMOOTH",
"49 460 OFFCURVE",
"40 432 OFFCURVE",
"40 376 CURVE SMOOTH",
"40 251 OFFCURVE",
"41 125 OFFCURVE",
"41 0 CURVE"
);
}
);
width = 690;
},
{
anchors = (
{
name = bottom;
position = "{271, 0}";
},
{
name = top;
position = "{271, 460}";
}
);
background = {
anchors = (
{
name = bottom;
position = "{271, 0}";
},
{
name = top;
position = "{271, 460}";
}
);
paths = (
{
closed = 1;
nodes = (
"95 0 LINE",
"95 139 OFFCURVE",
"95 277 OFFCURVE",
"95 416 CURVE SMOOTH",
"95 441 OFFCURVE",
"117 443 OFFCURVE",
"122 443 CURVE SMOOTH",
"167 445 OFFCURVE",
"279 449 OFFCURVE",
"351 441 CURVE SMOOTH",
"408 435 OFFCURVE",
"433 399 OFFCURVE",
"433 340 CURVE SMOOTH",
"433 242 OFFCURVE",
"379 219 OFFCURVE",
"321 219 CURVE SMOOTH",
"269 219 OFFCURVE",
"177 219 OFFCURVE",
"153 219 CURVE SMOOTH",
"140 219 OFFCURVE",
"140 209 OFFCURVE",
"140 202 CURVE",
"201 202 OFFCURVE",
"261 202 OFFCURVE",
"322 202 CURVE",
"405 202 OFFCURVE",
"454 247 OFFCURVE",
"454 337 CURVE SMOOTH",
"454 410 OFFCURVE",
"425 453 OFFCURVE",
"348 459 CURVE SMOOTH",
"294 463 OFFCURVE",
"182 462 OFFCURVE",
"122 460 CURVE SMOOTH",
"92 459 OFFCURVE",
"75 453 OFFCURVE",
"75 414 CURVE SMOOTH",
"75 276 OFFCURVE",
"75 138 OFFCURVE",
"75 0 CURVE"
);
}
);
};
layerId = "B4E8C596-9C01-4F8A-BDA4-90320E25C0E6";
paths = (
{
closed = 1;
nodes = (
"95 0 LINE",
"95 139 OFFCURVE",
"95 277 OFFCURVE",
"95 416 CURVE SMOOTH",
"95 441 OFFCURVE",
"117 443 OFFCURVE",
"122 443 CURVE SMOOTH",
"167 445 OFFCURVE",
"279 449 OFFCURVE",
"351 441 CURVE SMOOTH",
"408 435 OFFCURVE",
"433 399 OFFCURVE",
"433 340 CURVE SMOOTH",
"433 242 OFFCURVE",
"379 219 OFFCURVE",
"321 219 CURVE SMOOTH",
"269 219 OFFCURVE",
"177 219 OFFCURVE",
"153 219 CURVE SMOOTH",
"140 219 OFFCURVE",
"140 209 OFFCURVE",
"140 202 CURVE",
"201 202 OFFCURVE",
"261 202 OFFCURVE",
"322 202 CURVE",
"405 202 OFFCURVE",
"454 247 OFFCURVE",
"454 337 CURVE SMOOTH",
"454 410 OFFCURVE",
"425 453 OFFCURVE",
"348 459 CURVE SMOOTH",
"294 463 OFFCURVE",
"182 462 OFFCURVE",
"122 460 CURVE SMOOTH",
"92 459 OFFCURVE",
"75 453 OFFCURVE",
"75 414 CURVE SMOOTH",
"75 276 OFFCURVE",
"75 138 OFFCURVE",
"75 0 CURVE"
);
}
);
width = 518;
}
);
leftKerningGroup = H;
leftMetricsKey = H;
note = P;
rightKerningGroup = P;
unicode = 0050;
},
{
glyphname = Thorn;
lastChange = "2021-07-01 18:32:48 +0000";
layers = (
{
background = {
paths = (
{
closed = 1;
nodes = (
"27 0 LINE",
"211 0 LINE",
"211 108 LINE",
"429 108 LINE SMOOTH",
"583 108 OFFCURVE",
"620 165 OFFCURVE",
"620 264 CURVE SMOOTH",
"620 369 OFFCURVE",
"601 417 OFFCURVE",
"443 417 CURVE SMOOTH",
"210 417 LINE",
"210 495 LINE",
"99 495 LINE SMOOTH",
"41 495 OFFCURVE",
"27 489 OFFCURVE",
"27 436 CURVE SMOOTH"
);
},
{
closed = 1;
nodes = (
"414 306 LINE SMOOTH",
"432 306 OFFCURVE",
"437 301 OFFCURVE",
"437 264 CURVE SMOOTH",
"437 228 OFFCURVE",
"433 220 OFFCURVE",
"417 220 CURVE SMOOTH",
"211 220 LINE",
"211 306 LINE"
);
}
);
};
layerId = "C7668D88-AC50-4107-9C4B-DB5D26A8FA6C";
paths = (
{
closed = 1;
nodes = (
"27 0 LINE",
"211 0 LINE",
"211 108 LINE",
"429 108 LINE SMOOTH",
"583 108 OFFCURVE",
"620 165 OFFCURVE",
"620 264 CURVE SMOOTH",
"620 369 OFFCURVE",
"601 417 OFFCURVE",
"443 417 CURVE SMOOTH",
"210 417 LINE",
"210 495 LINE",
"99 495 LINE SMOOTH",
"41 495 OFFCURVE",
"27 489 OFFCURVE",
"27 436 CURVE SMOOTH"
);
},
{
closed = 1;
nodes = (
"414 306 LINE SMOOTH",
"432 306 OFFCURVE",
"437 301 OFFCURVE",
"437 264 CURVE SMOOTH",
"437 228 OFFCURVE",
"433 220 OFFCURVE",
"417 220 CURVE SMOOTH",
"211 220 LINE",
"211 306 LINE"
);
}
);
width = 684;
},
{
background = {
paths = (
{
closed = 1;
nodes = (
"41 0 LINE",
"61 0 LINE",
"61 128 LINE",
"269 128 LINE SMOOTH",
"357 128 OFFCURVE",
"393 179 OFFCURVE",
"393 271 CURVE SMOOTH",
"393 366 OFFCURVE",
"365 410 OFFCURVE",
"279 410 CURVE SMOOTH",
"61 410 LINE",
"61 502 LINE",
"53 502 LINE SMOOTH",
"40 502 OFFCURVE",
"41 490 OFFCURVE",
"41 460 CURVE SMOOTH"
);
},
{
closed = 1;
nodes = (
"277 397 LINE SMOOTH",
"326 397 OFFCURVE",
"376 378 OFFCURVE",
"376 272 CURVE SMOOTH",
"376 165 OFFCURVE",
"329 141 OFFCURVE",
"281 141 CURVE SMOOTH",
"61 141 LINE",
"61 397 LINE"
);
}
);
};
layerId = "B4E8C596-9C01-4F8A-BDA4-90320E25C0E6";
paths = (
{
closed = 1;
nodes = (
"41 0 LINE",
"61 0 LINE",
"61 128 LINE",
"269 128 LINE SMOOTH",
"357 128 OFFCURVE",
"393 179 OFFCURVE",
"393 271 CURVE SMOOTH",
"393 366 OFFCURVE",
"365 410 OFFCURVE",
"279 410 CURVE SMOOTH",
"61 410 LINE",
"61 502 LINE",
"53 502 LINE SMOOTH",
"40 502 OFFCURVE",
"41 490 OFFCURVE",
"41 460 CURVE SMOOTH"
);
},
{
closed = 1;
nodes = (
"277 397 LINE SMOOTH",
"326 397 OFFCURVE",
"376 378 OFFCURVE",
"376 272 CURVE SMOOTH",
"376 165 OFFCURVE",
"329 141 OFFCURVE",
"281 141 CURVE SMOOTH",
"61 141 LINE",
"61 397 LINE"
);
}
);
width = 452;
}
);
leftKerningGroup = H;
note = Thorn;
rightKerningGroup = P;
unicode = 00DE;
},
{
glyphname = Q;
lastChange = "2021-07-01 18:40:50 +0000";
layers = (
{
anchors = (
{
name = bottom;
position = "{403, 0}";
},
{
name = top;
position = "{403, 460}";
}
);
background = {
anchors = (
{
name = bottom;
position = "{403, 0}";
},
{
name = top;
position = "{403, 460}";
}
);
paths = (
{
closed = 1;
nodes = (
"20 16 OFFCURVE",
"171 -6 OFFCURVE",
"365 -6 CURVE SMOOTH",
"411 -6 OFFCURVE",
"456 -5 OFFCURVE",
"498 0 CURVE",
"591 -101 OFFCURVE",
"699 -107 OFFCURVE",
"785 -4 CURVE",
"742 -4 OFFCURVE",
"680 23 OFFCURVE",
"640 44 CURVE",
"691 78 OFFCURVE",
"723 135 OFFCURVE",
"723 230 CURVE SMOOTH",
"723 446 OFFCURVE",
"571 467 OFFCURVE",
"379 467 CURVE SMOOTH",
"190 467 OFFCURVE",
"20 451 OFFCURVE",
"20 230 CURVE SMOOTH"
);
},
{
closed = 1;
nodes = (
"486 196 OFFCURVE",
"481 171 OFFCURVE",
"473 154 CURVE",
"450 166 OFFCURVE",
"425 175 OFFCURVE",
"407 175 CURVE SMOOTH",
"374 175 OFFCURVE",
"344 159 OFFCURVE",
"333 136 CURVE",
"372 109 LINE",
"369 109 OFFCURVE",
"365 109 OFFCURVE",
"362 109 CURVE SMOOTH",
"335 109 OFFCURVE",
"322 111 OFFCURVE",
"304 119 CURVE SMOOTH",
"273 132 OFFCURVE",
"255 162 OFFCURVE",
"255 229 CURVE SMOOTH",
"255 337 OFFCURVE",
"299 351 OFFCURVE",
"371 351 CURVE SMOOTH",
"442 351 OFFCURVE",
"486 337 OFFCURVE",
"486 229 CURVE SMOOTH"
);
}
);
};
layerId = "C7668D88-AC50-4107-9C4B-DB5D26A8FA6C";
paths = (
{
closed = 1;
nodes = (
"20 16 OFFCURVE",
"171 -6 OFFCURVE",
"365 -6 CURVE SMOOTH",
"411 -6 OFFCURVE",
"456 -5 OFFCURVE",
"498 0 CURVE",
"591 -101 OFFCURVE",
"699 -107 OFFCURVE",
"785 -4 CURVE",
"742 -4 OFFCURVE",
"680 23 OFFCURVE",
"640 44 CURVE",
"691 78 OFFCURVE",
"723 135 OFFCURVE",
"723 230 CURVE SMOOTH",
"723 446 OFFCURVE",
"571 467 OFFCURVE",
"379 467 CURVE SMOOTH",
"190 467 OFFCURVE",
"20 451 OFFCURVE",
"20 230 CURVE SMOOTH"
);
},
{
closed = 1;
nodes = (
"486 196 OFFCURVE",
"481 171 OFFCURVE",
"473 154 CURVE",
"450 166 OFFCURVE",
"425 175 OFFCURVE",
"407 175 CURVE SMOOTH",
"374 175 OFFCURVE",
"344 159 OFFCURVE",
"333 136 CURVE",
"372 109 LINE",
"369 109 OFFCURVE",
"365 109 OFFCURVE",
"362 109 CURVE SMOOTH",
"335 109 OFFCURVE",
"322 111 OFFCURVE",
"304 119 CURVE SMOOTH",
"273 132 OFFCURVE",
"255 162 OFFCURVE",
"255 229 CURVE SMOOTH",
"255 337 OFFCURVE",
"299 351 OFFCURVE",
"371 351 CURVE SMOOTH",
"442 351 OFFCURVE",
"486 337 OFFCURVE",
"486 229 CURVE SMOOTH"
);
}
);
width = 805;
},
{
anchors = (
{
name = bottom;
position = "{276, 0}";
},
{
name = top;
position = "{276, 460}";
}
);
background = {
anchors = (
{
name = bottom;
position = "{276, 0}";
},
{
name = top;
position = "{276, 460}";
}
);
hints = (
{
horizontal = 1;
place = "{-1, 97}";
type = Stem;
},
{
horizontal = 1;
place = "{180, 97}";
type = Stem;
},
{
horizontal = 1;
place = "{357, 102}";
type = Stem;
},
{
place = "{41, 82}";
type = Stem;
},
{
place = "{152, 8}";
type = Stem;
},
{
place = "{350, 81}";
type = Stem;
},
{
place = "{40, 82}";
type = Stem;
},
{
place = "{351, 81}";
type = Stem;
}
);
paths = (
{
closed = 1;
nodes = (
"50 16 OFFCURVE",
"145 -8 OFFCURVE",
"265 -8 CURVE SMOOTH",
"295 -8 OFFCURVE",
"343 -7 OFFCURVE",
"372 2 CURVE",
"401 -31 OFFCURVE",
"442 -91 OFFCURVE",
"463 -71 CURVE",
"428 -41 OFFCURVE",
"404 -9 OFFCURVE",
"390 7 CURVE",
"488 37 OFFCURVE",
"500 136 OFFCURVE",
"500 232 CURVE SMOOTH",
"500 449 OFFCURVE",
"403 471 OFFCURVE",
"280 471 CURVE SMOOTH",
"159 471 OFFCURVE",
"50 454 OFFCURVE",
"50 232 CURVE SMOOTH"
);
},
{
closed = 1;
nodes = (
"480 165 OFFCURVE",
"480 50 OFFCURVE",
"379 20 CURVE",
"374 24 OFFCURVE",
"299 116 OFFCURVE",
"288 129 CURVE SMOOTH",
"276 143 OFFCURVE",
"270 150 OFFCURVE",
"257 138 CURVE",
"359 17 LINE",
"348 14 OFFCURVE",
"336 12 OFFCURVE",
"320 10 CURVE SMOOTH",
"303 8 OFFCURVE",
"270 8 OFFCURVE",
"257 9 CURVE SMOOTH",
"159 14 OFFCURVE",
"72 28 OFFCURVE",
"72 225 CURVE SMOOTH",
"72 426 OFFCURVE",
"150 453 OFFCURVE",
"276 453 CURVE SMOOTH",
"401 453 OFFCURVE",
"480 426 OFFCURVE",
"480 225 CURVE SMOOTH"
);
}
);
};
layerId = "B4E8C596-9C01-4F8A-BDA4-90320E25C0E6";
paths = (
{
closed = 1;
nodes = (
"50 16 OFFCURVE",
"145 -8 OFFCURVE",
"265 -8 CURVE SMOOTH",
"295 -8 OFFCURVE",
"343 -7 OFFCURVE",
"372 2 CURVE",
"401 -31 OFFCURVE",
"442 -91 OFFCURVE",
"463 -71 CURVE",
"428 -41 OFFCURVE",
"404 -9 OFFCURVE",
"390 7 CURVE",
"488 37 OFFCURVE",
"500 136 OFFCURVE",
"500 232 CURVE SMOOTH",
"500 449 OFFCURVE",
"403 471 OFFCURVE",
"280 471 CURVE SMOOTH",
"159 471 OFFCURVE",
"50 454 OFFCURVE",
"50 232 CURVE SMOOTH"
);
},
{
closed = 1;
nodes = (
"480 165 OFFCURVE",
"480 50 OFFCURVE",
"379 20 CURVE",
"374 24 OFFCURVE",
"299 116 OFFCURVE",
"288 129 CURVE SMOOTH",
"276 143 OFFCURVE",
"270 150 OFFCURVE",
"257 138 CURVE",
"359 17 LINE",
"348 14 OFFCURVE",
"336 12 OFFCURVE",
"320 10 CURVE SMOOTH",
"303 8 OFFCURVE",
"270 8 OFFCURVE",
"257 9 CURVE SMOOTH",
"159 14 OFFCURVE",
"72 28 OFFCURVE",
"72 225 CURVE SMOOTH",
"72 426 OFFCURVE",
"150 453 OFFCURVE",
"276 453 CURVE SMOOTH",
"401 453 OFFCURVE",
"480 426 OFFCURVE",
"480 225 CURVE SMOOTH"
);
}
);
width = 550;
}
);
leftKerningGroup = O;
leftMetricsKey = O;
note = Q;
rightKerningGroup = Q;
rightMetricsKey = O;
unicode = 0051;
},
{
glyphname = R;
lastChange = "2021-09-08 16:17:51 +0000";
layers = (
{
anchors = (
{
name = bottom;
position = "{361, 0}";
},
{
name = top;
position = "{361, 460}";
}
);
background = {
anchors = (
{
name = bottom;
position = "{361, 0}";
},
{
name = top;
position = "{361, 460}";
}
);
hints = (
{
horizontal = 1;
place = "{0, 190}";
type = Stem;
},
{
horizontal = 1;
place = "{344, 116}";
type = Stem;
},
{
place = "{35, 228}";
type = Stem;
},
{
horizontal = 1;
place = "{130, 106}";
type = Stem;
},
{
place = "{432, 232}";
type = Stem;
}
);
paths = (
{
closed = 1;
nodes = (
"376 130 LINE SMOOTH",
"421 130 OFFCURVE",
"437 129 OFFCURVE",
"437 88 CURVE SMOOTH",
"437 51 LINE SMOOTH",
"437 10 OFFCURVE",
"464 0 OFFCURVE",
"509 0 CURVE SMOOTH",
"682 0 LINE",
"681 1 OFFCURVE",
"670 13 OFFCURVE",
"670 46 CURVE SMOOTH",
"670 116 LINE SMOOTH",
"670 148 OFFCURVE",
"667 179 OFFCURVE",
"617 189 CURVE",
"606 190 OFFCURVE",
"590 190 OFFCURVE",
"578 190 CURVE",
"578 195 LINE",
"605 195 OFFCURVE",
"628 202 OFFCURVE",
"640 211 CURVE SMOOTH",
"660 228 OFFCURVE",
"666 253 OFFCURVE",
"666 337 CURVE SMOOTH",
"666 423 OFFCURVE",
"626 452 OFFCURVE",
"553 459 CURVE SMOOTH",
"502 464 OFFCURVE",
"174 460 OFFCURVE",
"114 460 CURVE SMOOTH",
"50 460 OFFCURVE",
"40 431 OFFCURVE",
"40 392 CURVE SMOOTH",
"40 0 LINE",
"268 0 LINE",
"268 129 LINE",
"294 129 OFFCURVE",
"343 130 OFFCURVE",
"343 130 CURVE"
);
},
{
closed = 1;
nodes = (
"268 330 LINE SMOOTH",
"268 342 OFFCURVE",
"278 343 OFFCURVE",
"280 343 CURVE SMOOTH",
"299 343 OFFCURVE",
"376 346 OFFCURVE",
"404 342 CURVE SMOOTH",
"427 339 OFFCURVE",
"436 321 OFFCURVE",
"436 291 CURVE SMOOTH",
"436 247 OFFCURVE",
"415 234 OFFCURVE",
"393 234 CURVE SMOOTH",
"373 234 OFFCURVE",
"287 234 OFFCURVE",
"268 235 CURVE"
);
}
);
};
layerId = "C7668D88-AC50-4107-9C4B-DB5D26A8FA6C";
paths = (
{
closed = 1;
nodes = (
"376 130 LINE SMOOTH",
"421 130 OFFCURVE",
"437 129 OFFCURVE",
"437 88 CURVE SMOOTH",
"437 51 LINE SMOOTH",
"437 10 OFFCURVE",
"464 0 OFFCURVE",
"509 0 CURVE SMOOTH",
"682 0 LINE",
"681 1 OFFCURVE",
"670 13 OFFCURVE",
"670 46 CURVE SMOOTH",
"670 116 LINE SMOOTH",
"670 148 OFFCURVE",
"667 179 OFFCURVE",
"617 189 CURVE",
"606 190 OFFCURVE",
"590 190 OFFCURVE",
"578 190 CURVE",
"578 195 LINE",
"605 195 OFFCURVE",
"628 202 OFFCURVE",
"640 211 CURVE SMOOTH",
"660 228 OFFCURVE",
"666 253 OFFCURVE",
"666 337 CURVE SMOOTH",
"666 423 OFFCURVE",
"626 452 OFFCURVE",
"553 459 CURVE SMOOTH",
"502 464 OFFCURVE",
"174 460 OFFCURVE",
"114 460 CURVE SMOOTH",
"50 460 OFFCURVE",
"40 431 OFFCURVE",
"40 392 CURVE SMOOTH",
"40 0 LINE",
"268 0 LINE",
"268 129 LINE",
"294 129 OFFCURVE",
"343 130 OFFCURVE",
"343 130 CURVE"
);
},
{
closed = 1;
nodes = (
"268 330 LINE SMOOTH",
"268 342 OFFCURVE",
"278 343 OFFCURVE",
"280 343 CURVE SMOOTH",
"299 343 OFFCURVE",
"376 346 OFFCURVE",
"404 342 CURVE SMOOTH",
"427 339 OFFCURVE",
"436 321 OFFCURVE",
"436 291 CURVE SMOOTH",
"436 247 OFFCURVE",
"415 234 OFFCURVE",
"393 234 CURVE SMOOTH",
"373 234 OFFCURVE",
"287 234 OFFCURVE",
"268 235 CURVE"
);
}
);
width = 716;
},
{
anchors = (
{
name = bottom;
position = "{270, 0}";
},
{
name = top;
position = "{270, 460}";
}
);
background = {
anchors = (
{
name = bottom;
position = "{270, 0}";
},
{
name = top;
position = "{270, 460}";
}
);
paths = (
{
closed = 1;
nodes = (
"386 212 LINE SMOOTH",
"431 212 OFFCURVE",
"447 193 OFFCURVE",
"447 152 CURVE SMOOTH",
"447 21 LINE SMOOTH",
"447 0 OFFCURVE",
"452 0 OFFCURVE",
"461 0 CURVE SMOOTH",
"469 0 LINE",
"468 1 OFFCURVE",
"467 11 OFFCURVE",
"467 15 CURVE SMOOTH",
"467 147 LINE SMOOTH",
"467 179 OFFCURVE",
"462 216 OFFCURVE",
"412 226 CURVE",
"410 226 OFFCURVE",
"406 226 OFFCURVE",
"404 226 CURVE",
"404 227 LINE",
"405 227 OFFCURVE",
"411 227 OFFCURVE",
"413 228 CURVE SMOOTH",
"450 246 OFFCURVE",
"471 284 OFFCURVE",
"471 337 CURVE SMOOTH",
"471 410 OFFCURVE",
"445 452 OFFCURVE",
"376 459 CURVE SMOOTH",
"325 464 OFFCURVE",
"182 462 OFFCURVE",
"122 460 CURVE SMOOTH",
"92 459 OFFCURVE",
"75 453 OFFCURVE",
"75 414 CURVE SMOOTH",
"75 0 LINE",
"95 0 LINE",
"95 211 LINE",
"242 213 OFFCURVE",
"353 212 OFFCURVE",
"353 212 CURVE"
);
},
{
closed = 1;
nodes = (
"95 416 LINE SMOOTH",
"95 441 OFFCURVE",
"117 443 OFFCURVE",
"122 443 CURVE SMOOTH",
"167 445 OFFCURVE",
"313 449 OFFCURVE",
"377 441 CURVE SMOOTH",
"428 435 OFFCURVE",
"450 399 OFFCURVE",
"450 340 CURVE SMOOTH",
"450 254 OFFCURVE",
"402 228 OFFCURVE",
"350 228 CURVE SMOOTH",
"306 228 OFFCURVE",
"139 229 OFFCURVE",
"95 230 CURVE"
);
}
);
};
layerId = "B4E8C596-9C01-4F8A-BDA4-90320E25C0E6";
paths = (
{
closed = 1;
nodes = (
"386 212 LINE SMOOTH",
"431 212 OFFCURVE",
"447 193 OFFCURVE",
"447 152 CURVE SMOOTH",
"447 21 LINE SMOOTH",
"447 0 OFFCURVE",
"452 0 OFFCURVE",
"461 0 CURVE SMOOTH",
"469 0 LINE",
"468 1 OFFCURVE",
"467 11 OFFCURVE",
"467 15 CURVE SMOOTH",
"467 147 LINE SMOOTH",
"467 179 OFFCURVE",
"462 216 OFFCURVE",
"412 226 CURVE",
"410 226 OFFCURVE",
"406 226 OFFCURVE",
"404 226 CURVE",
"404 227 LINE",
"405 227 OFFCURVE",
"411 227 OFFCURVE",
"413 228 CURVE SMOOTH",
"450 246 OFFCURVE",
"471 284 OFFCURVE",
"471 337 CURVE SMOOTH",
"471 410 OFFCURVE",
"445 452 OFFCURVE",
"376 459 CURVE SMOOTH",
"325 464 OFFCURVE",
"182 462 OFFCURVE",
"122 460 CURVE SMOOTH",
"92 459 OFFCURVE",
"75 453 OFFCURVE",
"75 414 CURVE SMOOTH",
"75 0 LINE",
"95 0 LINE",
"95 211 LINE",
"242 213 OFFCURVE",
"353 212 OFFCURVE",
"353 212 CURVE"
);
},
{
closed = 1;
nodes = (
"95 416 LINE SMOOTH",
"95 441 OFFCURVE",
"117 443 OFFCURVE",
"122 443 CURVE SMOOTH",
"167 445 OFFCURVE",
"313 449 OFFCURVE",
"377 441 CURVE SMOOTH",
"428 435 OFFCURVE",
"450 399 OFFCURVE",
"450 340 CURVE SMOOTH",
"450 254 OFFCURVE",
"402 228 OFFCURVE",
"350 228 CURVE SMOOTH",
"306 228 OFFCURVE",
"139 229 OFFCURVE",
"95 230 CURVE"
);
}
);
width = 516;
}
);
leftKerningGroup = H;
leftMetricsKey = H;
note = R;
rightKerningGroup = R;
unicode = 0052;
},
{
glyphname = S;
lastChange = "2021-06-29 03:47:53 +0000";
layers = (
{
anchors = (
{
name = bottom;
position = "{344, 0}";
},
{
name = top;
position = "{344, 460}";
}
);
background = {
anchors = (
{
name = bottom;
position = "{344, 0}";
},
{
name = top;
position = "{344, 460}";
}
);
hints = (
{
horizontal = 1;
place = "{-1, 150}";
type = Stem;
},
{
horizontal = 1;
place = "{150, 152}";
type = Stem;
},
{
horizontal = 1;
place = "{308, 152}";
type = Stem;
},
{
place = "{23, 226}";
type = Stem;
},
{
place = "{420, 229}";
type = Stem;
}
);
paths = (
{
closed = 1;
nodes = (
"44 65 LINE SMOOTH",
"44 9 OFFCURVE",
"98 -1 OFFCURVE",
"235 -4 CURVE SMOOTH",
"322 -6 OFFCURVE",
"393 -5 OFFCURVE",
"480 0 CURVE SMOOTH",
"580 6 OFFCURVE",
"646 46 OFFCURVE",
"646 159 CURVE SMOOTH",
"646 281 OFFCURVE",
"581 297 OFFCURVE",
"478 297 CURVE SMOOTH",
"473 297 OFFCURVE",
"416 297 OFFCURVE",
"313 297 CURVE SMOOTH",
"286 297 OFFCURVE",
"286 309 OFFCURVE",
"286 319 CURVE SMOOTH",
"286 330 OFFCURVE",
"286 343 OFFCURVE",
"329 343 CURVE SMOOTH",
"442 343 LINE SMOOTH",
"502 343 OFFCURVE",
"620 342 OFFCURVE",
"635 328 CURVE",
"635 329 OFFCURVE",
"635 373 OFFCURVE",
"635 381 CURVE SMOOTH",
"635 425 OFFCURVE",
"600 457 OFFCURVE",
"537 460 CURVE SMOOTH",
"498 462 OFFCURVE",
"397 464 OFFCURVE",
"321 464 CURVE SMOOTH",
"153 464 OFFCURVE",
"51 452 OFFCURVE",
"51 301 CURVE SMOOTH",
"51 173 OFFCURVE",
"148 168 OFFCURVE",
"244 168 CURVE SMOOTH",
"327 168 OFFCURVE",
"349 168 OFFCURVE",
"368 168 CURVE SMOOTH",
"394 168 OFFCURVE",
"405 160 OFFCURVE",
"405 146 CURVE SMOOTH",
"405 128 OFFCURVE",
"392 118 OFFCURVE",
"357 118 CURVE SMOOTH",
"340 118 OFFCURVE",
"303 117 OFFCURVE",
"285 117 CURVE SMOOTH",
"213 117 OFFCURVE",
"99 118 OFFCURVE",
"44 138 CURVE"
);
}
);
};
layerId = "C7668D88-AC50-4107-9C4B-DB5D26A8FA6C";
paths = (
{
closed = 1;
nodes = (
"44 65 LINE SMOOTH",
"44 9 OFFCURVE",
"98 -1 OFFCURVE",
"235 -4 CURVE SMOOTH",
"322 -6 OFFCURVE",
"393 -5 OFFCURVE",
"480 0 CURVE SMOOTH",
"580 6 OFFCURVE",
"646 46 OFFCURVE",
"646 159 CURVE SMOOTH",
"646 281 OFFCURVE",
"581 297 OFFCURVE",
"478 297 CURVE SMOOTH",
"473 297 OFFCURVE",
"416 297 OFFCURVE",
"313 297 CURVE SMOOTH",
"286 297 OFFCURVE",
"286 309 OFFCURVE",
"286 319 CURVE SMOOTH",
"286 330 OFFCURVE",
"286 343 OFFCURVE",
"329 343 CURVE SMOOTH",
"442 343 LINE SMOOTH",
"502 343 OFFCURVE",
"620 342 OFFCURVE",
"635 328 CURVE",
"635 329 OFFCURVE",
"635 373 OFFCURVE",
"635 381 CURVE SMOOTH",
"635 425 OFFCURVE",
"600 457 OFFCURVE",
"537 460 CURVE SMOOTH",
"498 462 OFFCURVE",
"397 464 OFFCURVE",
"321 464 CURVE SMOOTH",
"153 464 OFFCURVE",
"51 452 OFFCURVE",
"51 301 CURVE SMOOTH",
"51 173 OFFCURVE",
"148 168 OFFCURVE",
"244 168 CURVE SMOOTH",
"327 168 OFFCURVE",
"349 168 OFFCURVE",
"368 168 CURVE SMOOTH",
"394 168 OFFCURVE",
"405 160 OFFCURVE",
"405 146 CURVE SMOOTH",
"405 128 OFFCURVE",
"392 118 OFFCURVE",
"357 118 CURVE SMOOTH",
"340 118 OFFCURVE",
"303 117 OFFCURVE",
"285 117 CURVE SMOOTH",
"213 117 OFFCURVE",
"99 118 OFFCURVE",
"44 138 CURVE"
);
}
);
width = 688;
},
{
anchors = (
{
name = bottom;
position = "{247, 0}";
},
{
name = top;
position = "{259, 460}";
}
);
background = {
anchors = (
{
name = bottom;
position = "{247, 0}";
},
{
name = top;
position = "{259, 460}";
}
);
paths = (
{
closed = 1;
nodes = (
"48 34 LINE SMOOTH",
"48 -2 OFFCURVE",
"179 -6 OFFCURVE",
"215 -6 CURVE SMOOTH",
"228 -6 OFFCURVE",
"241 -6 OFFCURVE",
"254 -5 CURVE SMOOTH",
"359 0 OFFCURVE",
"439 28 OFFCURVE",
"439 132 CURVE SMOOTH",
"439 236 OFFCURVE",
"378 246 OFFCURVE",
"297 246 CURVE SMOOTH",
"263 246 OFFCURVE",
"230 246 OFFCURVE",
"196 246 CURVE SMOOTH",
"119 246 OFFCURVE",
"64 253 OFFCURVE",
"64 334 CURVE SMOOTH",
"64 437 OFFCURVE",
"149 447 OFFCURVE",
"235 447 CURVE SMOOTH",
"273 447 LINE SMOOTH",
"311 447 OFFCURVE",
"407 442 OFFCURVE",
"434 409 CURVE",
"434 415 OFFCURVE",
"434 420 OFFCURVE",
"434 426 CURVE SMOOTH",
"434 431 OFFCURVE",
"431 435 OFFCURVE",
"425 439 CURVE SMOOTH",
"391 462 OFFCURVE",
"309 464 OFFCURVE",
"259 464 CURVE SMOOTH",
"149 464 OFFCURVE",
"45 455 OFFCURVE",
"45 334 CURVE SMOOTH",
"45 231 OFFCURVE",
"127 228 OFFCURVE",
"197 228 CURVE SMOOTH",
"232 228 OFFCURVE",
"268 228 OFFCURVE",
"303 228 CURVE SMOOTH",
"377 228 OFFCURVE",
"419 215 OFFCURVE",
"419 135 CURVE SMOOTH",
"419 37 OFFCURVE",
"349 15 OFFCURVE",
"252 12 CURVE SMOOTH",
"240 11 OFFCURVE",
"228 11 OFFCURVE",
"216 11 CURVE SMOOTH",
"169 11 OFFCURVE",
"84 14 OFFCURVE",
"48 44 CURVE"
);
}
);
};
layerId = "B4E8C596-9C01-4F8A-BDA4-90320E25C0E6";
paths = (
{
closed = 1;
nodes = (
"48 34 LINE SMOOTH",
"48 -2 OFFCURVE",
"179 -6 OFFCURVE",
"215 -6 CURVE SMOOTH",
"228 -6 OFFCURVE",
"241 -6 OFFCURVE",
"254 -5 CURVE SMOOTH",
"359 0 OFFCURVE",
"439 28 OFFCURVE",
"439 132 CURVE SMOOTH",
"439 236 OFFCURVE",
"378 246 OFFCURVE",
"297 246 CURVE SMOOTH",
"263 246 OFFCURVE",
"230 246 OFFCURVE",
"196 246 CURVE SMOOTH",
"119 246 OFFCURVE",
"64 253 OFFCURVE",
"64 334 CURVE SMOOTH",
"64 437 OFFCURVE",
"149 447 OFFCURVE",
"235 447 CURVE SMOOTH",
"273 447 LINE SMOOTH",
"311 447 OFFCURVE",
"407 442 OFFCURVE",
"434 409 CURVE",
"434 415 OFFCURVE",
"434 420 OFFCURVE",
"434 426 CURVE SMOOTH",
"434 431 OFFCURVE",
"431 435 OFFCURVE",
"425 439 CURVE SMOOTH",
"391 462 OFFCURVE",
"309 464 OFFCURVE",
"259 464 CURVE SMOOTH",
"149 464 OFFCURVE",
"45 455 OFFCURVE",
"45 334 CURVE SMOOTH",
"45 231 OFFCURVE",
"127 228 OFFCURVE",
"197 228 CURVE SMOOTH",
"232 228 OFFCURVE",
"268 228 OFFCURVE",
"303 228 CURVE SMOOTH",
"377 228 OFFCURVE",
"419 215 OFFCURVE",
"419 135 CURVE SMOOTH",
"419 37 OFFCURVE",
"349 15 OFFCURVE",
"252 12 CURVE SMOOTH",
"240 11 OFFCURVE",
"228 11 OFFCURVE",
"216 11 CURVE SMOOTH",
"169 11 OFFCURVE",
"84 14 OFFCURVE",
"48 44 CURVE"
);
}
);
width = 493;
}
);
leftKerningGroup = S;
note = S;
rightKerningGroup = S;
unicode = 0053;
},
{
glyphname = T;
lastChange = "2021-08-11 03:31:53 +0000";
layers = (
{
anchors = (
{
name = bottom;
position = "{326, 0}";
},
{
name = center;
position = "{326, 230}";
},
{
name = top;
position = "{326, 460}";
}
);
background = {
anchors = (
{
name = bottom;
position = "{326, 0}";
},
{
name = center;
position = "{326, 230}";
},
{
name = top;
position = "{326, 460}";
}
);
paths = (
{
closed = 1;
nodes = (
"15 342 LINE",
"213 342 LINE",
"213 0 LINE",
"367 0 LINE SMOOTH",
"430 0 OFFCURVE",
"441 13 OFFCURVE",
"441 70 CURVE SMOOTH",
"441 342 LINE",
"637 342 LINE",
"637 460 LINE",
"15 460 LINE"
);
}
);
};
layerId = "C7668D88-AC50-4107-9C4B-DB5D26A8FA6C";
paths = (
{
closed = 1;
nodes = (
"15 342 LINE",
"213 342 LINE",
"213 0 LINE",
"367 0 LINE SMOOTH",
"430 0 OFFCURVE",
"441 13 OFFCURVE",
"441 70 CURVE SMOOTH",
"441 342 LINE",
"637 342 LINE",
"637 460 LINE",
"15 460 LINE"
);
}
);
width = 652;
},
{
anchors = (
{
name = bottom;
position = "{221, 0}";
},
{
name = center;
position = "{221, 230}";
},
{
name = top;
position = "{221, 460}";
}
);
background = {
anchors = (
{
name = bottom;
position = "{221, 0}";
},
{
name = center;
position = "{221, 230}";
},
{
name = top;
position = "{221, 460}";
}
);
paths = (
{
closed = 1;
nodes = (
"25 443 LINE",
"211 443 LINE",
"211 0 LINE",
"221 0 LINE SMOOTH",
"231 0 OFFCURVE",
"231 7 OFFCURVE",
"231 19 CURVE SMOOTH",
"231 443 LINE",
"417 443 LINE",
"417 460 LINE",
"25 460 LINE"
);
}
);
};
layerId = "B4E8C596-9C01-4F8A-BDA4-90320E25C0E6";
paths = (
{
closed = 1;
nodes = (
"25 443 LINE",
"211 443 LINE",
"211 0 LINE",
"221 0 LINE SMOOTH",
"231 0 OFFCURVE",
"231 7 OFFCURVE",
"231 19 CURVE SMOOTH",
"231 443 LINE",
"417 443 LINE",
"417 460 LINE",
"25 460 LINE"
);
}
);
width = 442;
}
);
leftKerningGroup = T;
note = T;
rightKerningGroup = T;
unicode = 0054;
},
{
glyphname = Tbar;
lastChange = "2021-07-01 18:33:25 +0000";
layers = (
{
background = {
paths = (
{
closed = 1;
nodes = (
"99 206 LINE",
"213 206 LINE",
"213 0 LINE",
"367 0 LINE SMOOTH",
"430 0 OFFCURVE",
"441 13 OFFCURVE",
"441 70 CURVE SMOOTH",
"441 206 LINE",
"561 206 LINE",
"561 266 LINE",
"441 266 LINE",
"441 342 LINE",
"637 342 LINE",
"637 460 LINE",
"15 460 LINE",
"15 342 LINE",
"213 342 LINE",
"213 266 LINE",
"99 266 LINE"
);
}
);
};
layerId = "C7668D88-AC50-4107-9C4B-DB5D26A8FA6C";
paths = (
{
closed = 1;
nodes = (
"99 206 LINE",
"213 206 LINE",
"213 0 LINE",
"367 0 LINE SMOOTH",
"430 0 OFFCURVE",
"441 13 OFFCURVE",
"441 70 CURVE SMOOTH",
"441 206 LINE",
"561 206 LINE",
"561 266 LINE",
"441 266 LINE",
"441 342 LINE",
"637 342 LINE",
"637 460 LINE",
"15 460 LINE",
"15 342 LINE",
"213 342 LINE",
"213 266 LINE",
"99 266 LINE"
);
}
);
width = 652;
},
{
background = {
paths = (
{
closed = 1;
nodes = (
"74 300 LINE",
"206 300 LINE",
"206 0 LINE",
"216 0 LINE SMOOTH",
"226 0 OFFCURVE",
"226 7 OFFCURVE",
"226 19 CURVE SMOOTH",
"226 300 LINE",
"360 300 LINE",
"360 308 LINE",
"226 308 LINE",
"226 443 LINE",
"412 443 LINE",
"412 460 LINE",
"20 460 LINE",
"20 443 LINE",
"206 443 LINE",
"206 308 LINE",
"74 308 LINE"
);
}
);
};
layerId = "B4E8C596-9C01-4F8A-BDA4-90320E25C0E6";
paths = (
{
closed = 1;
nodes = (
"74 300 LINE",
"206 300 LINE",
"206 0 LINE",
"216 0 LINE SMOOTH",
"226 0 OFFCURVE",
"226 7 OFFCURVE",
"226 19 CURVE SMOOTH",
"226 300 LINE",
"360 300 LINE",
"360 308 LINE",
"226 308 LINE",
"226 443 LINE",
"412 443 LINE",
"412 460 LINE",
"20 460 LINE",
"20 443 LINE",
"206 443 LINE",
"206 308 LINE",
"74 308 LINE"
);
}
);
width = 432;
}
);
leftKerningGroup = T;
note = Tbar;
rightKerningGroup = T;
unicode = 0166;
},
{
glyphname = U;
lastChange = "2021-06-29 03:47:53 +0000";
layers = (
{
anchors = (
{
name = bottom;
position = "{347, 0}";
},
{
name = ogonek;
position = "{410, 10}";
},
{
name = top;
position = "{347, 460}";
},
{
name = topright;
position = "{551, 460}";
}
);
background = {
anchors = (
{
name = bottom;
position = "{347, 0}";
},
{
name = ogonek;
position = "{410, 10}";
},
{
name = top;
position = "{347, 460}";
},
{
name = topright;
position = "{551, 460}";
}
);
paths = (
{
closed = 1;
nodes = (
"659 362 LINE SMOOTH",
"659 443 OFFCURVE",
"661 460 OFFCURVE",
"574 460 CURVE SMOOTH",
"431 460 LINE",
"431 203 LINE SMOOTH",
"431 139 OFFCURVE",
"410 120 OFFCURVE",
"346 120 CURVE SMOOTH",
"287 120 OFFCURVE",
"263 125 OFFCURVE",
"263 205 CURVE SMOOTH",
"263 460 LINE",
"118 460 LINE SMOOTH",
"31 460 OFFCURVE",
"35 443 OFFCURVE",
"35 362 CURVE SMOOTH",
"35 236 LINE SMOOTH",
"35 66 OFFCURVE",
"37 -2 OFFCURVE",
"345 -2 CURVE SMOOTH",
"640 -2 OFFCURVE",
"659 63 OFFCURVE",
"659 250 CURVE SMOOTH"
);
}
);
};
layerId = "C7668D88-AC50-4107-9C4B-DB5D26A8FA6C";
paths = (
{
closed = 1;
nodes = (
"659 362 LINE SMOOTH",
"659 443 OFFCURVE",
"661 460 OFFCURVE",
"574 460 CURVE SMOOTH",
"431 460 LINE",
"431 203 LINE SMOOTH",
"431 139 OFFCURVE",
"410 120 OFFCURVE",
"346 120 CURVE SMOOTH",
"287 120 OFFCURVE",
"263 125 OFFCURVE",
"263 205 CURVE SMOOTH",
"263 460 LINE",
"118 460 LINE SMOOTH",
"31 460 OFFCURVE",
"35 443 OFFCURVE",
"35 362 CURVE SMOOTH",
"35 236 LINE SMOOTH",
"35 66 OFFCURVE",
"37 -2 OFFCURVE",
"345 -2 CURVE SMOOTH",
"640 -2 OFFCURVE",
"659 63 OFFCURVE",
"659 250 CURVE SMOOTH"
);
}
);
width = 694;
},
{
anchors = (
{
name = bottom;
position = "{232, 0}";
},
{
name = ogonek;
position = "{282, 10}";
},
{
name = top;
position = "{232, 460}";
},
{
name = topright;
position = "{397, 460}";
}
);
background = {
anchors = (
{
name = bottom;
position = "{232, 0}";
},
{
name = ogonek;
position = "{282, 10}";
},
{
name = top;
position = "{232, 460}";
},
{
name = topright;
position = "{397, 460}";
}
);
paths = (
{
closed = 1;
nodes = (
"419 442 LINE SMOOTH",
"419 456 OFFCURVE",
"418 460 OFFCURVE",
"408 460 CURVE SMOOTH",
"399 460 LINE",
"399 140 LINE SMOOTH",
"399 51 OFFCURVE",
"349 14 OFFCURVE",
"230 14 CURVE SMOOTH",
"111 14 OFFCURVE",
"65 46 OFFCURVE",
"65 139 CURVE SMOOTH",
"65 460 LINE",
"56 460 LINE SMOOTH",
"46 460 OFFCURVE",
"45 456 OFFCURVE",
"45 442 CURVE SMOOTH",
"45 175 LINE SMOOTH",
"45 89 OFFCURVE",
"45 -3 OFFCURVE",
"230 -3 CURVE SMOOTH",
"421 -3 OFFCURVE",
"419 90 OFFCURVE",
"419 176 CURVE SMOOTH"
);
}
);
};
layerId = "B4E8C596-9C01-4F8A-BDA4-90320E25C0E6";
paths = (
{
closed = 1;
nodes = (
"419 442 LINE SMOOTH",
"419 456 OFFCURVE",
"418 460 OFFCURVE",
"408 460 CURVE SMOOTH",
"399 460 LINE",
"399 140 LINE SMOOTH",
"399 51 OFFCURVE",
"349 14 OFFCURVE",
"230 14 CURVE SMOOTH",
"111 14 OFFCURVE",
"65 46 OFFCURVE",
"65 139 CURVE SMOOTH",
"65 460 LINE",
"56 460 LINE SMOOTH",
"46 460 OFFCURVE",
"45 456 OFFCURVE",
"45 442 CURVE SMOOTH",
"45 175 LINE SMOOTH",
"45 89 OFFCURVE",
"45 -3 OFFCURVE",
"230 -3 CURVE SMOOTH",
"421 -3 OFFCURVE",
"419 90 OFFCURVE",
"419 176 CURVE SMOOTH"
);
}
);
width = 464;
}
);
leftKerningGroup = U;
note = U;
rightKerningGroup = U;
unicode = 0055;
},
{
glyphname = V;
lastChange = "2021-08-11 03:32:02 +0000";
layers = (
{
anchors = (
{
name = bottom;
position = "{336, 0}";
},
{
name = top;
position = "{336, 460}";
}
);
background = {
anchors = (
{
name = bottom;
position = "{336, 0}";
},
{
name = top;
position = "{336, 460}";
}
);
paths = (
{
closed = 1;
nodes = (
"521 153 OFFCURVE",
"593 307 OFFCURVE",
"666 460 CURVE",
"609 460 OFFCURVE",
"550 460 OFFCURVE",
"493 460 CURVE",
"455 381 OFFCURVE",
"417 302 OFFCURVE",
"379 223 CURVE",
"378 217 OFFCURVE",
"377 211 OFFCURVE",
"376 205 CURVE",
"375 205 OFFCURVE",
"376 205 OFFCURVE",
"375 205 CURVE",
"374 211 OFFCURVE",
"374 217 OFFCURVE",
"373 223 CURVE",
"336 302 OFFCURVE",
"299 381 OFFCURVE",
"262 460 CURVE",
"176 460 OFFCURVE",
"91 460 OFFCURVE",
"5 460 CURVE",
"66 331 OFFCURVE",
"128 203 OFFCURVE",
"189 74 CURVE",
"225 6 OFFCURVE",
"250 0 OFFCURVE",
"312 0 CURVE",
"357 0 OFFCURVE",
"403 0 OFFCURVE",
"448 0 CURVE"
);
}
);
};
layerId = "C7668D88-AC50-4107-9C4B-DB5D26A8FA6C";
paths = (
{
closed = 1;
nodes = (
"521 153 OFFCURVE",
"593 307 OFFCURVE",
"666 460 CURVE",
"609 460 OFFCURVE",
"550 460 OFFCURVE",
"493 460 CURVE",
"455 381 OFFCURVE",
"417 302 OFFCURVE",
"379 223 CURVE",
"378 217 OFFCURVE",
"377 211 OFFCURVE",
"376 205 CURVE",
"375 205 OFFCURVE",
"376 205 OFFCURVE",
"375 205 CURVE",
"374 211 OFFCURVE",
"374 217 OFFCURVE",
"373 223 CURVE",
"336 302 OFFCURVE",
"299 381 OFFCURVE",
"262 460 CURVE",
"176 460 OFFCURVE",
"91 460 OFFCURVE",
"5 460 CURVE",
"66 331 OFFCURVE",
"128 203 OFFCURVE",
"189 74 CURVE",
"225 6 OFFCURVE",
"250 0 OFFCURVE",
"312 0 CURVE",
"357 0 OFFCURVE",
"403 0 OFFCURVE",
"448 0 CURVE"
);
}
);
width = 671;
},
{
anchors = (
{
name = bottom;
position = "{215, 0}";
},
{
name = top;
position = "{215, 460}";
}
);
background = {
anchors = (
{
name = bottom;
position = "{215, 0}";
},
{
name = top;
position = "{215, 460}";
}
);
hints = (
{
horizontal = 1;
place = "{0, 171}";
type = Stem;
},
{
horizontal = 1;
place = "{460, -20}";
target = down;
type = TopGhost;
},
{
place = "{39, 437}";
type = Stem;
},
{
horizontal = 1;
place = "{75, 96}";
type = Stem;
},
{
place = "{32, 438}";
type = Stem;
}
);
paths = (
{
closed = 1;
nodes = (
"289 153 OFFCURVE",
"333 307 OFFCURVE",
"380 460 CURVE",
"374 460 OFFCURVE",
"368 460 OFFCURVE",
"363 460 CURVE",
"319 312 OFFCURVE",
"275 158 OFFCURVE",
"233 24 CURVE",
"233 24 OFFCURVE",
"230 15 OFFCURVE",
"230 15 CURVE",
"221 15 OFFCURVE",
"213 15 OFFCURVE",
"205 16 CURVE SMOOTH",
"190 18 OFFCURVE",
"164 19 OFFCURVE",
"150 64 CURVE SMOOTH",
"109 196 OFFCURVE",
"71 328 OFFCURVE",
"32 460 CURVE",
"25 460 OFFCURVE",
"17 460 OFFCURVE",
"10 460 CURVE",
"48 335 OFFCURVE",
"88 204 OFFCURVE",
"126 75 CURVE SMOOTH",
"132 55 OFFCURVE",
"147 1 OFFCURVE",
"207 0 CURVE SMOOTH",
"224 0 OFFCURVE",
"236 0 OFFCURVE",
"243 0 CURVE"
);
}
);
};
layerId = "B4E8C596-9C01-4F8A-BDA4-90320E25C0E6";
paths = (
{
closed = 1;
nodes = (
"289 153 OFFCURVE",
"333 307 OFFCURVE",
"380 460 CURVE",
"374 460 OFFCURVE",
"368 460 OFFCURVE",
"363 460 CURVE",
"319 312 OFFCURVE",
"275 158 OFFCURVE",
"233 24 CURVE",
"233 24 OFFCURVE",
"230 15 OFFCURVE",
"230 15 CURVE",
"221 15 OFFCURVE",
"213 15 OFFCURVE",
"205 16 CURVE SMOOTH",
"190 18 OFFCURVE",
"164 19 OFFCURVE",
"150 64 CURVE SMOOTH",
"109 196 OFFCURVE",
"71 328 OFFCURVE",
"32 460 CURVE",
"25 460 OFFCURVE",
"17 460 OFFCURVE",
"10 460 CURVE",
"48 335 OFFCURVE",
"88 204 OFFCURVE",
"126 75 CURVE SMOOTH",
"132 55 OFFCURVE",
"147 1 OFFCURVE",
"207 0 CURVE SMOOTH",
"224 0 OFFCURVE",
"236 0 OFFCURVE",
"243 0 CURVE"
);
}
);
width = 429;
}
);
leftKerningGroup = V;
note = V;
rightKerningGroup = V;
unicode = 0056;
},
{
glyphname = W;
lastChange = "2021-08-11 03:31:21 +0000";
layers = (
{
anchors = (
{
name = bottom;
position = "{455, 0}";
},
{
name = top;
position = "{468, 460}";
}
);
background = {
anchors = (
{
name = bottom;
position = "{455, 0}";
},
{
name = top;
position = "{468, 460}";
}
);
paths = (
{
closed = 1;
nodes = (
"86 82 LINE SMOOTH",
"103 4 OFFCURVE",
"144 0 OFFCURVE",
"201 0 CURVE SMOOTH",
"385 0 LINE",
"446 179 LINE",
"448 197 LINE",
"451 197 LINE",
"454 179 LINE",
"514 0 LINE",
"654 0 LINE SMOOTH",
"710 0 OFFCURVE",
"755 10 OFFCURVE",
"771 82 CURVE SMOOTH",
"857 460 LINE",
"802 460 OFFCURVE",
"747 460 OFFCURVE",
"692 460 CURVE",
"649 259 LINE",
"648 249 OFFCURVE",
"647 240 OFFCURVE",
"646 230 CURVE",
"642 269 LINE",
"578 460 LINE",
"353 460 LINE",
"290 269 LINE",
"286 230 LINE",
"285 240 OFFCURVE",
"284 249 OFFCURVE",
"283 259 CURVE",
"244 460 LINE",
"5 460 LINE"
);
}
);
};
layerId = "C7668D88-AC50-4107-9C4B-DB5D26A8FA6C";
paths = (
{
closed = 1;
nodes = (
"86 82 LINE SMOOTH",
"103 4 OFFCURVE",
"144 0 OFFCURVE",
"201 0 CURVE SMOOTH",
"385 0 LINE",
"446 179 LINE",
"448 197 LINE",
"451 197 LINE",
"454 179 LINE",
"514 0 LINE",
"654 0 LINE SMOOTH",
"710 0 OFFCURVE",
"755 10 OFFCURVE",
"771 82 CURVE SMOOTH",
"857 460 LINE",
"802 460 OFFCURVE",
"747 460 OFFCURVE",
"692 460 CURVE",
"649 259 LINE",
"648 249 OFFCURVE",
"647 240 OFFCURVE",
"646 230 CURVE",
"642 269 LINE",
"578 460 LINE",
"353 460 LINE",
"290 269 LINE",
"286 230 LINE",
"285 240 OFFCURVE",
"284 249 OFFCURVE",
"283 259 CURVE",
"244 460 LINE",
"5 460 LINE"
);
}
);
width = 862;
},
{
anchors = (
{
name = bottom;
position = "{289, 0}";
},
{
name = top;
position = "{289, 460}";
}
);
background = {
anchors = (
{
name = bottom;
position = "{289, 0}";
},
{
name = top;
position = "{289, 460}";
}
);
hints = (
{
horizontal = 1;
place = "{0, 16}";
type = Stem;
},
{
horizontal = 1;
place = "{425, 35}";
type = Stem;
},
{
place = "{70, 22}";
type = Stem;
},
{
place = "{483, 24}";
type = Stem;
}
);
paths = (
{
closed = 1;
nodes = (
"69 81 LINE SMOOTH",
"80 -2 OFFCURVE",
"100 0 OFFCURVE",
"157 0 CURVE SMOOTH",
"198 0 LINE",
"282 404 LINE",
"287 425 LINE",
"287 425 LINE",
"293 398 LINE",
"379 0 LINE",
"413 0 LINE SMOOTH",
"469 0 OFFCURVE",
"497 -3 OFFCURVE",
"507 75 CURVE SMOOTH",
"557 460 LINE",
"543 460 OFFCURVE",
"542 460 OFFCURVE",
"533 460 CURVE",
"483 55 LINE",
"479 25 OFFCURVE",
"447 16 OFFCURVE",
"434 16 CURVE",
"394 16 LINE",
"299 460 LINE",
"275 460 LINE",
"182 16 LINE",
"145 16 LINE",
"116 16 OFFCURVE",
"97 21 OFFCURVE",
"90 72 CURVE",
"41 460 LINE",
"20 460 LINE"
);
}
);
};
layerId = "B4E8C596-9C01-4F8A-BDA4-90320E25C0E6";
paths = (
{
closed = 1;
nodes = (
"69 81 LINE SMOOTH",
"80 -2 OFFCURVE",
"100 0 OFFCURVE",
"157 0 CURVE SMOOTH",
"198 0 LINE",
"282 404 LINE",
"287 425 LINE",
"287 425 LINE",
"293 398 LINE",
"379 0 LINE",
"413 0 LINE SMOOTH",
"469 0 OFFCURVE",
"497 -3 OFFCURVE",
"507 75 CURVE SMOOTH",
"557 460 LINE",
"543 460 OFFCURVE",
"542 460 OFFCURVE",
"533 460 CURVE",
"483 55 LINE",
"479 25 OFFCURVE",
"447 16 OFFCURVE",
"434 16 CURVE",
"394 16 LINE",
"299 460 LINE",
"275 460 LINE",
"182 16 LINE",
"145 16 LINE",
"116 16 OFFCURVE",
"97 21 OFFCURVE",
"90 72 CURVE",
"41 460 LINE",
"20 460 LINE"
);
}
);
width = 577;
}
);
leftKerningGroup = W;
note = W;
rightKerningGroup = W;
unicode = 0057;
},
{
glyphname = X;
lastChange = "2021-08-11 03:31:30 +0000";
layers = (
{
anchors = (
{
name = bottom;
position = "{364, 0}";
},
{
name = top;
position = "{364, 460}";
}
);
background = {
anchors = (
{
name = bottom;
position = "{364, 0}";
},
{
name = top;
position = "{364, 460}";
}
);
paths = (
{
closed = 1;
nodes = (
"19 460 LINE",
"24 458 OFFCURVE",
"33 448 OFFCURVE",
"37 443 CURVE SMOOTH",
"228 218 LINE",
"92 81 LINE",
"79 65 OFFCURVE",
"34 21 OFFCURVE",
"5 1 CURVE",
"137 0 LINE SMOOTH",
"197 0 OFFCURVE",
"228 6 OFFCURVE",
"269 48 CURVE SMOOTH",
"324 104 LINE",
"362 60 LINE SMOOTH",
"409 3 OFFCURVE",
"445 0 OFFCURVE",
"505 0 CURVE SMOOTH",
"722 0 LINE",
"702 5 OFFCURVE",
"658 65 OFFCURVE",
"658 65 CURVE",
"590 143 OFFCURVE",
"532 211 OFFCURVE",
"484 267 CURVE",
"591 377 OFFCURVE",
"633 418 OFFCURVE",
"673 460 CURVE",
"469 460 LINE",
"389 379 LINE",
"352 422 OFFCURVE",
"329 450 OFFCURVE",
"321 460 CURVE"
);
}
);
};
layerId = "C7668D88-AC50-4107-9C4B-DB5D26A8FA6C";
paths = (
{
closed = 1;
nodes = (
"19 460 LINE",
"24 458 OFFCURVE",
"33 448 OFFCURVE",
"37 443 CURVE SMOOTH",
"228 218 LINE",
"92 81 LINE",
"79 65 OFFCURVE",
"34 21 OFFCURVE",
"5 1 CURVE",
"137 0 LINE SMOOTH",
"197 0 OFFCURVE",
"228 6 OFFCURVE",
"269 48 CURVE SMOOTH",
"324 104 LINE",
"362 60 LINE SMOOTH",
"409 3 OFFCURVE",
"445 0 OFFCURVE",
"505 0 CURVE SMOOTH",
"722 0 LINE",
"702 5 OFFCURVE",
"658 65 OFFCURVE",
"658 65 CURVE",
"590 143 OFFCURVE",
"532 211 OFFCURVE",
"484 267 CURVE",
"591 377 OFFCURVE",
"633 418 OFFCURVE",
"673 460 CURVE",
"469 460 LINE",
"389 379 LINE",
"352 422 OFFCURVE",
"329 450 OFFCURVE",
"321 460 CURVE"
);
}
);
width = 727;
},
{
anchors = (
{
name = bottom;
position = "{199, 0}";
},
{
name = top;
position = "{199, 460}";
}
);
background = {
anchors = (
{
name = bottom;
position = "{199, 0}";
},
{
name = top;
position = "{199, 460}";
}
);
hints = (
{
horizontal = 1;
place = "{-1, 21}";
target = up;
type = BottomGhost;
},
{
place = "{5, 381}";
type = Stem;
}
);
paths = (
{
closed = 1;
nodes = (
"9 460 LINE",
"55 400 OFFCURVE",
"183 227 OFFCURVE",
"183 227 CURVE SMOOTH",
"183 227 LINE",
"65 74 LINE",
"65 74 OFFCURVE",
"27 19 OFFCURVE",
"5 0 CURVE",
"23 0 LINE SMOOTH",
"29 0 OFFCURVE",
"36 9 OFFCURVE",
"40 14 CURVE SMOOTH",
"193 214 LINE",
"193 214 LINE SMOOTH",
"244 151 OFFCURVE",
"344 -2 OFFCURVE",
"366 -1 CURVE SMOOTH",
"388 0 LINE",
"365 13 OFFCURVE",
"207 232 OFFCURVE",
"207 232 CURVE",
"207 232 OFFCURVE",
"207 232 OFFCURVE",
"207 232 CURVE",
"207 232 OFFCURVE",
"384 460 OFFCURVE",
"384 460 CURVE",
"362 460 LINE",
"197 246 LINE",
"171 278 OFFCURVE",
"36 460 OFFCURVE",
"36 460 CURVE"
);
}
);
};
layerId = "B4E8C596-9C01-4F8A-BDA4-90320E25C0E6";
paths = (
{
closed = 1;
nodes = (
"9 460 LINE",
"55 400 OFFCURVE",
"183 227 OFFCURVE",
"183 227 CURVE SMOOTH",
"183 227 LINE",
"65 74 LINE",
"65 74 OFFCURVE",
"27 19 OFFCURVE",
"5 0 CURVE",
"23 0 LINE SMOOTH",
"29 0 OFFCURVE",
"36 9 OFFCURVE",
"40 14 CURVE SMOOTH",
"193 214 LINE",
"193 214 LINE SMOOTH",
"244 151 OFFCURVE",
"344 -2 OFFCURVE",
"366 -1 CURVE SMOOTH",
"388 0 LINE",
"365 13 OFFCURVE",
"207 232 OFFCURVE",
"207 232 CURVE",
"207 232 OFFCURVE",
"207 232 OFFCURVE",
"207 232 CURVE",
"207 232 OFFCURVE",
"384 460 OFFCURVE",
"384 460 CURVE",
"362 460 LINE",
"197 246 LINE",
"171 278 OFFCURVE",
"36 460 OFFCURVE",
"36 460 CURVE"
);
}
);
width = 398;
}
);
leftKerningGroup = X;
note = X;
rightKerningGroup = X;
unicode = 0058;
},
{
glyphname = Y;
lastChange = "2021-08-11 03:29:46 +0000";
layers = (
{
anchors = (
{
name = bottom;
position = "{358, 0}";
},
{
name = top;
position = "{420, 460}";
},
{
name = topleft;
position = "{20, 460}";
}
);
background = {
anchors = (
{
name = bottom;
position = "{358, 0}";
},
{
name = top;
position = "{420, 460}";
},
{
name = topleft;
position = "{20, 460}";
}
);
hints = (
{
horizontal = 1;
place = "{0, 21}";
target = up;
type = BottomGhost;
},
{
place = "{245, 228}";
type = Stem;
}
);
paths = (
{
closed = 1;
nodes = (
"374 0 LINE SMOOTH",
"452 0 OFFCURVE",
"474 10 OFFCURVE",
"473 78 CURVE SMOOTH",
"472 180 LINE",
"677 431 LINE",
"707 460 LINE",
"502 460 LINE",
"420 330 LINE",
"325 460 LINE",
"7 460 LINE",
"29 435 LINE",
"245 180 LINE",
"245 0 LINE"
);
}
);
};
layerId = "C7668D88-AC50-4107-9C4B-DB5D26A8FA6C";
paths = (
{
closed = 1;
nodes = (
"374 0 LINE SMOOTH",
"452 0 OFFCURVE",
"474 10 OFFCURVE",
"473 78 CURVE SMOOTH",
"472 180 LINE",
"677 431 LINE",
"707 460 LINE",
"502 460 LINE",
"420 330 LINE",
"325 460 LINE",
"7 460 LINE",
"29 435 LINE",
"245 180 LINE",
"245 0 LINE"
);
}
);
width = 715;
},
{
anchors = (
{
name = bottom;
position = "{211, 0}";
},
{
name = top;
position = "{211, 460}";
},
{
name = topleft;
position = "{20, 460}";
}
);
background = {
anchors = (
{
name = bottom;
position = "{211, 0}";
},
{
name = top;
position = "{211, 460}";
},
{
name = topleft;
position = "{20, 460}";
}
);
paths = (
{
closed = 1;
nodes = (
"201 0 LINE SMOOTH",
"211 0 OFFCURVE",
"211 7 OFFCURVE",
"211 19 CURVE SMOOTH",
"211 190 LINE",
"366 433 LINE",
"384 460 LINE",
"365 460 LINE",
"203 209 LINE",
"46 460 LINE",
"24 460 LINE",
"40 435 LINE",
"191 190 LINE",
"191 0 LINE"
);
}
);
};
layerId = "B4E8C596-9C01-4F8A-BDA4-90320E25C0E6";
paths = (
{
closed = 1;
nodes = (
"201 0 LINE SMOOTH",
"211 0 OFFCURVE",
"211 7 OFFCURVE",
"211 19 CURVE SMOOTH",
"211 190 LINE",
"366 433 LINE",
"384 460 LINE",
"365 460 LINE",
"203 209 LINE",
"46 460 LINE",
"24 460 LINE",
"40 435 LINE",
"191 190 LINE",
"191 0 LINE"
);
}
);
width = 422;
}
);
leftKerningGroup = Y;
note = Y;
rightKerningGroup = Y;
unicode = 0059;
},
{
glyphname = Z;
lastChange = "2021-06-29 03:47:53 +0000";
layers = (
{
anchors = (
{
name = bottom;
position = "{315, 0}";
},
{
name = center;
position = "{315, 230}";
},
{
name = top;
position = "{315, 460}";
}
);
background = {
anchors = (
{
name = bottom;
position = "{315, 0}";
},
{
name = center;
position = "{315, 230}";
},
{
name = top;
position = "{315, 460}";
}
);
hints = (
{
horizontal = 1;
place = "{0, 118}";
type = Stem;
},
{
horizontal = 1;
place = "{342, 118}";
type = Stem;
},
{
place = "{10, 610}";
type = Stem;
}
);
paths = (
{
closed = 1;
nodes = (
"345 122 LINE",
"528 274 LINE SMOOTH",
"615 346 OFFCURVE",
"609 456 OFFCURVE",
"609 460 CURVE",
"93 460 LINE SMOOTH",
"20 460 OFFCURVE",
"23 433 OFFCURVE",
"23 342 CURVE",
"289 342 LINE",
"285 341 OFFCURVE",
"273 339 OFFCURVE",
"270 338 CURVE",
"200 286 OFFCURVE",
"16 125 OFFCURVE",
"10 118 CURVE",
"10 0 LINE",
"528 0 LINE SMOOTH",
"620 0 OFFCURVE",
"620 5 OFFCURVE",
"620 118 CURVE",
"326 118 LINE"
);
}
);
};
layerId = "C7668D88-AC50-4107-9C4B-DB5D26A8FA6C";
paths = (
{
closed = 1;
nodes = (
"345 122 LINE",
"528 274 LINE SMOOTH",
"615 346 OFFCURVE",
"609 456 OFFCURVE",
"609 460 CURVE",
"93 460 LINE SMOOTH",
"20 460 OFFCURVE",
"23 433 OFFCURVE",
"23 342 CURVE",
"289 342 LINE",
"285 341 OFFCURVE",
"273 339 OFFCURVE",
"270 338 CURVE",
"200 286 OFFCURVE",
"16 125 OFFCURVE",
"10 118 CURVE",
"10 0 LINE",
"528 0 LINE SMOOTH",
"620 0 OFFCURVE",
"620 5 OFFCURVE",
"620 118 CURVE",
"326 118 LINE"
);
}
);
width = 630;
},
{
anchors = (
{
name = bottom;
position = "{212, 0}";
},
{
name = center;
position = "{212, 230}";
},
{
name = top;
position = "{212, 460}";
}
);
background = {
anchors = (
{
name = bottom;
position = "{212, 0}";
},
{
name = center;
position = "{212, 230}";
},
{
name = top;
position = "{212, 460}";
}
);
paths = (
{
closed = 1;
nodes = (
"55 25 LINE",
"380 418 LINE SMOOTH",
"395 436 OFFCURVE",
"395 456 OFFCURVE",
"395 460 CURVE",
"60 460 LINE SMOOTH",
"45 460 OFFCURVE",
"45 452 OFFCURVE",
"45 443 CURVE",
"375 443 LINE",
"371 438 OFFCURVE",
"359 422 OFFCURVE",
"341 401 CURVE SMOOTH",
"252 292 OFFCURVE",
"26 21 OFFCURVE",
"26 21 CURVE",
"26 0 LINE",
"375 0 LINE SMOOTH",
"396 0 OFFCURVE",
"399 2 OFFCURVE",
"399 17 CURVE",
"48 17 LINE"
);
}
);
};
layerId = "B4E8C596-9C01-4F8A-BDA4-90320E25C0E6";
paths = (
{
closed = 1;
nodes = (
"55 25 LINE",
"380 418 LINE SMOOTH",
"395 436 OFFCURVE",
"395 456 OFFCURVE",
"395 460 CURVE",
"60 460 LINE SMOOTH",
"45 460 OFFCURVE",
"45 452 OFFCURVE",
"45 443 CURVE",
"375 443 LINE",
"371 438 OFFCURVE",
"359 422 OFFCURVE",
"341 401 CURVE SMOOTH",
"252 292 OFFCURVE",
"26 21 OFFCURVE",
"26 21 CURVE",
"26 0 LINE",
"375 0 LINE SMOOTH",
"396 0 OFFCURVE",
"399 2 OFFCURVE",
"399 17 CURVE",
"48 17 LINE"
);
}
);
width = 424;
}
);
leftKerningGroup = Z;
note = Z;
rightKerningGroup = Z;
unicode = 005A;
},
{
glyphname = A.ss01;
lastChange = "2021-06-29 03:47:53 +0000";
layers = (
{
background = {
hints = (
{
horizontal = 1;
place = "{1, 123}";
type = Stem;
},
{
horizontal = 1;
place = "{184, 94}";
type = Stem;
},
{
horizontal = 1;
place = "{332, 130}";
type = Stem;
},
{
place = "{64, 601}";
type = Stem;
},
{
place = "{64, 238}";
type = Stem;
},
{
place = "{428, 237}";
type = Stem;
}
);
paths = (
{
closed = 1;
nodes = (
"355 250 OFFCURVE",
"355 278 OFFCURVE",
"278 278 CURVE SMOOTH",
"250 278 OFFCURVE",
"177 278 OFFCURVE",
"151 278 CURVE SMOOTH",
"57 278 OFFCURVE",
"30 245 OFFCURVE",
"30 129 CURVE SMOOTH",
"30 32 OFFCURVE",
"72 6 OFFCURVE",
"140 1 CURVE SMOOTH",
"275 -9 OFFCURVE",
"598 -5 OFFCURVE",
"624 23 CURVE",
"624 23 OFFCURVE",
"625 66 OFFCURVE",
"625 248 CURVE SMOOTH",
"625 403 OFFCURVE",
"577 450 OFFCURVE",
"463 461 CURVE SMOOTH",
"383 469 OFFCURVE",
"178 471 OFFCURVE",
"111 458 CURVE SMOOTH",
"72 451 OFFCURVE",
"57 427 OFFCURVE",
"57 379 CURVE SMOOTH",
"57 335 LINE",
"138 335 OFFCURVE",
"219 335 OFFCURVE",
"300 335 CURVE SMOOTH",
"381 335 OFFCURVE",
"394 313 OFFCURVE",
"394 257 CURVE",
"394 237 OFFCURVE",
"393 192 OFFCURVE",
"393 127 CURVE",
"376 125 OFFCURVE",
"305 124 OFFCURVE",
"295 124 CURVE SMOOTH",
"278 124 OFFCURVE",
"268 137 OFFCURVE",
"268 154 CURVE SMOOTH",
"268 181 OFFCURVE",
"288 185 OFFCURVE",
"305 185 CURVE SMOOTH",
"313 185 OFFCURVE",
"334 185 OFFCURVE",
"355 185 CURVE"
);
}
);
};
layerId = "C7668D88-AC50-4107-9C4B-DB5D26A8FA6C";
paths = (
{
closed = 1;
nodes = (
"355 250 OFFCURVE",
"355 278 OFFCURVE",
"278 278 CURVE SMOOTH",
"250 278 OFFCURVE",
"177 278 OFFCURVE",
"151 278 CURVE SMOOTH",
"57 278 OFFCURVE",
"30 245 OFFCURVE",
"30 129 CURVE SMOOTH",
"30 32 OFFCURVE",
"72 6 OFFCURVE",
"140 1 CURVE SMOOTH",
"275 -9 OFFCURVE",
"598 -5 OFFCURVE",
"624 23 CURVE",
"624 23 OFFCURVE",
"625 66 OFFCURVE",
"625 248 CURVE SMOOTH",
"625 403 OFFCURVE",
"577 450 OFFCURVE",
"463 461 CURVE SMOOTH",
"383 469 OFFCURVE",
"178 471 OFFCURVE",
"111 458 CURVE SMOOTH",
"72 451 OFFCURVE",
"57 427 OFFCURVE",
"57 379 CURVE SMOOTH",
"57 335 LINE",
"138 335 OFFCURVE",
"219 335 OFFCURVE",
"300 335 CURVE SMOOTH",
"381 335 OFFCURVE",
"394 313 OFFCURVE",
"394 257 CURVE",
"394 237 OFFCURVE",
"393 192 OFFCURVE",
"393 127 CURVE",
"376 125 OFFCURVE",
"305 124 OFFCURVE",
"295 124 CURVE SMOOTH",
"278 124 OFFCURVE",
"268 137 OFFCURVE",
"268 154 CURVE SMOOTH",
"268 181 OFFCURVE",
"288 185 OFFCURVE",
"305 185 CURVE SMOOTH",
"313 185 OFFCURVE",
"334 185 OFFCURVE",
"355 185 CURVE"
);
}
);
width = 655;
},
{
background = {
hints = (
{
horizontal = 1;
place = "{-3, 25}";
type = Stem;
},
{
horizontal = 1;
place = "{0, 171}";
type = Stem;
},
{
horizontal = 1;
place = "{2, 196}";
type = Stem;
},
{
horizontal = 1;
place = "{-4, 21}";
target = up;
type = BottomGhost;
},
{
horizontal = 1;
place = "{75, 96}";
type = Stem;
},
{
horizontal = 1;
place = "{88, 110}";
type = Stem;
},
{
horizontal = 1;
place = "{368, 97}";
type = Stem;
},
{
horizontal = 1;
place = "{425, 111}";
type = Stem;
},
{
horizontal = 1;
place = "{460, -20}";
target = down;
type = TopGhost;
},
{
horizontal = 1;
place = "{508, 23}";
type = Stem;
},
{
place = "{48, 383}";
type = Stem;
},
{
place = "{49, 441}";
type = Stem;
},
{
place = "{55, 98}";
type = Stem;
},
{
place = "{57, 113}";
type = Stem;
},
{
place = "{372, 98}";
type = Stem;
},
{
place = "{422, 112}";
type = Stem;
}
);
paths = (
{
closed = 1;
nodes = (
"370 258 OFFCURVE",
"372 272 OFFCURVE",
"358 275 CURVE",
"318 281 OFFCURVE",
"253 284 OFFCURVE",
"198 284 CURVE SMOOTH",
"75 284 OFFCURVE",
"38 256 OFFCURVE",
"38 137 CURVE SMOOTH",
"38 32 OFFCURVE",
"68.94 -9.273 OFFCURVE",
"226.26 -9.273 CURVE SMOOTH",
"335.699 -9.273 OFFCURVE",
"424.619 -5.796 OFFCURVE",
"424.619 41.73 CURVE",
"424.619 79.983 OFFCURVE",
"423.479 133.305 OFFCURVE",
"423.479 287.476 CURVE SMOOTH",
"423.479 455.556 OFFCURVE",
"347.099 469.466 OFFCURVE",
"226.26 469.466 CURVE SMOOTH",
"180.66 469.466 OFFCURVE",
"128.22 463.67 OFFCURVE",
"102 456.715 CURVE SMOOTH",
"84.9 452.079 OFFCURVE",
"57.54 446.283 OFFCURVE",
"57.54 420.781 CURVE SMOOTH",
"57.54 412.667 LINE",
"76.92 441.646 OFFCURVE",
"179.52 452.079 OFFCURVE",
"230.82 452.079 CURVE SMOOTH",
"369 452 OFFCURVE",
"405 417 OFFCURVE",
"402 245 CURVE SMOOTH",
"402 235 OFFCURVE",
"403 83 OFFCURVE",
"403 48 CURVE",
"403 27 OFFCURVE",
"360 10 OFFCURVE",
"225 10 CURVE SMOOTH",
"77 10 OFFCURVE",
"58 50 OFFCURVE",
"58 138 CURVE SMOOTH",
"58 259 OFFCURVE",
"105 264 OFFCURVE",
"209 264 CURVE SMOOTH",
"270 264 OFFCURVE",
"342 260 OFFCURVE",
"370 252 CURVE"
);
}
);
};
layerId = "B4E8C596-9C01-4F8A-BDA4-90320E25C0E6";
paths = (
{
closed = 1;
nodes = (
"370 258 OFFCURVE",
"372 272 OFFCURVE",
"358 275 CURVE",
"318 281 OFFCURVE",
"253 284 OFFCURVE",
"198 284 CURVE SMOOTH",
"75 284 OFFCURVE",
"38 256 OFFCURVE",
"38 137 CURVE SMOOTH",
"38 32 OFFCURVE",
"68.94 -9.273 OFFCURVE",
"226.26 -9.273 CURVE SMOOTH",
"335.699 -9.273 OFFCURVE",
"424.619 -5.796 OFFCURVE",
"424.619 41.73 CURVE",
"424.619 79.983 OFFCURVE",
"423.479 133.305 OFFCURVE",
"423.479 287.476 CURVE SMOOTH",
"423.479 455.556 OFFCURVE",
"347.099 469.466 OFFCURVE",
"226.26 469.466 CURVE SMOOTH",
"180.66 469.466 OFFCURVE",
"128.22 463.67 OFFCURVE",
"102 456.715 CURVE SMOOTH",
"84.9 452.079 OFFCURVE",
"57.54 446.283 OFFCURVE",
"57.54 420.781 CURVE SMOOTH",
"57.54 412.667 LINE",
"76.92 441.646 OFFCURVE",
"179.52 452.079 OFFCURVE",
"230.82 452.079 CURVE SMOOTH",
"369 452 OFFCURVE",
"405 417 OFFCURVE",
"402 245 CURVE SMOOTH",
"402 235 OFFCURVE",
"403 83 OFFCURVE",
"403 48 CURVE",
"403 27 OFFCURVE",
"360 10 OFFCURVE",
"225 10 CURVE SMOOTH",
"77 10 OFFCURVE",
"58 50 OFFCURVE",
"58 138 CURVE SMOOTH",
"58 259 OFFCURVE",
"105 264 OFFCURVE",
"209 264 CURVE SMOOTH",
"270 264 OFFCURVE",
"342 260 OFFCURVE",
"370 252 CURVE"
);
}
);
width = 469;
}
);
note = A.1;
},
{
glyphname = C.ss01;
lastChange = "2021-06-29 03:47:53 +0000";
layers = (
{
background = {
paths = (
{
closed = 1;
nodes = (
"139 465 OFFCURVE",
"21 429 OFFCURVE",
"21 224 CURVE SMOOTH",
"21 12 OFFCURVE",
"113 -9 OFFCURVE",
"351 -9 CURVE SMOOTH",
"496 -9 OFFCURVE",
"650 -6 OFFCURVE",
"650 114 CURVE SMOOTH",
"650 137 OFFCURVE",
"650 159 OFFCURVE",
"650 182 CURVE",
"452 182 LINE",
"452 177 OFFCURVE",
"452 173 OFFCURVE",
"452 168 CURVE SMOOTH",
"451 154 OFFCURVE",
"450 143 OFFCURVE",
"446 133 CURVE SMOOTH",
"434 97 OFFCURVE",
"392 88 OFFCURVE",
"354 88 CURVE SMOOTH",
"298 88 OFFCURVE",
"267 109 OFFCURVE",
"258 162 CURVE SMOOTH",
"254 185 OFFCURVE",
"252 208 OFFCURVE",
"252 232 CURVE SMOOTH",
"252 264 OFFCURVE",
"256 295 OFFCURVE",
"264 322 CURVE SMOOTH",
"274 360 OFFCURVE",
"318 372 OFFCURVE",
"355 372 CURVE SMOOTH",
"406 372 OFFCURVE",
"439 358 OFFCURVE",
"447 325 CURVE SMOOTH",
"450 313 OFFCURVE",
"452 298 OFFCURVE",
"452 280 CURVE",
"645 281 LINE",
"645 296 OFFCURVE",
"645 311 OFFCURVE",
"645 326 CURVE SMOOTH",
"645 449 OFFCURVE",
"536 465 OFFCURVE",
"364 465 CURVE SMOOTH"
);
}
);
};
layerId = "C7668D88-AC50-4107-9C4B-DB5D26A8FA6C";
paths = (
{
closed = 1;
nodes = (
"139 465 OFFCURVE",
"21 429 OFFCURVE",
"21 224 CURVE SMOOTH",
"21 12 OFFCURVE",
"113 -9 OFFCURVE",
"351 -9 CURVE SMOOTH",
"496 -9 OFFCURVE",
"650 -6 OFFCURVE",
"650 114 CURVE SMOOTH",
"650 137 OFFCURVE",
"650 159 OFFCURVE",
"650 182 CURVE",
"452 182 LINE",
"452 177 OFFCURVE",
"452 173 OFFCURVE",
"452 168 CURVE SMOOTH",
"451 154 OFFCURVE",
"450 143 OFFCURVE",
"446 133 CURVE SMOOTH",
"434 97 OFFCURVE",
"392 88 OFFCURVE",
"354 88 CURVE SMOOTH",
"298 88 OFFCURVE",
"267 109 OFFCURVE",
"258 162 CURVE SMOOTH",
"254 185 OFFCURVE",
"252 208 OFFCURVE",
"252 232 CURVE SMOOTH",
"252 264 OFFCURVE",
"256 295 OFFCURVE",
"264 322 CURVE SMOOTH",
"274 360 OFFCURVE",
"318 372 OFFCURVE",
"355 372 CURVE SMOOTH",
"406 372 OFFCURVE",
"439 358 OFFCURVE",
"447 325 CURVE SMOOTH",
"450 313 OFFCURVE",
"452 298 OFFCURVE",
"452 280 CURVE",
"645 281 LINE",
"645 296 OFFCURVE",
"645 311 OFFCURVE",
"645 326 CURVE SMOOTH",
"645 449 OFFCURVE",
"536 465 OFFCURVE",
"364 465 CURVE SMOOTH"
);
}
);
width = 674;
},
{
background = {
paths = (
{
closed = 1;
nodes = (
"90 464 OFFCURVE",
"51 361 OFFCURVE",
"51 223 CURVE SMOOTH",
"51 68 OFFCURVE",
"108 -7 OFFCURVE",
"265 -7 CURVE SMOOTH",
"375 -7 OFFCURVE",
"455 12 OFFCURVE",
"460 139 CURVE SMOOTH",
"460 143 OFFCURVE",
"460 147 OFFCURVE",
"460 151 CURVE",
"440 151 LINE",
"440 145 OFFCURVE",
"440 139 OFFCURVE",
"440 133 CURVE SMOOTH",
"437 83 OFFCURVE",
"422 52 OFFCURVE",
"396 34 CURVE SMOOTH",
"366 12 OFFCURVE",
"321 7 OFFCURVE",
"264 7 CURVE SMOOTH",
"201 7 OFFCURVE",
"157 24 OFFCURVE",
"128 53 CURVE SMOOTH",
"87 92 OFFCURVE",
"74 154 OFFCURVE",
"74 224 CURVE SMOOTH",
"74 293 OFFCURVE",
"85 351 OFFCURVE",
"114 390 CURVE SMOOTH",
"143 428 OFFCURVE",
"191 450 OFFCURVE",
"264 450 CURVE SMOOTH",
"318 450 OFFCURVE",
"361 446 OFFCURVE",
"391 427 CURVE SMOOTH",
"423 407 OFFCURVE",
"440 369 OFFCURVE",
"440 302 CURVE",
"460 302 LINE",
"460 308 OFFCURVE",
"460 314 OFFCURVE",
"460 320 CURVE SMOOTH",
"453 449 OFFCURVE",
"373 464 OFFCURVE",
"265 464 CURVE SMOOTH"
);
}
);
};
layerId = "B4E8C596-9C01-4F8A-BDA4-90320E25C0E6";
paths = (
{
closed = 1;
nodes = (
"90 464 OFFCURVE",
"51 361 OFFCURVE",
"51 223 CURVE SMOOTH",
"51 68 OFFCURVE",
"108 -7 OFFCURVE",
"265 -7 CURVE SMOOTH",
"375 -7 OFFCURVE",
"455 12 OFFCURVE",
"460 139 CURVE SMOOTH",
"460 143 OFFCURVE",
"460 147 OFFCURVE",
"460 151 CURVE",
"440 151 LINE",
"440 145 OFFCURVE",
"440 139 OFFCURVE",
"440 133 CURVE SMOOTH",
"437 83 OFFCURVE",
"422 52 OFFCURVE",
"396 34 CURVE SMOOTH",
"366 12 OFFCURVE",
"321 7 OFFCURVE",
"264 7 CURVE SMOOTH",
"201 7 OFFCURVE",
"157 24 OFFCURVE",
"128 53 CURVE SMOOTH",
"87 92 OFFCURVE",
"74 154 OFFCURVE",
"74 224 CURVE SMOOTH",
"74 293 OFFCURVE",
"85 351 OFFCURVE",
"114 390 CURVE SMOOTH",
"143 428 OFFCURVE",
"191 450 OFFCURVE",
"264 450 CURVE SMOOTH",
"318 450 OFFCURVE",
"361 446 OFFCURVE",
"391 427 CURVE SMOOTH",
"423 407 OFFCURVE",
"440 369 OFFCURVE",
"440 302 CURVE",
"460 302 LINE",
"460 308 OFFCURVE",
"460 314 OFFCURVE",
"460 320 CURVE SMOOTH",
"453 449 OFFCURVE",
"373 464 OFFCURVE",
"265 464 CURVE SMOOTH"
);
}
);
width = 491;
}
);
leftKerningGroup = G;
note = C.1;
},
{
glyphname = M.ss01;
lastChange = "2021-06-29 03:47:53 +0000";
layers = (
{
background = {
paths = (
{
closed = 1;
nodes = (
"25 317 OFFCURVE",
"25 200 OFFCURVE",
"25 84 CURVE SMOOTH",
"25 25 OFFCURVE",
"25 0 OFFCURVE",
"109 0 CURVE",
"263 0 LINE",
"263 111 OFFCURVE",
"263 221 OFFCURVE",
"263 332 CURVE SMOOTH",
"263 346 OFFCURVE",
"276 348 OFFCURVE",
"292 348 CURVE SMOOTH",
"322 348 OFFCURVE",
"337 345 OFFCURVE",
"337 289 CURVE SMOOTH",
"337 193 OFFCURVE",
"337 96 OFFCURVE",
"337 0 CURVE",
"416 0 OFFCURVE",
"496 0 OFFCURVE",
"575 0 CURVE",
"575 111 OFFCURVE",
"575 223 OFFCURVE",
"575 334 CURVE SMOOTH",
"575 348 OFFCURVE",
"589 350 OFFCURVE",
"604 350 CURVE SMOOTH",
"634 350 OFFCURVE",
"649 345 OFFCURVE",
"649 284 CURVE SMOOTH",
"649 189 OFFCURVE",
"649 95 OFFCURVE",
"649 0 CURVE",
"700 0 OFFCURVE",
"752 0 OFFCURVE",
"803 0 CURVE SMOOTH",
"868 0 OFFCURVE",
"886 8 OFFCURVE",
"886 76 CURVE SMOOTH",
"886 144 OFFCURVE",
"886 213 OFFCURVE",
"886 281 CURVE SMOOTH",
"886 428 OFFCURVE",
"826 460 OFFCURVE",
"644 460 CURVE SMOOTH",
"603 460 OFFCURVE",
"518 455 OFFCURVE",
"477 394 CURVE",
"436 471 OFFCURVE",
"329 460 OFFCURVE",
"270 460 CURVE SMOOTH",
"231 460 OFFCURVE",
"86 450 OFFCURVE",
"25 433 CURVE"
);
}
);
};
layerId = "C7668D88-AC50-4107-9C4B-DB5D26A8FA6C";
paths = (
{
closed = 1;
nodes = (
"25 317 OFFCURVE",
"25 200 OFFCURVE",
"25 84 CURVE SMOOTH",
"25 25 OFFCURVE",
"25 0 OFFCURVE",
"109 0 CURVE",
"263 0 LINE",
"263 111 OFFCURVE",
"263 221 OFFCURVE",
"263 332 CURVE SMOOTH",
"263 346 OFFCURVE",
"276 348 OFFCURVE",
"292 348 CURVE SMOOTH",
"322 348 OFFCURVE",
"337 345 OFFCURVE",
"337 289 CURVE SMOOTH",
"337 193 OFFCURVE",
"337 96 OFFCURVE",
"337 0 CURVE",
"416 0 OFFCURVE",
"496 0 OFFCURVE",
"575 0 CURVE",
"575 111 OFFCURVE",
"575 223 OFFCURVE",
"575 334 CURVE SMOOTH",
"575 348 OFFCURVE",
"589 350 OFFCURVE",
"604 350 CURVE SMOOTH",
"634 350 OFFCURVE",
"649 345 OFFCURVE",
"649 284 CURVE SMOOTH",
"649 189 OFFCURVE",
"649 95 OFFCURVE",
"649 0 CURVE",
"700 0 OFFCURVE",
"752 0 OFFCURVE",
"803 0 CURVE SMOOTH",
"868 0 OFFCURVE",
"886 8 OFFCURVE",
"886 76 CURVE SMOOTH",
"886 144 OFFCURVE",
"886 213 OFFCURVE",
"886 281 CURVE SMOOTH",
"886 428 OFFCURVE",
"826 460 OFFCURVE",
"644 460 CURVE SMOOTH",
"603 460 OFFCURVE",
"518 455 OFFCURVE",
"477 394 CURVE",
"436 471 OFFCURVE",
"329 460 OFFCURVE",
"270 460 CURVE SMOOTH",
"231 460 OFFCURVE",
"86 450 OFFCURVE",
"25 433 CURVE"
);
}
);
width = 911;
},
{
background = {
paths = (
{
closed = 1;
nodes = (
"40 289 OFFCURVE",
"40 152 OFFCURVE",
"40 15 CURVE SMOOTH",
"40 1 OFFCURVE",
"45 0 OFFCURVE",
"55 0 CURVE SMOOTH",
"61 0 LINE",
"61 135 OFFCURVE",
"61 270 OFFCURVE",
"61 405 CURVE",
"66 435 OFFCURVE",
"136 450 OFFCURVE",
"202 450 CURVE SMOOTH",
"268 450 OFFCURVE",
"324 417 OFFCURVE",
"324 390 CURVE",
"324 260 OFFCURVE",
"323 130 OFFCURVE",
"323 0 CURVE",
"331 0 OFFCURVE",
"338 0 OFFCURVE",
"346 0 CURVE",
"346 129 OFFCURVE",
"345 259 OFFCURVE",
"345 388 CURVE",
"345 427 OFFCURVE",
"432 450 OFFCURVE",
"487 450 CURVE SMOOTH",
"567 450 OFFCURVE",
"608 422 OFFCURVE",
"608 348 CURVE SMOOTH",
"608 232 OFFCURVE",
"608 116 OFFCURVE",
"608 0 CURVE",
"609 0 OFFCURVE",
"610 0 OFFCURVE",
"612 0 CURVE SMOOTH",
"619 0 OFFCURVE",
"629 2 OFFCURVE",
"629 15 CURVE SMOOTH",
"629 126 OFFCURVE",
"629 237 OFFCURVE",
"629 348 CURVE SMOOTH",
"629 429 OFFCURVE",
"595 467 OFFCURVE",
"486 467 CURVE SMOOTH",
"430 467 OFFCURVE",
"365 446 OFFCURVE",
"337 422 CURVE",
"312 446 OFFCURVE",
"262 466 OFFCURVE",
"204 466 CURVE SMOOTH",
"88 466 OFFCURVE",
"51 433 OFFCURVE",
"40 426 CURVE"
);
}
);
};
layerId = "B4E8C596-9C01-4F8A-BDA4-90320E25C0E6";
paths = (
{
closed = 1;
nodes = (
"40 289 OFFCURVE",
"40 152 OFFCURVE",
"40 15 CURVE SMOOTH",
"40 1 OFFCURVE",
"45 0 OFFCURVE",
"55 0 CURVE SMOOTH",
"61 0 LINE",
"61 135 OFFCURVE",
"61 270 OFFCURVE",
"61 405 CURVE",
"66 435 OFFCURVE",
"136 450 OFFCURVE",
"202 450 CURVE SMOOTH",
"268 450 OFFCURVE",
"324 417 OFFCURVE",
"324 390 CURVE",
"324 260 OFFCURVE",
"323 130 OFFCURVE",
"323 0 CURVE",
"331 0 OFFCURVE",
"338 0 OFFCURVE",
"346 0 CURVE",
"346 129 OFFCURVE",
"345 259 OFFCURVE",
"345 388 CURVE",
"345 427 OFFCURVE",
"432 450 OFFCURVE",
"487 450 CURVE SMOOTH",
"567 450 OFFCURVE",
"608 422 OFFCURVE",
"608 348 CURVE SMOOTH",
"608 232 OFFCURVE",
"608 116 OFFCURVE",
"608 0 CURVE",
"609 0 OFFCURVE",
"610 0 OFFCURVE",
"612 0 CURVE SMOOTH",
"619 0 OFFCURVE",
"629 2 OFFCURVE",
"629 15 CURVE SMOOTH",
"629 126 OFFCURVE",
"629 237 OFFCURVE",
"629 348 CURVE SMOOTH",
"629 429 OFFCURVE",
"595 467 OFFCURVE",
"486 467 CURVE SMOOTH",
"430 467 OFFCURVE",
"365 446 OFFCURVE",
"337 422 CURVE",
"312 446 OFFCURVE",
"262 466 OFFCURVE",
"204 466 CURVE SMOOTH",
"88 466 OFFCURVE",
"51 433 OFFCURVE",
"40 426 CURVE"
);
}
);
width = 669;
}
);
leftKerningGroup = E;
note = M.1;
},
{
glyphname = N.ss01;
lastChange = "2021-06-29 03:47:53 +0000";
layers = (
{
background = {
paths = (
{
closed = 1;
nodes = (
"302 108 OFFCURVE",
"302 215 OFFCURVE",
"302 323 CURVE",
"318 331 OFFCURVE",
"336 337 OFFCURVE",
"353 337 CURVE SMOOTH",
"380 337 OFFCURVE",
"403 323 OFFCURVE",
"403 281 CURVE SMOOTH",
"403 194 OFFCURVE",
"403 108 OFFCURVE",
"403 21 CURVE",
"403 14 OFFCURVE",
"403 7 OFFCURVE",
"403 0 CURVE",
"405 0 OFFCURVE",
"544 -1 OFFCURVE",
"552 -1 CURVE SMOOTH",
"635 -1 OFFCURVE",
"640 17 OFFCURVE",
"640 86 CURVE SMOOTH",
"640 132 OFFCURVE",
"640 177 OFFCURVE",
"640 223 CURVE SMOOTH",
"640 411 OFFCURVE",
"624 462 OFFCURVE",
"350 462 CURVE SMOOTH",
"227 462 OFFCURVE",
"112 448 OFFCURVE",
"64 435 CURVE",
"64 318 OFFCURVE",
"64 201 OFFCURVE",
"64 84 CURVE SMOOTH",
"64 29 OFFCURVE",
"69 -1 OFFCURVE",
"121 -1 CURVE SMOOTH",
"133 -1 OFFCURVE",
"297 0 OFFCURVE",
"302 0 CURVE"
);
}
);
};
layerId = "C7668D88-AC50-4107-9C4B-DB5D26A8FA6C";
paths = (
{
closed = 1;
nodes = (
"302 108 OFFCURVE",
"302 215 OFFCURVE",
"302 323 CURVE",
"318 331 OFFCURVE",
"336 337 OFFCURVE",
"353 337 CURVE SMOOTH",
"380 337 OFFCURVE",
"403 323 OFFCURVE",
"403 281 CURVE SMOOTH",
"403 194 OFFCURVE",
"403 108 OFFCURVE",
"403 21 CURVE",
"403 14 OFFCURVE",
"403 7 OFFCURVE",
"403 0 CURVE",
"405 0 OFFCURVE",
"544 -1 OFFCURVE",
"552 -1 CURVE SMOOTH",
"635 -1 OFFCURVE",
"640 17 OFFCURVE",
"640 86 CURVE SMOOTH",
"640 132 OFFCURVE",
"640 177 OFFCURVE",
"640 223 CURVE SMOOTH",
"640 411 OFFCURVE",
"624 462 OFFCURVE",
"350 462 CURVE SMOOTH",
"227 462 OFFCURVE",
"112 448 OFFCURVE",
"64 435 CURVE",
"64 318 OFFCURVE",
"64 201 OFFCURVE",
"64 84 CURVE SMOOTH",
"64 29 OFFCURVE",
"69 -1 OFFCURVE",
"121 -1 CURVE SMOOTH",
"133 -1 OFFCURVE",
"297 0 OFFCURVE",
"302 0 CURVE"
);
}
);
width = 698;
},
{
background = {
paths = (
{
closed = 1;
nodes = (
"63 131 OFFCURVE",
"63 263 OFFCURVE",
"63 394 CURVE",
"68 424 OFFCURVE",
"146 438 OFFCURVE",
"230 438 CURVE SMOOTH",
"328 438 OFFCURVE",
"379 407 OFFCURVE",
"379 334 CURVE SMOOTH",
"379 235 OFFCURVE",
"379 137 OFFCURVE",
"379 38 CURVE SMOOTH",
"379 34 OFFCURVE",
"379 11 OFFCURVE",
"378 0 CURVE",
"379 0 OFFCURVE",
"381 0 OFFCURVE",
"383 0 CURVE SMOOTH",
"390 0 OFFCURVE",
"399 4 OFFCURVE",
"399 15 CURVE SMOOTH",
"399 121 OFFCURVE",
"399 228 OFFCURVE",
"399 334 CURVE SMOOTH",
"399 413 OFFCURVE",
"368 454 OFFCURVE",
"233 454 CURVE SMOOTH",
"86 454 OFFCURVE",
"54 421 OFFCURVE",
"42 414 CURVE",
"42 281 OFFCURVE",
"42 148 OFFCURVE",
"42 15 CURVE SMOOTH",
"42 1 OFFCURVE",
"48 0 OFFCURVE",
"57 0 CURVE SMOOTH",
"59 0 OFFCURVE",
"61 0 OFFCURVE",
"63 0 CURVE"
);
}
);
};
layerId = "B4E8C596-9C01-4F8A-BDA4-90320E25C0E6";
paths = (
{
closed = 1;
nodes = (
"63 131 OFFCURVE",
"63 263 OFFCURVE",
"63 394 CURVE",
"68 424 OFFCURVE",
"146 438 OFFCURVE",
"230 438 CURVE SMOOTH",
"328 438 OFFCURVE",
"379 407 OFFCURVE",
"379 334 CURVE SMOOTH",
"379 235 OFFCURVE",
"379 137 OFFCURVE",
"379 38 CURVE SMOOTH",
"379 34 OFFCURVE",
"379 11 OFFCURVE",
"378 0 CURVE",
"379 0 OFFCURVE",
"381 0 OFFCURVE",
"383 0 CURVE SMOOTH",
"390 0 OFFCURVE",
"399 4 OFFCURVE",
"399 15 CURVE SMOOTH",
"399 121 OFFCURVE",
"399 228 OFFCURVE",
"399 334 CURVE SMOOTH",
"399 413 OFFCURVE",
"368 454 OFFCURVE",
"233 454 CURVE SMOOTH",
"86 454 OFFCURVE",
"54 421 OFFCURVE",
"42 414 CURVE",
"42 281 OFFCURVE",
"42 148 OFFCURVE",
"42 15 CURVE SMOOTH",
"42 1 OFFCURVE",
"48 0 OFFCURVE",
"57 0 CURVE SMOOTH",
"59 0 OFFCURVE",
"61 0 OFFCURVE",
"63 0 CURVE"
);
}
);
width = 460;
}
);
leftKerningGroup = E;
note = N.1;
},
{
glyphname = S.ss01;
lastChange = "2021-06-29 03:47:53 +0000";
layers = (
{
background = {
hints = (
{
horizontal = 1;
place = "{-1, 150}";
type = Stem;
},
{
horizontal = 1;
place = "{150, 152}";
type = Stem;
},
{
horizontal = 1;
place = "{308, 152}";
type = Stem;
},
{
place = "{23, 226}";
type = Stem;
},
{
place = "{420, 229}";
type = Stem;
}
);
paths = (
{
closed = 1;
nodes = (
"47 -26 OFFCURVE",
"137 -5 OFFCURVE",
"342 -5 CURVE SMOOTH",
"539 -5 OFFCURVE",
"651 2 OFFCURVE",
"651 159 CURVE SMOOTH",
"651 278 OFFCURVE",
"581 294 OFFCURVE",
"478 294 CURVE SMOOTH",
"473 294 OFFCURVE",
"393 294 OFFCURVE",
"290 294 CURVE SMOOTH",
"263 294 OFFCURVE",
"263 309 OFFCURVE",
"263 319 CURVE SMOOTH",
"263 330 OFFCURVE",
"261 343 OFFCURVE",
"331 343 CURVE SMOOTH",
"348 343 OFFCURVE",
"362 343 OFFCURVE",
"387 343 CURVE SMOOTH",
"420 343 OFFCURVE",
"429 333 OFFCURVE",
"429 322 CURVE SMOOTH",
"429 322 OFFCURVE",
"429 316 OFFCURVE",
"429 316 CURVE",
"468 316 OFFCURVE",
"620 316 OFFCURVE",
"640 316 CURVE",
"640 325 OFFCURVE",
"640 356 OFFCURVE",
"640 374 CURVE",
"640 395 OFFCURVE",
"614 426 OFFCURVE",
"606 431 CURVE SMOOTH",
"549 464 OFFCURVE",
"485 464 OFFCURVE",
"357 464 CURVE SMOOTH",
"153 464 OFFCURVE",
"57 452 OFFCURVE",
"57 301 CURVE SMOOTH",
"57 173 OFFCURVE",
"124 170 OFFCURVE",
"244 170 CURVE SMOOTH",
"346 170 OFFCURVE",
"368 170 OFFCURVE",
"387 170 CURVE SMOOTH",
"413 170 OFFCURVE",
"424 162 OFFCURVE",
"424 148 CURVE SMOOTH",
"424 130 OFFCURVE",
"411 119 OFFCURVE",
"339 119 CURVE SMOOTH",
"265 119 OFFCURVE",
"252 128 OFFCURVE",
"252 147 CURVE",
"184 147 OFFCURVE",
"115 145 OFFCURVE",
"47 145 CURVE"
);
}
);
};
layerId = "C7668D88-AC50-4107-9C4B-DB5D26A8FA6C";
paths = (
{
closed = 1;
nodes = (
"47 -26 OFFCURVE",
"137 -5 OFFCURVE",
"342 -5 CURVE SMOOTH",
"539 -5 OFFCURVE",
"651 2 OFFCURVE",
"651 159 CURVE SMOOTH",
"651 278 OFFCURVE",
"581 294 OFFCURVE",
"478 294 CURVE SMOOTH",
"473 294 OFFCURVE",
"393 294 OFFCURVE",
"290 294 CURVE SMOOTH",
"263 294 OFFCURVE",
"263 309 OFFCURVE",
"263 319 CURVE SMOOTH",
"263 330 OFFCURVE",
"261 343 OFFCURVE",
"331 343 CURVE SMOOTH",
"348 343 OFFCURVE",
"362 343 OFFCURVE",
"387 343 CURVE SMOOTH",
"420 343 OFFCURVE",
"429 333 OFFCURVE",
"429 322 CURVE SMOOTH",
"429 322 OFFCURVE",
"429 316 OFFCURVE",
"429 316 CURVE",
"468 316 OFFCURVE",
"620 316 OFFCURVE",
"640 316 CURVE",
"640 325 OFFCURVE",
"640 356 OFFCURVE",
"640 374 CURVE",
"640 395 OFFCURVE",
"614 426 OFFCURVE",
"606 431 CURVE SMOOTH",
"549 464 OFFCURVE",
"485 464 OFFCURVE",
"357 464 CURVE SMOOTH",
"153 464 OFFCURVE",
"57 452 OFFCURVE",
"57 301 CURVE SMOOTH",
"57 173 OFFCURVE",
"124 170 OFFCURVE",
"244 170 CURVE SMOOTH",
"346 170 OFFCURVE",
"368 170 OFFCURVE",
"387 170 CURVE SMOOTH",
"413 170 OFFCURVE",
"424 162 OFFCURVE",
"424 148 CURVE SMOOTH",
"424 130 OFFCURVE",
"411 119 OFFCURVE",
"339 119 CURVE SMOOTH",
"265 119 OFFCURVE",
"252 128 OFFCURVE",
"252 147 CURVE",
"184 147 OFFCURVE",
"115 145 OFFCURVE",
"47 145 CURVE"
);
}
);
width = 688;
},
{
background = {
hints = (
{
horizontal = 1;
place = "{-1, 94}";
type = Stem;
},
{
horizontal = 1;
place = "{177, 97}";
type = Stem;
},
{
horizontal = 1;
place = "{363, 97}";
type = Stem;
},
{
place = "{35, 99}";
type = Stem;
},
{
place = "{330, 100}";
type = Stem;
}
);
paths = (
{
closed = 1;
nodes = (
"56 13 OFFCURVE",
"110 -4 OFFCURVE",
"242 -5 CURVE SMOOTH",
"392 -6 OFFCURVE",
"449 28 OFFCURVE",
"449 132 CURVE SMOOTH",
"449 236 OFFCURVE",
"388 246 OFFCURVE",
"307 246 CURVE SMOOTH",
"273 246 OFFCURVE",
"243 246 OFFCURVE",
"209 246 CURVE SMOOTH",
"132 246 OFFCURVE",
"77 253 OFFCURVE",
"77 334 CURVE SMOOTH",
"77 437 OFFCURVE",
"182 449 OFFCURVE",
"255 449 CURVE SMOOTH",
"311 449 OFFCURVE",
"348 443 OFFCURVE",
"372 432 CURVE SMOOTH",
"409 415 OFFCURVE",
"417 385 OFFCURVE",
"419 346 CURVE SMOOTH",
"419 340 OFFCURVE",
"419 333 OFFCURVE",
"419 326 CURVE",
"425 326 OFFCURVE",
"431 326 OFFCURVE",
"439 326 CURVE",
"439 333 OFFCURVE",
"439 341 OFFCURVE",
"439 345 CURVE SMOOTH",
"439 399 OFFCURVE",
"422 425 OFFCURVE",
"389 444 CURVE SMOOTH",
"373 453 OFFCURVE",
"332 464 OFFCURVE",
"259 464 CURVE SMOOTH",
"162 464 OFFCURVE",
"58 455 OFFCURVE",
"58 334 CURVE SMOOTH",
"58 231 OFFCURVE",
"140 228 OFFCURVE",
"210 228 CURVE SMOOTH",
"245 228 OFFCURVE",
"278 228 OFFCURVE",
"313 228 CURVE SMOOTH",
"387 228 OFFCURVE",
"429 215 OFFCURVE",
"429 135 CURVE SMOOTH",
"429 37 OFFCURVE",
"359 12 OFFCURVE",
"252 12 CURVE SMOOTH",
"152 12 OFFCURVE",
"76 20 OFFCURVE",
"76 133 CURVE",
"69 133 OFFCURVE",
"63 133 OFFCURVE",
"56 133 CURVE"
);
}
);
};
layerId = "B4E8C596-9C01-4F8A-BDA4-90320E25C0E6";
paths = (
{
closed = 1;
nodes = (
"56 13 OFFCURVE",
"110 -4 OFFCURVE",
"242 -5 CURVE SMOOTH",
"392 -6 OFFCURVE",
"449 28 OFFCURVE",
"449 132 CURVE SMOOTH",
"449 236 OFFCURVE",
"388 246 OFFCURVE",
"307 246 CURVE SMOOTH",
"273 246 OFFCURVE",
"243 246 OFFCURVE",
"209 246 CURVE SMOOTH",
"132 246 OFFCURVE",
"77 253 OFFCURVE",
"77 334 CURVE SMOOTH",
"77 437 OFFCURVE",
"182 449 OFFCURVE",
"255 449 CURVE SMOOTH",
"311 449 OFFCURVE",
"348 443 OFFCURVE",
"372 432 CURVE SMOOTH",
"409 415 OFFCURVE",
"417 385 OFFCURVE",
"419 346 CURVE SMOOTH",
"419 340 OFFCURVE",
"419 333 OFFCURVE",
"419 326 CURVE",
"425 326 OFFCURVE",
"431 326 OFFCURVE",
"439 326 CURVE",
"439 333 OFFCURVE",
"439 341 OFFCURVE",
"439 345 CURVE SMOOTH",
"439 399 OFFCURVE",
"422 425 OFFCURVE",
"389 444 CURVE SMOOTH",
"373 453 OFFCURVE",
"332 464 OFFCURVE",
"259 464 CURVE SMOOTH",
"162 464 OFFCURVE",
"58 455 OFFCURVE",
"58 334 CURVE SMOOTH",
"58 231 OFFCURVE",
"140 228 OFFCURVE",
"210 228 CURVE SMOOTH",
"245 228 OFFCURVE",
"278 228 OFFCURVE",
"313 228 CURVE SMOOTH",
"387 228 OFFCURVE",
"429 215 OFFCURVE",
"429 135 CURVE SMOOTH",
"429 37 OFFCURVE",
"359 12 OFFCURVE",
"252 12 CURVE SMOOTH",
"152 12 OFFCURVE",
"76 20 OFFCURVE",
"76 133 CURVE",
"69 133 OFFCURVE",
"63 133 OFFCURVE",
"56 133 CURVE"
);
}
);
width = 493;
}
);
note = S.1;
},
{
glyphname = A.ss02;
lastChange = "2021-07-01 18:36:31 +0000";
layers = (
{
background = {
hints = (
{
horizontal = 1;
place = "{64, 151}";
type = Stem;
},
{
horizontal = 1;
place = "{460, -20}";
target = down;
type = TopGhost;
},
{
place = "{26, 685}";
type = Stem;
},
{
horizontal = 1;
place = "{0, 215}";
type = Stem;
}
);
paths = (
{
closed = 1;
nodes = (
"277 169 OFFCURVE",
"259 136 OFFCURVE",
"259 87 CURVE",
"397 86 LINE",
"440 0 LINE",
"687 0 LINE",
"510 374 LINE SMOOTH",
"482 434 OFFCURVE",
"427 464 OFFCURVE",
"345 464 CURVE SMOOTH",
"250 464 OFFCURVE",
"210 430 OFFCURVE",
"183 374 CURVE SMOOTH",
"4 0 LINE",
"179 0 LINE",
"302 265 LINE SMOOTH",
"302 265 OFFCURVE",
"306 268 OFFCURVE",
"306 274 CURVE",
"306 268 OFFCURVE",
"327 228 OFFCURVE",
"340 201 CURVE SMOOTH",
"355 169 LINE",
"355 169 OFFCURVE",
"324 169 OFFCURVE",
"315 169 CURVE SMOOTH"
);
}
);
};
layerId = "C7668D88-AC50-4107-9C4B-DB5D26A8FA6C";
paths = (
{
closed = 1;
nodes = (
"277 169 OFFCURVE",
"259 136 OFFCURVE",
"259 87 CURVE",
"397 86 LINE",
"440 0 LINE",
"687 0 LINE",
"510 374 LINE SMOOTH",
"482 434 OFFCURVE",
"427 464 OFFCURVE",
"345 464 CURVE SMOOTH",
"250 464 OFFCURVE",
"210 430 OFFCURVE",
"183 374 CURVE SMOOTH",
"4 0 LINE",
"179 0 LINE",
"302 265 LINE SMOOTH",
"302 265 OFFCURVE",
"306 268 OFFCURVE",
"306 274 CURVE",
"306 268 OFFCURVE",
"327 228 OFFCURVE",
"340 201 CURVE SMOOTH",
"355 169 LINE",
"355 169 OFFCURVE",
"324 169 OFFCURVE",
"315 169 CURVE SMOOTH"
);
}
);
width = 692;
},
{
background = {
paths = (
{
closed = 1;
nodes = (
"120 159 OFFCURVE",
"117 155 OFFCURVE",
"117 142 CURVE",
"341 142 LINE",
"384 0 LINE",
"404 0 LINE",
"283 401 LINE SMOOTH",
"269 446 OFFCURVE",
"257 465 OFFCURVE",
"202 465 CURVE SMOOTH",
"147 465 OFFCURVE",
"132 442 OFFCURVE",
"120 401 CURVE SMOOTH",
"4 0 LINE",
"21 0 LINE",
"137 401 LINE SMOOTH",
"144 425 OFFCURVE",
"152 450 OFFCURVE",
"202 450 CURVE SMOOTH",
"246 450 OFFCURVE",
"255 426 OFFCURVE",
"263 401 CURVE SMOOTH",
"336 159 LINE",
"336 159 OFFCURVE",
"142 159 OFFCURVE",
"137 159 CURVE SMOOTH"
);
}
);
};
layerId = "B4E8C596-9C01-4F8A-BDA4-90320E25C0E6";
paths = (
{
closed = 1;
nodes = (
"120 159 OFFCURVE",
"117 155 OFFCURVE",
"117 142 CURVE",
"341 142 LINE",
"384 0 LINE",
"404 0 LINE",
"283 401 LINE SMOOTH",
"269 446 OFFCURVE",
"257 465 OFFCURVE",
"202 465 CURVE SMOOTH",
"147 465 OFFCURVE",
"132 442 OFFCURVE",
"120 401 CURVE SMOOTH",
"4 0 LINE",
"21 0 LINE",
"137 401 LINE SMOOTH",
"144 425 OFFCURVE",
"152 450 OFFCURVE",
"202 450 CURVE SMOOTH",
"246 450 OFFCURVE",
"255 426 OFFCURVE",
"263 401 CURVE SMOOTH",
"336 159 LINE",
"336 159 OFFCURVE",
"142 159 OFFCURVE",
"137 159 CURVE SMOOTH"
);
}
);
width = 417;
}
);
note = A.2;
},
{
glyphname = a;
lastChange = "2021-08-11 03:32:22 +0000";
layers = (
{
anchors = (
{
name = bottom;
position = "{291, 0}";
},
{
name = ogonek;
position = "{524, 10}";
},
{
name = top;
position = "{291, 399}";
}
);
background = {
anchors = (
{
name = bottom;
position = "{291, 0}";
},
{
name = ogonek;
position = "{524, 10}";
},
{
name = top;
position = "{291, 399}";
}
);
paths = (
{
closed = 1;
nodes = (
"550 20 OFFCURVE",
"551 57 OFFCURVE",
"551 214 CURVE SMOOTH",
"551 348 OFFCURVE",
"509 388 OFFCURVE",
"409 398 CURVE SMOOTH",
"339 405 OFFCURVE",
"159 406 OFFCURVE",
"100 395 CURVE SMOOTH",
"66 389 OFFCURVE",
"53 368 OFFCURVE",
"53 327 CURVE SMOOTH",
"53 289 LINE",
"124 289 OFFCURVE",
"195 289 OFFCURVE",
"266 289 CURVE SMOOTH",
"337 289 OFFCURVE",
"356 279 OFFCURVE",
"351 230 CURVE",
"326 239 OFFCURVE",
"195 238 OFFCURVE",
"126 238 CURVE SMOOTH",
"44 238 OFFCURVE",
"29 204 OFFCURVE",
"29 111 CURVE SMOOTH",
"30 28 OFFCURVE",
"66 5 OFFCURVE",
"125 1 CURVE SMOOTH",
"244 -8 OFFCURVE",
"527 -4 OFFCURVE",
"550 20 CURVE"
);
},
{
closed = 1;
nodes = (
"243 79 OFFCURVE",
"235 84 OFFCURVE",
"235 129 CURVE SMOOTH",
"235 174 OFFCURVE",
"243 175 OFFCURVE",
"258 175 CURVE SMOOTH",
"269 175 OFFCURVE",
"339 174 OFFCURVE",
"345 170 CURVE",
"345 166 OFFCURVE",
"345 106 OFFCURVE",
"344 84 CURVE",
"338 80 OFFCURVE",
"267 79 OFFCURVE",
"258 79 CURVE SMOOTH"
);
}
);
};
layerId = "C7668D88-AC50-4107-9C4B-DB5D26A8FA6C";
paths = (
{
closed = 1;
nodes = (
"550 20 OFFCURVE",
"551 57 OFFCURVE",
"551 214 CURVE SMOOTH",
"551 348 OFFCURVE",
"509 388 OFFCURVE",
"409 398 CURVE SMOOTH",
"339 405 OFFCURVE",
"159 406 OFFCURVE",
"100 395 CURVE SMOOTH",
"66 389 OFFCURVE",
"53 368 OFFCURVE",
"53 327 CURVE SMOOTH",
"53 289 LINE",
"124 289 OFFCURVE",
"195 289 OFFCURVE",
"266 289 CURVE SMOOTH",
"337 289 OFFCURVE",
"356 279 OFFCURVE",
"351 230 CURVE",
"326 239 OFFCURVE",
"195 238 OFFCURVE",
"126 238 CURVE SMOOTH",
"44 238 OFFCURVE",
"29 204 OFFCURVE",
"29 111 CURVE SMOOTH",
"30 28 OFFCURVE",
"66 5 OFFCURVE",
"125 1 CURVE SMOOTH",
"244 -8 OFFCURVE",
"527 -4 OFFCURVE",
"550 20 CURVE"
);
},
{
closed = 1;
nodes = (
"243 79 OFFCURVE",
"235 84 OFFCURVE",
"235 129 CURVE SMOOTH",
"235 174 OFFCURVE",
"243 175 OFFCURVE",
"258 175 CURVE SMOOTH",
"269 175 OFFCURVE",
"339 174 OFFCURVE",
"345 170 CURVE",
"345 166 OFFCURVE",
"345 106 OFFCURVE",
"344 84 CURVE",
"338 80 OFFCURVE",
"267 79 OFFCURVE",
"258 79 CURVE SMOOTH"
);
}
);
width = 579;
},
{
anchors = (
{
name = bottom;
position = "{209, 0}";
},
{
name = ogonek;
position = "{360, 10}";
},
{
name = top;
position = "{209, 399}";
}
);
background = {
anchors = (
{
name = bottom;
position = "{209, 0}";
},
{
name = ogonek;
position = "{360, 10}";
},
{
name = top;
position = "{209, 399}";
}
);
hints = (
{
horizontal = 1;
place = "{-4, 21}";
target = up;
type = BottomGhost;
},
{
horizontal = 1;
place = "{75, 96}";
type = Stem;
},
{
horizontal = 1;
place = "{460, -20}";
target = down;
type = TopGhost;
},
{
place = "{48, 383}";
type = Stem;
},
{
place = "{55, 98}";
type = Stem;
},
{
place = "{372, 98}";
type = Stem;
},
{
horizontal = 1;
place = "{0, 171}";
type = Stem;
},
{
horizontal = 1;
place = "{368, 97}";
type = Stem;
}
);
paths = (
{
closed = 1;
nodes = (
"380 69 OFFCURVE",
"379 115 OFFCURVE",
"379 248 CURVE SMOOTH",
"379 393 OFFCURVE",
"312 405 OFFCURVE",
"206 405 CURVE SMOOTH",
"166 405 OFFCURVE",
"120 400 OFFCURVE",
"97 394 CURVE SMOOTH",
"82 390 OFFCURVE",
"58 385 OFFCURVE",
"58 363 CURVE SMOOTH",
"58 356 LINE",
"75 381 OFFCURVE",
"165 390 OFFCURVE",
"210 390 CURVE SMOOTH",
"304 390 OFFCURVE",
"363 379 OFFCURVE",
"360 229 CURVE",
"345 235 OFFCURVE",
"256 243 OFFCURVE",
"189 243 CURVE SMOOTH",
"75 243 OFFCURVE",
"39 219 OFFCURVE",
"39 118 CURVE SMOOTH",
"39 28 OFFCURVE",
"68 -8 OFFCURVE",
"206 -8 CURVE SMOOTH",
"302 -8 OFFCURVE",
"380 -5 OFFCURVE",
"380 36 CURVE"
);
},
{
closed = 1;
nodes = (
"75 6 OFFCURVE",
"58 43 OFFCURVE",
"58 119 CURVE SMOOTH",
"58 222 OFFCURVE",
"100 228 OFFCURVE",
"210 228 CURVE SMOOTH",
"258 228 OFFCURVE",
"345 218 OFFCURVE",
"360 211 CURVE",
"360 203 OFFCURVE",
"361 69 OFFCURVE",
"361 39 CURVE",
"361 21 OFFCURVE",
"323 6 OFFCURVE",
"205 6 CURVE SMOOTH"
);
}
);
};
layerId = "B4E8C596-9C01-4F8A-BDA4-90320E25C0E6";
paths = (
{
closed = 1;
nodes = (
"380 69 OFFCURVE",
"379 115 OFFCURVE",
"379 248 CURVE SMOOTH",
"379 393 OFFCURVE",
"312 405 OFFCURVE",
"206 405 CURVE SMOOTH",
"166 405 OFFCURVE",
"120 400 OFFCURVE",
"97 394 CURVE SMOOTH",
"82 390 OFFCURVE",
"58 385 OFFCURVE",
"58 363 CURVE SMOOTH",
"58 356 LINE",
"75 381 OFFCURVE",
"165 390 OFFCURVE",
"210 390 CURVE SMOOTH",
"304 390 OFFCURVE",
"363 379 OFFCURVE",
"360 229 CURVE",
"345 235 OFFCURVE",
"256 243 OFFCURVE",
"189 243 CURVE SMOOTH",
"75 243 OFFCURVE",
"39 219 OFFCURVE",
"39 118 CURVE SMOOTH",
"39 28 OFFCURVE",
"68 -8 OFFCURVE",
"206 -8 CURVE SMOOTH",
"302 -8 OFFCURVE",
"380 -5 OFFCURVE",
"380 36 CURVE"
);
},
{
closed = 1;
nodes = (
"75 6 OFFCURVE",
"58 43 OFFCURVE",
"58 119 CURVE SMOOTH",
"58 222 OFFCURVE",
"100 228 OFFCURVE",
"210 228 CURVE SMOOTH",
"258 228 OFFCURVE",
"345 218 OFFCURVE",
"360 211 CURVE",
"360 203 OFFCURVE",
"361 69 OFFCURVE",
"361 39 CURVE",
"361 21 OFFCURVE",
"323 6 OFFCURVE",
"205 6 CURVE SMOOTH"
);
}
);
width = 445;
}
);
leftKerningGroup = a;
note = a;
rightKerningGroup = n;
rightMetricsKey = n;
unicode = 0061;
},
{
glyphname = b;
lastChange = "2021-07-01 18:38:34 +0000";
layers = (
{
anchors = (
{
name = bottom;
position = "{287, 0}";
},
{
name = top;
position = "{287, 960}";
}
);
background = {
anchors = (
{
name = bottom;
position = "{287, 0}";
},
{
name = top;
position = "{287, 960}";
}
);
paths = (
{
closed = 1;
nodes = (
"29 193 LINE SMOOTH",
"29 47 OFFCURVE",
"50 -5 OFFCURVE",
"280 -5 CURVE SMOOTH",
"478 -5 OFFCURVE",
"546 3 OFFCURVE",
"546 181 CURVE SMOOTH",
"546 197 OFFCURVE",
"546 212 OFFCURVE",
"546 228 CURVE SMOOTH",
"546 402 OFFCURVE",
"449 400 OFFCURVE",
"306 400 CURVE SMOOTH",
"289 400 OFFCURVE",
"282 401 OFFCURVE",
"236 398 CURVE",
"236 434 OFFCURVE",
"236 469 OFFCURVE",
"236 505 CURVE",
"167 505 OFFCURVE",
"97 505 OFFCURVE",
"28 505 CURVE"
);
},
{
closed = 1;
nodes = (
"254 102 OFFCURVE",
"236 103 OFFCURVE",
"236 165 CURVE SMOOTH",
"236 291 LINE",
"249 291 OFFCURVE",
"262 291 OFFCURVE",
"275 291 CURVE SMOOTH",
"320 291 OFFCURVE",
"339 291 OFFCURVE",
"339 237 CURVE SMOOTH",
"339 211 OFFCURVE",
"339 184 OFFCURVE",
"339 158 CURVE SMOOTH",
"337 115 OFFCURVE",
"325 102 OFFCURVE",
"286 102 CURVE SMOOTH"
);
}
);
};
layerId = "C7668D88-AC50-4107-9C4B-DB5D26A8FA6C";
paths = (
{
closed = 1;
nodes = (
"29 193 LINE SMOOTH",
"29 47 OFFCURVE",
"50 -5 OFFCURVE",
"280 -5 CURVE SMOOTH",
"478 -5 OFFCURVE",
"546 3 OFFCURVE",
"546 181 CURVE SMOOTH",
"546 197 OFFCURVE",
"546 212 OFFCURVE",
"546 228 CURVE SMOOTH",
"546 402 OFFCURVE",
"449 400 OFFCURVE",
"306 400 CURVE SMOOTH",
"289 400 OFFCURVE",
"282 401 OFFCURVE",
"236 398 CURVE",
"236 434 OFFCURVE",
"236 469 OFFCURVE",
"236 505 CURVE",
"167 505 OFFCURVE",
"97 505 OFFCURVE",
"28 505 CURVE"
);
},
{
closed = 1;
nodes = (
"254 102 OFFCURVE",
"236 103 OFFCURVE",
"236 165 CURVE SMOOTH",
"236 291 LINE",
"249 291 OFFCURVE",
"262 291 OFFCURVE",
"275 291 CURVE SMOOTH",
"320 291 OFFCURVE",
"339 291 OFFCURVE",
"339 237 CURVE SMOOTH",
"339 211 OFFCURVE",
"339 184 OFFCURVE",
"339 158 CURVE SMOOTH",
"337 115 OFFCURVE",
"325 102 OFFCURVE",
"286 102 CURVE SMOOTH"
);
}
);
width = 570;
},
{
anchors = (
{
name = bottom;
position = "{235, 0}";
},
{
name = top;
position = "{235, 960}";
}
);
background = {
anchors = (
{
name = bottom;
position = "{235, 0}";
},
{
name = top;
position = "{235, 960}";
}
);
paths = (
{
closed = 1;
nodes = (
"66 201 LINE SMOOTH",
"66 17 OFFCURVE",
"89 -2 OFFCURVE",
"222 -2 CURVE SMOOTH",
"325 -2 OFFCURVE",
"405 -2 OFFCURVE",
"405 203 CURVE SMOOTH",
"405 206 OFFCURVE",
"405 209 OFFCURVE",
"405 212 CURVE SMOOTH",
"403 365 OFFCURVE",
"343 400 OFFCURVE",
"230 400 CURVE SMOOTH",
"197 400 OFFCURVE",
"89 395 OFFCURVE",
"83 394 CURVE",
"83 431 OFFCURVE",
"83 468 OFFCURVE",
"83 505 CURVE",
"77 505 OFFCURVE",
"71 505 OFFCURVE",
"65 505 CURVE"
);
},
{
closed = 1;
nodes = (
"95 12 OFFCURVE",
"84 37 OFFCURVE",
"84 193 CURVE SMOOTH",
"84 380 LINE",
"91 381 OFFCURVE",
"196 385 OFFCURVE",
"238 385 CURVE SMOOTH",
"334 385 OFFCURVE",
"387 339 OFFCURVE",
"387 208 CURVE SMOOTH",
"387 206 OFFCURVE",
"387 204 OFFCURVE",
"387 203 CURVE SMOOTH",
"386 39 OFFCURVE",
"346 12 OFFCURVE",
"222 12 CURVE SMOOTH"
);
}
);
};
layerId = "B4E8C596-9C01-4F8A-BDA4-90320E25C0E6";
paths = (
{
closed = 1;
nodes = (
"66 201 LINE SMOOTH",
"66 17 OFFCURVE",
"89 -2 OFFCURVE",
"222 -2 CURVE SMOOTH",
"325 -2 OFFCURVE",
"405 -2 OFFCURVE",
"405 203 CURVE SMOOTH",
"405 206 OFFCURVE",
"405 209 OFFCURVE",
"405 212 CURVE SMOOTH",
"403 365 OFFCURVE",
"343 400 OFFCURVE",
"230 400 CURVE SMOOTH",
"197 400 OFFCURVE",
"89 395 OFFCURVE",
"83 394 CURVE",
"83 431 OFFCURVE",
"83 468 OFFCURVE",
"83 505 CURVE",
"77 505 OFFCURVE",
"71 505 OFFCURVE",
"65 505 CURVE"
);
},
{
closed = 1;
nodes = (
"95 12 OFFCURVE",
"84 37 OFFCURVE",
"84 193 CURVE SMOOTH",
"84 380 LINE",
"91 381 OFFCURVE",
"196 385 OFFCURVE",
"238 385 CURVE SMOOTH",
"334 385 OFFCURVE",
"387 339 OFFCURVE",
"387 208 CURVE SMOOTH",
"387 206 OFFCURVE",
"387 204 OFFCURVE",
"387 203 CURVE SMOOTH",
"386 39 OFFCURVE",
"346 12 OFFCURVE",
"222 12 CURVE SMOOTH"
);
}
);
width = 453;
}
);
leftKerningGroup = b;
leftMetricsKey = l;
note = b;
rightKerningGroup = o;
rightMetricsKey = o;
unicode = 0062;
},
{
glyphname = c;
lastChange = "2021-08-11 03:32:31 +0000";
layers = (
{
anchors = (
{
name = bottom;
position = "{260, 0}";
},
{
name = top;
position = "{294, 399}";
}
);
background = {
anchors = (
{
name = bottom;
position = "{260, 0}";
},
{
name = top;
position = "{294, 399}";
}
);
hints = (
{
horizontal = 1;
place = "{-4, 104}";
type = Stem;
},
{
horizontal = 1;
place = "{301, 99}";
type = Stem;
},
{
place = "{30, 201}";
type = Stem;
}
);
paths = (
{
closed = 1;
nodes = (
"24 29 OFFCURVE",
"98 -7 OFFCURVE",
"294 -7 CURVE SMOOTH",
"411 -7 OFFCURVE",
"498 -7 OFFCURVE",
"498 59 CURVE SMOOTH",
"498 112 LINE",
"476 105 OFFCURVE",
"411 100 OFFCURVE",
"371 100 CURVE SMOOTH",
"258 100 OFFCURVE",
"223 125 OFFCURVE",
"223 202 CURVE SMOOTH",
"223 279 OFFCURVE",
"258 304 OFFCURVE",
"371 304 CURVE SMOOTH",
"411 304 OFFCURVE",
"476 299 OFFCURVE",
"498 292 CURVE",
"498 375 OFFCURVE",
"473 390 OFFCURVE",
"432 395 CURVE SMOOTH",
"378 402 OFFCURVE",
"349 405 OFFCURVE",
"294 405 CURVE SMOOTH",
"98 405 OFFCURVE",
"24 367 OFFCURVE",
"24 200 CURVE SMOOTH"
);
}
);
};
layerId = "C7668D88-AC50-4107-9C4B-DB5D26A8FA6C";
paths = (
{
closed = 1;
nodes = (
"24 29 OFFCURVE",
"98 -7 OFFCURVE",
"294 -7 CURVE SMOOTH",
"411 -7 OFFCURVE",
"498 -7 OFFCURVE",
"498 59 CURVE SMOOTH",
"498 112 LINE",
"476 105 OFFCURVE",
"411 100 OFFCURVE",
"371 100 CURVE SMOOTH",
"258 100 OFFCURVE",
"223 125 OFFCURVE",
"223 202 CURVE SMOOTH",
"223 279 OFFCURVE",
"258 304 OFFCURVE",
"371 304 CURVE SMOOTH",
"411 304 OFFCURVE",
"476 299 OFFCURVE",
"498 292 CURVE",
"498 375 OFFCURVE",
"473 390 OFFCURVE",
"432 395 CURVE SMOOTH",
"378 402 OFFCURVE",
"349 405 OFFCURVE",
"294 405 CURVE SMOOTH",
"98 405 OFFCURVE",
"24 367 OFFCURVE",
"24 200 CURVE SMOOTH"
);
}
);
width = 520;
},
{
anchors = (
{
name = bottom;
position = "{241, 0}";
},
{
name = top;
position = "{240, 399}";
}
);
background = {
anchors = (
{
name = bottom;
position = "{241, 0}";
},
{
name = top;
position = "{240, 399}";
}
);
paths = (
{
closed = 1;
nodes = (
"48 29 OFFCURVE",
"102 -7 OFFCURVE",
"244 -7 CURVE SMOOTH",
"289 -7 OFFCURVE",
"392 -2 OFFCURVE",
"392 22 CURVE SMOOTH",
"392 30 LINE",
"367 17 OFFCURVE",
"289 7 OFFCURVE",
"242 7 CURVE SMOOTH",
"108 7 OFFCURVE",
"66 55 OFFCURVE",
"66 200 CURVE SMOOTH",
"66 344 OFFCURVE",
"108 391 OFFCURVE",
"242 391 CURVE SMOOTH",
"289 391 OFFCURVE",
"367 382 OFFCURVE",
"392 369 CURVE",
"392 384 OFFCURVE",
"391 390 OFFCURVE",
"361 395 CURVE SMOOTH",
"322 403 OFFCURVE",
"284 405 OFFCURVE",
"244 405 CURVE SMOOTH",
"102 405 OFFCURVE",
"48 367 OFFCURVE",
"48 200 CURVE SMOOTH"
);
}
);
};
layerId = "B4E8C596-9C01-4F8A-BDA4-90320E25C0E6";
paths = (
{
closed = 1;
nodes = (
"48 29 OFFCURVE",
"102 -7 OFFCURVE",
"244 -7 CURVE SMOOTH",
"289 -7 OFFCURVE",
"392 -2 OFFCURVE",
"392 22 CURVE SMOOTH",
"392 30 LINE",
"367 17 OFFCURVE",
"289 7 OFFCURVE",
"242 7 CURVE SMOOTH",
"108 7 OFFCURVE",
"66 55 OFFCURVE",
"66 200 CURVE SMOOTH",
"66 344 OFFCURVE",
"108 391 OFFCURVE",
"242 391 CURVE SMOOTH",
"289 391 OFFCURVE",
"367 382 OFFCURVE",
"392 369 CURVE",
"392 384 OFFCURVE",
"391 390 OFFCURVE",
"361 395 CURVE SMOOTH",
"322 403 OFFCURVE",
"284 405 OFFCURVE",
"244 405 CURVE SMOOTH",
"102 405 OFFCURVE",
"48 367 OFFCURVE",
"48 200 CURVE SMOOTH"
);
}
);
width = 434;
}
);
leftKerningGroup = o;
leftMetricsKey = o;
note = c;
rightKerningGroup = c;
unicode = 0063;
},
{
glyphname = d;
lastChange = "2021-07-01 18:19:47 +0000";
layers = (
{
anchors = (
{
name = bottom;
position = "{284, 0}";
},
{
name = center;
position = "{284, 200}";
},
{
name = top;
position = "{257, 505}";
},
{
name = topright;
position = "{581, 505}";
}
);
background = {
anchors = (
{
name = bottom;
position = "{284, 0}";
},
{
name = center;
position = "{284, 200}";
},
{
name = top;
position = "{257, 505}";
},
{
name = topright;
position = "{581, 505}";
}
);
paths = (
{
closed = 1;
nodes = (
"24 0 OFFCURVE",
"104 -2 OFFCURVE",
"277 -2 CURVE SMOOTH",
"460 -2 OFFCURVE",
"543 18 OFFCURVE",
"543 201 CURVE SMOOTH",
"543 505 LINE",
"335 505 LINE",
"335 394 LINE",
"324 398 OFFCURVE",
"287 400 OFFCURVE",
"268 400 CURVE SMOOTH",
"105 400 OFFCURVE",
"24 366 OFFCURVE",
"24 198 CURVE SMOOTH"
);
},
{
closed = 1;
nodes = (
"234 102 OFFCURVE",
"231 134 OFFCURVE",
"231 215 CURVE SMOOTH",
"231 285 OFFCURVE",
"257 290 OFFCURVE",
"328 290 CURVE SMOOTH",
"330 290 OFFCURVE",
"333 290 OFFCURVE",
"335 290 CURVE",
"335 178 LINE SMOOTH",
"335 102 OFFCURVE",
"299 102 OFFCURVE",
"284 102 CURVE SMOOTH"
);
}
);
};
layerId = "C7668D88-AC50-4107-9C4B-DB5D26A8FA6C";
paths = (
{
closed = 1;
nodes = (
"24 0 OFFCURVE",
"104 -2 OFFCURVE",
"277 -2 CURVE SMOOTH",
"460 -2 OFFCURVE",
"543 18 OFFCURVE",
"543 201 CURVE SMOOTH",
"543 505 LINE",
"335 505 LINE",
"335 394 LINE",
"324 398 OFFCURVE",
"287 400 OFFCURVE",
"268 400 CURVE SMOOTH",
"105 400 OFFCURVE",
"24 366 OFFCURVE",
"24 198 CURVE SMOOTH"
);
},
{
closed = 1;
nodes = (
"234 102 OFFCURVE",
"231 134 OFFCURVE",
"231 215 CURVE SMOOTH",
"231 285 OFFCURVE",
"257 290 OFFCURVE",
"328 290 CURVE SMOOTH",
"330 290 OFFCURVE",
"333 290 OFFCURVE",
"335 290 CURVE",
"335 178 LINE SMOOTH",
"335 102 OFFCURVE",
"299 102 OFFCURVE",
"284 102 CURVE SMOOTH"
);
}
);
width = 571;
},
{
anchors = (
{
name = bottom;
position = "{218, 0}";
},
{
name = center;
position = "{218, 200}";
},
{
name = top;
position = "{371, 505}";
},
{
name = topright;
position = "{437, 505}";
}
);
background = {
anchors = (
{
name = bottom;
position = "{218, 0}";
},
{
name = center;
position = "{218, 200}";
},
{
name = top;
position = "{371, 505}";
},
{
name = topright;
position = "{437, 505}";
}
);
paths = (
{
closed = 1;
nodes = (
"48 -7 OFFCURVE",
"115 -2 OFFCURVE",
"231 -2 CURVE SMOOTH",
"364 -2 OFFCURVE",
"386 17 OFFCURVE",
"387 201 CURVE SMOOTH",
"388 505 LINE",
"371 505 LINE",
"371 394 LINE",
"365 395 OFFCURVE",
"256 400 OFFCURVE",
"223 400 CURVE SMOOTH",
"108 400 OFFCURVE",
"48 364 OFFCURVE",
"48 203 CURVE SMOOTH"
);
},
{
closed = 1;
nodes = (
"97 12 OFFCURVE",
"66 37 OFFCURVE",
"66 199 CURVE SMOOTH",
"66 326 OFFCURVE",
"92 385 OFFCURVE",
"223 385 CURVE SMOOTH",
"266 385 OFFCURVE",
"364 379 OFFCURVE",
"371 378 CURVE",
"371 196 LINE SMOOTH",
"371 19 OFFCURVE",
"346 12 OFFCURVE",
"206 12 CURVE SMOOTH"
);
}
);
};
layerId = "B4E8C596-9C01-4F8A-BDA4-90320E25C0E6";
paths = (
{
closed = 1;
nodes = (
"48 -7 OFFCURVE",
"115 -2 OFFCURVE",
"231 -2 CURVE SMOOTH",
"364 -2 OFFCURVE",
"386 17 OFFCURVE",
"387 201 CURVE SMOOTH",
"388 505 LINE",
"371 505 LINE",
"371 394 LINE",
"365 395 OFFCURVE",
"256 400 OFFCURVE",
"223 400 CURVE SMOOTH",
"108 400 OFFCURVE",
"48 364 OFFCURVE",
"48 203 CURVE SMOOTH"
);
},
{
closed = 1;
nodes = (
"97 12 OFFCURVE",
"66 37 OFFCURVE",
"66 199 CURVE SMOOTH",
"66 326 OFFCURVE",
"92 385 OFFCURVE",
"223 385 CURVE SMOOTH",
"266 385 OFFCURVE",
"364 379 OFFCURVE",
"371 378 CURVE",
"371 196 LINE SMOOTH",
"371 19 OFFCURVE",
"346 12 OFFCURVE",
"206 12 CURVE SMOOTH"
);
}
);
width = 453;
}
);
leftKerningGroup = o;
leftMetricsKey = o;
note = d;
rightKerningGroup = d;
rightMetricsKey = n;
unicode = 0064;
},
{
glyphname = eth;
lastChange = "2021-06-29 03:47:53 +0000";
layers = (
{
background = {
components = (
{
name = partialdiff;
}
);
hints = (
{
horizontal = 1;
place = "{-2, 104}";
type = Stem;
},
{
horizontal = 1;
place = "{290, 89}";
type = Stem;
},
{
place = "{35, 202}";
type = Stem;
},
{
place = "{341, 206}";
type = Stem;
}
);
paths = (
{
closed = 1;
nodes = (
"162 405 LINE",
"379 644 LINE",
"336 683 LINE",
"122 444 LINE"
);
}
);
};
components = (
{
name = partialdiff;
}
);
layerId = "C7668D88-AC50-4107-9C4B-DB5D26A8FA6C";
paths = (
{
closed = 1;
nodes = (
"162 405 LINE",
"379 644 LINE",
"336 683 LINE",
"122 444 LINE"
);
}
);
width = 593;
},
{
background = {
components = (
{
name = partialdiff;
}
);
hints = (
{
horizontal = 1;
place = "{-1, 97}";
type = Stem;
},
{
horizontal = 1;
place = "{357, 102}";
type = Stem;
},
{
place = "{594, 90}";
type = Stem;
},
{
place = "{936, 90}";
type = Stem;
}
);
paths = (
{
closed = 1;
nodes = (
"103 472 LINE",
"264 583 LINE",
"254 598 LINE",
"92 487 LINE"
);
}
);
};
components = (
{
name = partialdiff;
}
);
layerId = "B4E8C596-9C01-4F8A-BDA4-90320E25C0E6";
paths = (
{
closed = 1;
nodes = (
"103 472 LINE",
"264 583 LINE",
"254 598 LINE",
"92 487 LINE"
);
}
);
width = 424;
}
);
note = eth;
unicode = 00F0;
},
{
glyphname = dcroat;
lastChange = "2021-06-29 03:47:53 +0000";
layers = (
{
background = {
paths = (
{
closed = 1;
nodes = (
"283 469 LINE",
"341 469 LINE",
"341 394 LINE",
"307 398 OFFCURVE",
"320 400 OFFCURVE",
"274 400 CURVE SMOOTH",
"111 400 OFFCURVE",
"30 366 OFFCURVE",
"30 198 CURVE SMOOTH",
"30 0 OFFCURVE",
"110 -2 OFFCURVE",
"283 -2 CURVE SMOOTH",
"466 -2 OFFCURVE",
"548 18 OFFCURVE",
"549 201 CURVE SMOOTH",
"549 469 LINE",
"605 469 LINE",
"605 542 LINE",
"549 542 LINE",
"549 626 LINE",
"341 626 LINE",
"341 542 LINE",
"283 542 LINE"
);
},
{
closed = 1;
nodes = (
"240 102 OFFCURVE",
"237 134 OFFCURVE",
"237 215 CURVE SMOOTH",
"237 285 OFFCURVE",
"263 290 OFFCURVE",
"334 290 CURVE SMOOTH",
"336 290 OFFCURVE",
"339 290 OFFCURVE",
"341 290 CURVE",
"341 178 LINE SMOOTH",
"341 102 OFFCURVE",
"305 102 OFFCURVE",
"290 102 CURVE SMOOTH"
);
}
);
};
layerId = "C7668D88-AC50-4107-9C4B-DB5D26A8FA6C";
paths = (
{
closed = 1;
nodes = (
"283 469 LINE",
"341 469 LINE",
"341 394 LINE",
"307 398 OFFCURVE",
"320 400 OFFCURVE",
"274 400 CURVE SMOOTH",
"111 400 OFFCURVE",
"30 366 OFFCURVE",
"30 198 CURVE SMOOTH",
"30 0 OFFCURVE",
"110 -2 OFFCURVE",
"283 -2 CURVE SMOOTH",
"466 -2 OFFCURVE",
"548 18 OFFCURVE",
"549 201 CURVE SMOOTH",
"549 469 LINE",
"605 469 LINE",
"605 542 LINE",
"549 542 LINE",
"549 626 LINE",
"341 626 LINE",
"341 542 LINE",
"283 542 LINE"
);
},
{
closed = 1;
nodes = (
"240 102 OFFCURVE",
"237 134 OFFCURVE",
"237 215 CURVE SMOOTH",
"237 285 OFFCURVE",
"263 290 OFFCURVE",
"334 290 CURVE SMOOTH",
"336 290 OFFCURVE",
"339 290 OFFCURVE",
"341 290 CURVE",
"341 178 LINE SMOOTH",
"341 102 OFFCURVE",
"305 102 OFFCURVE",
"290 102 CURVE SMOOTH"
);
}
);
width = 579;
},
{
background = {
paths = (
{
closed = 1;
nodes = (
"276 505 LINE",
"365 505 LINE",
"365 394 LINE",
"359 395 OFFCURVE",
"250 400 OFFCURVE",
"217 400 CURVE SMOOTH",
"102 400 OFFCURVE",
"42 364 OFFCURVE",
"42 203 CURVE SMOOTH",
"42 -7 OFFCURVE",
"109 -2 OFFCURVE",
"225 -2 CURVE SMOOTH",
"358 -2 OFFCURVE",
"381 17 OFFCURVE",
"381 201 CURVE SMOOTH",
"382 505 LINE",
"472 505 LINE",
"472 519 LINE",
"382 519 LINE",
"382 590 LINE",
"365 590 LINE",
"365 519 LINE",
"276 519 LINE"
);
},
{
closed = 1;
nodes = (
"91 12 OFFCURVE",
"60 37 OFFCURVE",
"60 199 CURVE SMOOTH",
"60 326 OFFCURVE",
"86 385 OFFCURVE",
"217 385 CURVE SMOOTH",
"260 385 OFFCURVE",
"358 379 OFFCURVE",
"365 378 CURVE",
"365 196 LINE SMOOTH",
"365 19 OFFCURVE",
"340 12 OFFCURVE",
"200 12 CURVE SMOOTH"
);
}
);
};
layerId = "B4E8C596-9C01-4F8A-BDA4-90320E25C0E6";
paths = (
{
closed = 1;
nodes = (
"276 505 LINE",
"365 505 LINE",
"365 394 LINE",
"359 395 OFFCURVE",
"250 400 OFFCURVE",
"217 400 CURVE SMOOTH",
"102 400 OFFCURVE",
"42 364 OFFCURVE",
"42 203 CURVE SMOOTH",
"42 -7 OFFCURVE",
"109 -2 OFFCURVE",
"225 -2 CURVE SMOOTH",
"358 -2 OFFCURVE",
"381 17 OFFCURVE",
"381 201 CURVE SMOOTH",
"382 505 LINE",
"472 505 LINE",
"472 519 LINE",
"382 519 LINE",
"382 590 LINE",
"365 590 LINE",
"365 519 LINE",
"276 519 LINE"
);
},
{
closed = 1;
nodes = (
"91 12 OFFCURVE",
"60 37 OFFCURVE",
"60 199 CURVE SMOOTH",
"60 326 OFFCURVE",
"86 385 OFFCURVE",
"217 385 CURVE SMOOTH",
"260 385 OFFCURVE",
"358 379 OFFCURVE",
"365 378 CURVE",
"365 196 LINE SMOOTH",
"365 19 OFFCURVE",
"340 12 OFFCURVE",
"200 12 CURVE SMOOTH"
);
}
);
width = 452;
}
);
leftKerningGroup = o;
note = dcroat;
rightKerningGroup = l;
unicode = 0111;
},
{
glyphname = e;
lastChange = "2021-08-11 03:44:29 +0000";
layers = (
{
anchors = (
{
name = bottom;
position = "{284, 0}";
},
{
name = ogonek;
position = "{372, 10}";
},
{
name = top;
position = "{284, 399}";
}
);
background = {
anchors = (
{
name = bottom;
position = "{284, 0}";
},
{
name = ogonek;
position = "{372, 10}";
},
{
name = top;
position = "{284, 399}";
}
);
paths = (
{
closed = 1;
nodes = (
"348 161 OFFCURVE",
"445 161 OFFCURVE",
"543 161 CURVE",
"543 198 OFFCURVE",
"543 236 OFFCURVE",
"543 273 CURVE SMOOTH",
"543 398 OFFCURVE",
"388 400 OFFCURVE",
"303 400 CURVE SMOOTH",
"136 400 OFFCURVE",
"24 380 OFFCURVE",
"24 185 CURVE SMOOTH",
"24 1 OFFCURVE",
"101 -5 OFFCURVE",
"290 -5 CURVE SMOOTH",
"429 -5 OFFCURVE",
"504 -2 OFFCURVE",
"524 22 CURVE SMOOTH",
"537 36 OFFCURVE",
"541 68 OFFCURVE",
"542 91 CURVE SMOOTH",
"542 101 OFFCURVE",
"542 109 OFFCURVE",
"542 114 CURVE",
"531 113 OFFCURVE",
"379 110 OFFCURVE",
"356 110 CURVE SMOOTH",
"256 110 OFFCURVE",
"233 106 OFFCURVE",
"233 189 CURVE SMOOTH",
"233 274 OFFCURVE",
"242 290 OFFCURVE",
"302 290 CURVE SMOOTH",
"358 290 OFFCURVE",
"360 265 OFFCURVE",
"360 226 CURVE",
"342 226 OFFCURVE",
"325 226 OFFCURVE",
"307 226 CURVE SMOOTH",
"252 226 OFFCURVE",
"250 188 OFFCURVE",
"250 161 CURVE"
);
}
);
};
layerId = "C7668D88-AC50-4107-9C4B-DB5D26A8FA6C";
paths = (
{
closed = 1;
nodes = (
"348 161 OFFCURVE",
"445 161 OFFCURVE",
"543 161 CURVE",
"543 198 OFFCURVE",
"543 236 OFFCURVE",
"543 273 CURVE SMOOTH",
"543 398 OFFCURVE",
"388 400 OFFCURVE",
"303 400 CURVE SMOOTH",
"136 400 OFFCURVE",
"24 380 OFFCURVE",
"24 185 CURVE SMOOTH",
"24 1 OFFCURVE",
"101 -5 OFFCURVE",
"290 -5 CURVE SMOOTH",
"429 -5 OFFCURVE",
"504 -2 OFFCURVE",
"524 22 CURVE SMOOTH",
"537 36 OFFCURVE",
"541 68 OFFCURVE",
"542 91 CURVE SMOOTH",
"542 101 OFFCURVE",
"542 109 OFFCURVE",
"542 114 CURVE",
"531 113 OFFCURVE",
"379 110 OFFCURVE",
"356 110 CURVE SMOOTH",
"256 110 OFFCURVE",
"233 106 OFFCURVE",
"233 189 CURVE SMOOTH",
"233 274 OFFCURVE",
"242 290 OFFCURVE",
"302 290 CURVE SMOOTH",
"358 290 OFFCURVE",
"360 265 OFFCURVE",
"360 226 CURVE",
"342 226 OFFCURVE",
"325 226 OFFCURVE",
"307 226 CURVE SMOOTH",
"252 226 OFFCURVE",
"250 188 OFFCURVE",
"250 161 CURVE"
);
}
);
width = 565;
},
{
anchors = (
{
name = bottom;
position = "{221, 0}";
},
{
name = ogonek;
position = "{283, 6}";
},
{
name = top;
position = "{221, 399}";
}
);
background = {
anchors = (
{
name = bottom;
position = "{221, 0}";
},
{
name = ogonek;
position = "{283, 6}";
},
{
name = top;
position = "{221, 399}";
}
);
paths = (
{
closed = 1;
nodes = (
"203 197 OFFCURVE",
"302 197 OFFCURVE",
"400 197 CURVE",
"400 212 OFFCURVE",
"400 226 OFFCURVE",
"400 241 CURVE SMOOTH",
"398 351 OFFCURVE",
"355 405 OFFCURVE",
"242 405 CURVE SMOOTH",
"87 405 OFFCURVE",
"48 338 OFFCURVE",
"48 200 CURVE SMOOTH",
"48 29 OFFCURVE",
"102 -7 OFFCURVE",
"244 -7 CURVE SMOOTH",
"284 -7 OFFCURVE",
"322 -4 OFFCURVE",
"361 3 CURVE SMOOTH",
"387 8 OFFCURVE",
"392 14 OFFCURVE",
"392 22 CURVE SMOOTH",
"392 24 OFFCURVE",
"392 27 OFFCURVE",
"392 29 CURVE",
"367 16 OFFCURVE",
"290 8 OFFCURVE",
"243 8 CURVE SMOOTH",
"109 8 OFFCURVE",
"66 51 OFFCURVE",
"66 200 CURVE SMOOTH",
"66 336 OFFCURVE",
"108 391 OFFCURVE",
"243 391 CURVE SMOOTH",
"346 391 OFFCURVE",
"383 338 OFFCURVE",
"383 211 CURVE",
"294 211 OFFCURVE",
"205 211 OFFCURVE",
"116 211 CURVE SMOOTH",
"109 211 OFFCURVE",
"105 204 OFFCURVE",
"105 197 CURVE"
);
}
);
};
layerId = "B4E8C596-9C01-4F8A-BDA4-90320E25C0E6";
paths = (
{
closed = 1;
nodes = (
"203 197 OFFCURVE",
"302 197 OFFCURVE",
"400 197 CURVE",
"400 212 OFFCURVE",
"400 226 OFFCURVE",
"400 241 CURVE SMOOTH",
"398 351 OFFCURVE",
"355 405 OFFCURVE",
"242 405 CURVE SMOOTH",
"87 405 OFFCURVE",
"48 338 OFFCURVE",
"48 200 CURVE SMOOTH",
"48 29 OFFCURVE",
"102 -7 OFFCURVE",
"244 -7 CURVE SMOOTH",
"284 -7 OFFCURVE",
"322 -4 OFFCURVE",
"361 3 CURVE SMOOTH",
"387 8 OFFCURVE",
"392 14 OFFCURVE",
"392 22 CURVE SMOOTH",
"392 24 OFFCURVE",
"392 27 OFFCURVE",
"392 29 CURVE",
"367 16 OFFCURVE",
"290 8 OFFCURVE",
"243 8 CURVE SMOOTH",
"109 8 OFFCURVE",
"66 51 OFFCURVE",
"66 200 CURVE SMOOTH",
"66 336 OFFCURVE",
"108 391 OFFCURVE",
"243 391 CURVE SMOOTH",
"346 391 OFFCURVE",
"383 338 OFFCURVE",
"383 211 CURVE",
"294 211 OFFCURVE",
"205 211 OFFCURVE",
"116 211 CURVE SMOOTH",
"109 211 OFFCURVE",
"105 204 OFFCURVE",
"105 197 CURVE"
);
}
);
width = 439;
}
);
leftKerningGroup = o;
leftMetricsKey = o;
note = e;
rightKerningGroup = e;
unicode = 0065;
},
{
glyphname = f;
lastChange = "2021-07-01 17:06:27 +0000";
layers = (
{
anchors = (
{
name = bottom;
position = "{233, 0}";
},
{
name = top;
position = "{233, 960}";
}
);
background = {
anchors = (
{
name = bottom;
position = "{233, 0}";
},
{
name = top;
position = "{233, 960}";
}
);
paths = (
{
closed = 1;
nodes = (
"21 246 LINE",
"59 246 LINE",
"59 59 LINE SMOOTH",
"59 18 OFFCURVE",
"70 0 OFFCURVE",
"122 0 CURVE SMOOTH",
"267 0 LINE",
"267 246 LINE",
"454 246 LINE",
"454 352 LINE",
"267 352 LINE",
"267 365 LINE SMOOTH",
"267 383 OFFCURVE",
"273 399 OFFCURVE",
"302 399 CURVE SMOOTH",
"324 399 OFFCURVE",
"429 398 OFFCURVE",
"454 391 CURVE",
"454 497 LINE",
"387 503 OFFCURVE",
"255 510 OFFCURVE",
"170 505 CURVE SMOOTH",
"84 500 OFFCURVE",
"59 447 OFFCURVE",
"59 376 CURVE SMOOTH",
"59 352 LINE",
"21 352 LINE"
);
}
);
};
layerId = "C7668D88-AC50-4107-9C4B-DB5D26A8FA6C";
paths = (
{
closed = 1;
nodes = (
"21 246 LINE",
"59 246 LINE",
"59 59 LINE SMOOTH",
"59 18 OFFCURVE",
"70 0 OFFCURVE",
"122 0 CURVE SMOOTH",
"267 0 LINE",
"267 246 LINE",
"454 246 LINE",
"454 352 LINE",
"267 352 LINE",
"267 365 LINE SMOOTH",
"267 383 OFFCURVE",
"273 399 OFFCURVE",
"302 399 CURVE SMOOTH",
"324 399 OFFCURVE",
"429 398 OFFCURVE",
"454 391 CURVE",
"454 497 LINE",
"387 503 OFFCURVE",
"255 510 OFFCURVE",
"170 505 CURVE SMOOTH",
"84 500 OFFCURVE",
"59 447 OFFCURVE",
"59 376 CURVE SMOOTH",
"59 352 LINE",
"21 352 LINE"
);
}
);
width = 476;
},
{
anchors = (
{
name = bottom;
position = "{122, 0}";
},
{
name = top;
position = "{122, 960}";
}
);
background = {
anchors = (
{
name = bottom;
position = "{122, 0}";
},
{
name = top;
position = "{122, 960}";
}
);
paths = (
{
closed = 1;
nodes = (
"42 338 LINE",
"73 338 LINE",
"73 15 LINE SMOOTH",
"73 2 OFFCURVE",
"76 0 OFFCURVE",
"84 0 CURVE SMOOTH",
"90 0 LINE",
"90 338 LINE",
"205 338 LINE",
"205 352 LINE",
"90 352 LINE",
"90 418 LINE SMOOTH",
"90 469 OFFCURVE",
"98 491 OFFCURVE",
"152 491 CURVE SMOOTH",
"180 491 OFFCURVE",
"205 484 OFFCURVE",
"205 484 CURVE",
"205 498 LINE",
"205 498 OFFCURVE",
"178 505 OFFCURVE",
"133 505 CURVE SMOOTH",
"81 505 OFFCURVE",
"73 467 OFFCURVE",
"73 424 CURVE SMOOTH",
"73 352 LINE",
"42 352 LINE"
);
}
);
};
layerId = "B4E8C596-9C01-4F8A-BDA4-90320E25C0E6";
paths = (
{
closed = 1;
nodes = (
"42 338 LINE",
"73 338 LINE",
"73 15 LINE SMOOTH",
"73 2 OFFCURVE",
"76 0 OFFCURVE",
"84 0 CURVE SMOOTH",
"90 0 LINE",
"90 338 LINE",
"205 338 LINE",
"205 352 LINE",
"90 352 LINE",
"90 418 LINE SMOOTH",
"90 469 OFFCURVE",
"98 491 OFFCURVE",
"152 491 CURVE SMOOTH",
"180 491 OFFCURVE",
"205 484 OFFCURVE",
"205 484 CURVE",
"205 498 LINE",
"205 498 OFFCURVE",
"178 505 OFFCURVE",
"133 505 CURVE SMOOTH",
"81 505 OFFCURVE",
"73 467 OFFCURVE",
"73 424 CURVE SMOOTH",
"73 352 LINE",
"42 352 LINE"
);
}
);
width = 219;
}
);
leftKerningGroup = f;
note = f;
rightKerningGroup = f;
unicode = 0066;
},
{
glyphname = g;
lastChange = "2021-08-11 03:33:09 +0000";
layers = (
{
anchors = (
{
name = bottom;
position = "{288, -350}";
},
{
name = top;
position = "{308, 399}";
}
);
background = {
anchors = (
{
name = bottom;
position = "{288, -350}";
},
{
name = top;
position = "{308, 399}";
}
);
paths = (
{
closed = 1;
nodes = (
"54 -22 OFFCURVE",
"54 -53 OFFCURVE",
"54 -62 CURVE SMOOTH",
"54 -135 OFFCURVE",
"189 -124 OFFCURVE",
"270 -124 CURVE SMOOTH",
"461 -124 OFFCURVE",
"552 -92 OFFCURVE",
"550 86 CURVE SMOOTH",
"549 166 OFFCURVE",
"550 246 OFFCURVE",
"550 326 CURVE SMOOTH",
"550 355 OFFCURVE",
"550 382 OFFCURVE",
"552 387 CURVE",
"529 389 OFFCURVE",
"378 401 OFFCURVE",
"326 401 CURVE SMOOTH",
"122 401 OFFCURVE",
"24 378 OFFCURVE",
"24 228 CURVE SMOOTH",
"24 43 OFFCURVE",
"87 22 OFFCURVE",
"228 22 CURVE SMOOTH",
"301 22 OFFCURVE",
"335 39 OFFCURVE",
"342 67 CURVE",
"342 1 OFFCURVE",
"318 -36 OFFCURVE",
"221 -36 CURVE SMOOTH",
"162 -36 OFFCURVE",
"70 -22 OFFCURVE",
"54 -15 CURVE"
);
},
{
closed = 1;
nodes = (
"343 212 LINE",
"343 144 OFFCURVE",
"308 134 OFFCURVE",
"290 134 CURVE SMOOTH",
"256 134 OFFCURVE",
"237 136 OFFCURVE",
"237 230 CURVE SMOOTH",
"237 282 OFFCURVE",
"250 294 OFFCURVE",
"288 294 CURVE SMOOTH",
"318 294 OFFCURVE",
"335 293 OFFCURVE",
"343 293 CURVE"
);
}
);
};
guideLines = (
{
position = "{574, 105}";
},
{
position = "{574, -109}";
}
);
layerId = "C7668D88-AC50-4107-9C4B-DB5D26A8FA6C";
paths = (
{
closed = 1;
nodes = (
"54 -22 OFFCURVE",
"54 -53 OFFCURVE",
"54 -62 CURVE SMOOTH",
"54 -135 OFFCURVE",
"189 -124 OFFCURVE",
"270 -124 CURVE SMOOTH",
"461 -124 OFFCURVE",
"552 -92 OFFCURVE",
"550 86 CURVE SMOOTH",
"549 166 OFFCURVE",
"550 246 OFFCURVE",
"550 326 CURVE SMOOTH",
"550 355 OFFCURVE",
"550 382 OFFCURVE",
"552 387 CURVE",
"529 389 OFFCURVE",
"378 401 OFFCURVE",
"326 401 CURVE SMOOTH",
"122 401 OFFCURVE",
"24 378 OFFCURVE",
"24 228 CURVE SMOOTH",
"24 43 OFFCURVE",
"87 22 OFFCURVE",
"228 22 CURVE SMOOTH",
"301 22 OFFCURVE",
"335 39 OFFCURVE",
"342 67 CURVE",
"342 1 OFFCURVE",
"318 -36 OFFCURVE",
"221 -36 CURVE SMOOTH",
"162 -36 OFFCURVE",
"70 -22 OFFCURVE",
"54 -15 CURVE"
);
},
{
closed = 1;
nodes = (
"343 212 LINE",
"343 144 OFFCURVE",
"308 134 OFFCURVE",
"290 134 CURVE SMOOTH",
"256 134 OFFCURVE",
"237 136 OFFCURVE",
"237 230 CURVE SMOOTH",
"237 282 OFFCURVE",
"250 294 OFFCURVE",
"288 294 CURVE SMOOTH",
"318 294 OFFCURVE",
"335 293 OFFCURVE",
"343 293 CURVE"
);
}
);
width = 585;
},
{
anchors = (
{
name = bottom;
position = "{220, -350}";
},
{
name = top;
position = "{220, 399}";
}
);
background = {
anchors = (
{
name = bottom;
position = "{220, -350}";
},
{
name = top;
position = "{220, 399}";
}
);
paths = (
{
closed = 1;
nodes = (
"72 -72 OFFCURVE",
"72 -76 OFFCURVE",
"72 -79 CURVE SMOOTH",
"72 -105 OFFCURVE",
"195 -111 OFFCURVE",
"219 -111 CURVE SMOOTH",
"280 -111 OFFCURVE",
"320 -99 OFFCURVE",
"345 -74 CURVE SMOOTH",
"394 -25 OFFCURVE",
"388 37 OFFCURVE",
"388 218 CURVE SMOOTH",
"388 286 OFFCURVE",
"388 382 OFFCURVE",
"391 390 CURVE",
"372 394 OFFCURVE",
"289 402 OFFCURVE",
"234 402 CURVE SMOOTH",
"105 402 OFFCURVE",
"48 379 OFFCURVE",
"48 222 CURVE SMOOTH",
"48 36 OFFCURVE",
"104 12 OFFCURVE",
"215 12 CURVE SMOOTH",
"246 12 OFFCURVE",
"332 17 OFFCURVE",
"370 67 CURVE",
"364 -61 OFFCURVE",
"323 -96 OFFCURVE",
"218 -96 CURVE SMOOTH",
"178 -96 OFFCURVE",
"104 -87 OFFCURVE",
"72 -69 CURVE"
);
},
{
closed = 1;
nodes = (
"367 107 LINE",
"359 35 OFFCURVE",
"252 27 OFFCURVE",
"208 27 CURVE SMOOTH",
"103 27 OFFCURVE",
"66 61 OFFCURVE",
"66 227 CURVE SMOOTH",
"66 351 OFFCURVE",
"108 387 OFFCURVE",
"231 387 CURVE SMOOTH",
"300 387 OFFCURVE",
"355 379 OFFCURVE",
"370 375 CURVE"
);
}
);
};
layerId = "B4E8C596-9C01-4F8A-BDA4-90320E25C0E6";
paths = (
{
closed = 1;
nodes = (
"72 -72 OFFCURVE",
"72 -76 OFFCURVE",
"72 -79 CURVE SMOOTH",
"72 -105 OFFCURVE",
"195 -111 OFFCURVE",
"219 -111 CURVE SMOOTH",
"280 -111 OFFCURVE",
"320 -99 OFFCURVE",
"345 -74 CURVE SMOOTH",
"394 -25 OFFCURVE",
"388 37 OFFCURVE",
"388 218 CURVE SMOOTH",
"388 286 OFFCURVE",
"388 382 OFFCURVE",
"391 390 CURVE",
"372 394 OFFCURVE",
"289 402 OFFCURVE",
"234 402 CURVE SMOOTH",
"105 402 OFFCURVE",
"48 379 OFFCURVE",
"48 222 CURVE SMOOTH",
"48 36 OFFCURVE",
"104 12 OFFCURVE",
"215 12 CURVE SMOOTH",
"246 12 OFFCURVE",
"332 17 OFFCURVE",
"370 67 CURVE",
"364 -61 OFFCURVE",
"323 -96 OFFCURVE",
"218 -96 CURVE SMOOTH",
"178 -96 OFFCURVE",
"104 -87 OFFCURVE",
"72 -69 CURVE"
);
},
{
closed = 1;
nodes = (
"367 107 LINE",
"359 35 OFFCURVE",
"252 27 OFFCURVE",
"208 27 CURVE SMOOTH",
"103 27 OFFCURVE",
"66 61 OFFCURVE",
"66 227 CURVE SMOOTH",
"66 351 OFFCURVE",
"108 387 OFFCURVE",
"231 387 CURVE SMOOTH",
"300 387 OFFCURVE",
"355 379 OFFCURVE",
"370 375 CURVE"
);
}
);
width = 461;
}
);
leftKerningGroup = g;
leftMetricsKey = o;
note = g;
rightKerningGroup = g;
rightMetricsKey = "=n+5";
unicode = 0067;
},
{
glyphname = h;
lastChange = "2021-07-01 18:38:34 +0000";
layers = (
{
anchors = (
{
name = bottom;
position = "{294, 0}";
},
{
name = center;
position = "{294, 480}";
},
{
name = top;
position = "{139, 505}";
}
);
background = {
anchors = (
{
name = bottom;
position = "{294, 0}";
},
{
name = center;
position = "{294, 480}";
},
{
name = top;
position = "{139, 505}";
}
);
paths = (
{
closed = 1;
nodes = (
"34 356 OFFCURVE",
"34 206 OFFCURVE",
"34 57 CURVE SMOOTH",
"34 -10 OFFCURVE",
"58 0 OFFCURVE",
"241 0 CURVE",
"241 99 OFFCURVE",
"241 199 OFFCURVE",
"241 298 CURVE",
"242 302 OFFCURVE",
"276 306 OFFCURVE",
"285 306 CURVE SMOOTH",
"351 306 OFFCURVE",
"351 281 OFFCURVE",
"351 225 CURVE SMOOTH",
"351 150 OFFCURVE",
"351 75 OFFCURVE",
"351 0 CURVE",
"520 0 OFFCURVE",
"553 -15 OFFCURVE",
"553 80 CURVE SMOOTH",
"553 93 OFFCURVE",
"553 151 OFFCURVE",
"553 198 CURVE SMOOTH",
"553 350 OFFCURVE",
"538 398 OFFCURVE",
"312 398 CURVE SMOOTH",
"297 398 OFFCURVE",
"261 398 OFFCURVE",
"241 396 CURVE",
"241 432 OFFCURVE",
"241 469 OFFCURVE",
"241 505 CURVE",
"172 505 OFFCURVE",
"103 505 OFFCURVE",
"34 505 CURVE"
);
}
);
};
layerId = "C7668D88-AC50-4107-9C4B-DB5D26A8FA6C";
paths = (
{
closed = 1;
nodes = (
"34 356 OFFCURVE",
"34 206 OFFCURVE",
"34 57 CURVE SMOOTH",
"34 -10 OFFCURVE",
"58 0 OFFCURVE",
"241 0 CURVE",
"241 99 OFFCURVE",
"241 199 OFFCURVE",
"241 298 CURVE",
"242 302 OFFCURVE",
"276 306 OFFCURVE",
"285 306 CURVE SMOOTH",
"351 306 OFFCURVE",
"351 281 OFFCURVE",
"351 225 CURVE SMOOTH",
"351 150 OFFCURVE",
"351 75 OFFCURVE",
"351 0 CURVE",
"520 0 OFFCURVE",
"553 -15 OFFCURVE",
"553 80 CURVE SMOOTH",
"553 93 OFFCURVE",
"553 151 OFFCURVE",
"553 198 CURVE SMOOTH",
"553 350 OFFCURVE",
"538 398 OFFCURVE",
"312 398 CURVE SMOOTH",
"297 398 OFFCURVE",
"261 398 OFFCURVE",
"241 396 CURVE",
"241 432 OFFCURVE",
"241 469 OFFCURVE",
"241 505 CURVE",
"172 505 OFFCURVE",
"103 505 OFFCURVE",
"34 505 CURVE"
);
}
);
width = 581;
},
{
anchors = (
{
name = bottom;
position = "{227, 0}";
},
{
name = center;
position = "{119, 480}";
},
{
name = top;
position = "{151, 460}";
}
);
background = {
anchors = (
{
name = bottom;
position = "{227, 0}";
},
{
name = center;
position = "{119, 480}";
},
{
name = top;
position = "{151, 460}";
}
);
paths = (
{
closed = 1;
nodes = (
"71 343 OFFCURVE",
"71 182 OFFCURVE",
"71 21 CURVE SMOOTH",
"71 0 OFFCURVE",
"72 0 OFFCURVE",
"89 0 CURVE",
"89 123 OFFCURVE",
"89 245 OFFCURVE",
"89 368 CURVE",
"116 380 OFFCURVE",
"170 385 OFFCURVE",
"211 385 CURVE SMOOTH",
"311 385 OFFCURVE",
"364 362 OFFCURVE",
"364 250 CURVE SMOOTH",
"364 167 OFFCURVE",
"364 83 OFFCURVE",
"364 0 CURVE",
"382 0 OFFCURVE",
"382 0 OFFCURVE",
"382 31 CURVE SMOOTH",
"382 100 OFFCURVE",
"382 168 OFFCURVE",
"382 237 CURVE SMOOTH",
"382 330 OFFCURVE",
"372 399 OFFCURVE",
"210 399 CURVE SMOOTH",
"162 399 OFFCURVE",
"113 394 OFFCURVE",
"89 383 CURVE",
"89 423 OFFCURVE",
"89 464 OFFCURVE",
"89 504 CURVE",
"83 504 OFFCURVE",
"77 504 OFFCURVE",
"71 504 CURVE"
);
}
);
};
layerId = "B4E8C596-9C01-4F8A-BDA4-90320E25C0E6";
paths = (
{
closed = 1;
nodes = (
"71 343 OFFCURVE",
"71 182 OFFCURVE",
"71 21 CURVE SMOOTH",
"71 0 OFFCURVE",
"72 0 OFFCURVE",
"89 0 CURVE",
"89 123 OFFCURVE",
"89 245 OFFCURVE",
"89 368 CURVE",
"116 380 OFFCURVE",
"170 385 OFFCURVE",
"211 385 CURVE SMOOTH",
"311 385 OFFCURVE",
"364 362 OFFCURVE",
"364 250 CURVE SMOOTH",
"364 167 OFFCURVE",
"364 83 OFFCURVE",
"364 0 CURVE",
"382 0 OFFCURVE",
"382 0 OFFCURVE",
"382 31 CURVE SMOOTH",
"382 100 OFFCURVE",
"382 168 OFFCURVE",
"382 237 CURVE SMOOTH",
"382 330 OFFCURVE",
"372 399 OFFCURVE",
"210 399 CURVE SMOOTH",
"162 399 OFFCURVE",
"113 394 OFFCURVE",
"89 383 CURVE",
"89 423 OFFCURVE",
"89 464 OFFCURVE",
"89 504 CURVE",
"83 504 OFFCURVE",
"77 504 OFFCURVE",
"71 504 CURVE"
);
}
);
width = 447;
}
);
leftKerningGroup = h;
leftMetricsKey = n;
note = h;
rightKerningGroup = n;
rightMetricsKey = n;
unicode = 0068;
},
{
glyphname = i;
lastChange = "2021-08-11 03:35:24 +0000";
layers = (
{
anchors = (
{
name = bottom;
position = "{199, 0}";
}
);
background = {
anchors = (
{
name = bottom;
position = "{199, 0}";
}
);
paths = (
{
closed = 1;
nodes = (
"169 399 OFFCURVE",
"100 399 OFFCURVE",
"31 399 CURVE",
"31 360 OFFCURVE",
"30 207 OFFCURVE",
"30 132 CURVE SMOOTH",
"30 69 OFFCURVE",
"-4 -5 OFFCURVE",
"211 -5 CURVE SMOOTH",
"275 -5 OFFCURVE",
"299 5 OFFCURVE",
"310 7 CURVE",
"310 79 LINE",
"307 77 OFFCURVE",
"300 73 OFFCURVE",
"289 73 CURVE SMOOTH",
"239 73 OFFCURVE",
"238 99 OFFCURVE",
"238 152 CURVE SMOOTH",
"238 234 OFFCURVE",
"238 317 OFFCURVE",
"238 399 CURVE"
);
},
{
closed = 1;
nodes = (
"55 442 OFFCURVE",
"90 440 OFFCURVE",
"141 440 CURVE SMOOTH",
"191 440 OFFCURVE",
"226 442 OFFCURVE",
"226 494 CURVE SMOOTH",
"226 541 OFFCURVE",
"194 547 OFFCURVE",
"144 548 CURVE SMOOTH",
"94 548 OFFCURVE",
"55 543 OFFCURVE",
"55 494 CURVE SMOOTH"
);
}
);
};
layerId = "C7668D88-AC50-4107-9C4B-DB5D26A8FA6C";
paths = (
{
closed = 1;
nodes = (
"169 399 OFFCURVE",
"100 399 OFFCURVE",
"31 399 CURVE",
"31 360 OFFCURVE",
"30 207 OFFCURVE",
"30 132 CURVE SMOOTH",
"30 69 OFFCURVE",
"-4 -5 OFFCURVE",
"211 -5 CURVE SMOOTH",
"275 -5 OFFCURVE",
"299 5 OFFCURVE",
"310 7 CURVE",
"310 79 LINE",
"307 77 OFFCURVE",
"300 73 OFFCURVE",
"289 73 CURVE SMOOTH",
"239 73 OFFCURVE",
"238 99 OFFCURVE",
"238 152 CURVE SMOOTH",
"238 234 OFFCURVE",
"238 317 OFFCURVE",
"238 399 CURVE"
);
},
{
closed = 1;
nodes = (
"55 442 OFFCURVE",
"90 440 OFFCURVE",
"141 440 CURVE SMOOTH",
"191 440 OFFCURVE",
"226 442 OFFCURVE",
"226 494 CURVE SMOOTH",
"226 541 OFFCURVE",
"194 547 OFFCURVE",
"144 548 CURVE SMOOTH",
"94 548 OFFCURVE",
"55 543 OFFCURVE",
"55 494 CURVE SMOOTH"
);
}
);
width = 318;
},
{
anchors = (
{
name = bottom;
position = "{135, 0}";
}
);
background = {
anchors = (
{
name = bottom;
position = "{135, 0}";
}
);
paths = (
{
closed = 1;
nodes = (
"86 399 OFFCURVE",
"80 399 OFFCURVE",
"74 399 CURVE",
"74 299 OFFCURVE",
"74 198 OFFCURVE",
"74 98 CURVE SMOOTH",
"74 42 OFFCURVE",
"75 -3 OFFCURVE",
"123 -3 CURVE SMOOTH",
"131 -3 OFFCURVE",
"163 0 OFFCURVE",
"170 2 CURVE",
"170 16 LINE",
"165 13 OFFCURVE",
"141 11 OFFCURVE",
"134 11 CURVE SMOOTH",
"99 11 OFFCURVE",
"92 35 OFFCURVE",
"92 88 CURVE SMOOTH",
"92 192 OFFCURVE",
"92 295 OFFCURVE",
"92 399 CURVE"
);
},
{
closed = 1;
nodes = (
"65 465 OFFCURVE",
"76 464 OFFCURVE",
"83 464 CURVE SMOOTH",
"90 464 OFFCURVE",
"100 465 OFFCURVE",
"100 479 CURVE SMOOTH",
"100 494 OFFCURVE",
"91 495 OFFCURVE",
"82 495 CURVE SMOOTH",
"73 495 OFFCURVE",
"65 493 OFFCURVE",
"65 479 CURVE SMOOTH"
);
}
);
};
layerId = "B4E8C596-9C01-4F8A-BDA4-90320E25C0E6";
paths = (
{
closed = 1;
nodes = (
"86 399 OFFCURVE",
"80 399 OFFCURVE",
"74 399 CURVE",
"74 299 OFFCURVE",
"74 198 OFFCURVE",
"74 98 CURVE SMOOTH",
"74 42 OFFCURVE",
"75 -3 OFFCURVE",
"123 -3 CURVE SMOOTH",
"131 -3 OFFCURVE",
"163 0 OFFCURVE",
"170 2 CURVE",
"170 16 LINE",
"165 13 OFFCURVE",
"141 11 OFFCURVE",
"134 11 CURVE SMOOTH",
"99 11 OFFCURVE",
"92 35 OFFCURVE",
"92 88 CURVE SMOOTH",
"92 192 OFFCURVE",
"92 295 OFFCURVE",
"92 399 CURVE"
);
},
{
closed = 1;
nodes = (
"65 465 OFFCURVE",
"76 464 OFFCURVE",
"83 464 CURVE SMOOTH",
"90 464 OFFCURVE",
"100 465 OFFCURVE",
"100 479 CURVE SMOOTH",
"100 494 OFFCURVE",
"91 495 OFFCURVE",
"82 495 CURVE SMOOTH",
"73 495 OFFCURVE",
"65 493 OFFCURVE",
"65 479 CURVE SMOOTH"
);
}
);
width = 181;
}
);
leftKerningGroup = i;
leftMetricsKey = "=n-6";
note = i;
rightKerningGroup = i;
unicode = 0069;
},
{
glyphname = idotless;
lastChange = "2021-07-01 16:49:26 +0000";
layers = (
{
anchors = (
{
name = bottom;
position = "{163, 0}";
},
{
name = ogonek;
position = "{295, 10}";
},
{
name = top;
position = "{132, 399}";
}
);
background = {
anchors = (
{
name = bottom;
position = "{163, 0}";
},
{
name = ogonek;
position = "{295, 10}";
},
{
name = top;
position = "{132, 399}";
}
);
paths = (
{
closed = 1;
nodes = (
"169 399 OFFCURVE",
"100 399 OFFCURVE",
"31 399 CURVE",
"31 360 OFFCURVE",
"30 207 OFFCURVE",
"30 132 CURVE SMOOTH",
"30 69 OFFCURVE",
"-4 -5 OFFCURVE",
"211 -5 CURVE SMOOTH",
"275 -5 OFFCURVE",
"299 5 OFFCURVE",
"310 7 CURVE",
"310 79 LINE",
"307 77 OFFCURVE",
"300 73 OFFCURVE",
"289 73 CURVE SMOOTH",
"239 73 OFFCURVE",
"238 99 OFFCURVE",
"238 152 CURVE SMOOTH",
"238 234 OFFCURVE",
"238 317 OFFCURVE",
"238 399 CURVE"
);
}
);
};
layerId = "C7668D88-AC50-4107-9C4B-DB5D26A8FA6C";
paths = (
{
closed = 1;
nodes = (
"169 399 OFFCURVE",
"100 399 OFFCURVE",
"31 399 CURVE",
"31 360 OFFCURVE",
"30 207 OFFCURVE",
"30 132 CURVE SMOOTH",
"30 69 OFFCURVE",
"-4 -5 OFFCURVE",
"211 -5 CURVE SMOOTH",
"275 -5 OFFCURVE",
"299 5 OFFCURVE",
"310 7 CURVE",
"310 79 LINE",
"307 77 OFFCURVE",
"300 73 OFFCURVE",
"289 73 CURVE SMOOTH",
"239 73 OFFCURVE",
"238 99 OFFCURVE",
"238 152 CURVE SMOOTH",
"238 234 OFFCURVE",
"238 317 OFFCURVE",
"238 399 CURVE"
);
}
);
width = 318;
},
{
anchors = (
{
name = bottom;
position = "{98, 0}";
},
{
name = ogonek;
position = "{131, 10}";
},
{
name = top;
position = "{68, 399}";
}
);
background = {
anchors = (
{
name = bottom;
position = "{98, 0}";
},
{
name = ogonek;
position = "{131, 10}";
},
{
name = top;
position = "{68, 399}";
}
);
paths = (
{
closed = 1;
nodes = (
"72 399 OFFCURVE",
"66 399 OFFCURVE",
"60 399 CURVE",
"60 299 OFFCURVE",
"60 198 OFFCURVE",
"60 98 CURVE SMOOTH",
"60 42 OFFCURVE",
"61 -3 OFFCURVE",
"109 -3 CURVE SMOOTH",
"117 -3 OFFCURVE",
"149 0 OFFCURVE",
"156 2 CURVE",
"156 16 LINE",
"151 13 OFFCURVE",
"127 11 OFFCURVE",
"120 11 CURVE SMOOTH",
"85 11 OFFCURVE",
"78 35 OFFCURVE",
"78 88 CURVE SMOOTH",
"78 192 OFFCURVE",
"78 295 OFFCURVE",
"78 399 CURVE"
);
}
);
};
layerId = "B4E8C596-9C01-4F8A-BDA4-90320E25C0E6";
paths = (
{
closed = 1;
nodes = (
"72 399 OFFCURVE",
"66 399 OFFCURVE",
"60 399 CURVE",
"60 299 OFFCURVE",
"60 198 OFFCURVE",
"60 98 CURVE SMOOTH",
"60 42 OFFCURVE",
"61 -3 OFFCURVE",
"109 -3 CURVE SMOOTH",
"117 -3 OFFCURVE",
"149 0 OFFCURVE",
"156 2 CURVE",
"156 16 LINE",
"151 13 OFFCURVE",
"127 11 OFFCURVE",
"120 11 CURVE SMOOTH",
"85 11 OFFCURVE",
"78 35 OFFCURVE",
"78 88 CURVE SMOOTH",
"78 192 OFFCURVE",
"78 295 OFFCURVE",
"78 399 CURVE"
);
}
);
width = 195;
}
);
leftKerningGroup = bracketleft;
note = dotlessi;
rightKerningGroup = i;
unicode = 0131;
},
{
glyphname = j;
lastChange = "2021-07-01 18:22:25 +0000";
layers = (
{
background = {
paths = (
{
closed = 1;
nodes = (
"-57 -46 OFFCURVE",
"-57 -70 OFFCURVE",
"-57 -94 CURVE",
"-46 -96 OFFCURVE",
"5 -106 OFFCURVE",
"69 -106 CURVE SMOOTH",
"284 -106 OFFCURVE",
"250 -3 OFFCURVE",
"250 60 CURVE SMOOTH",
"250 135 OFFCURVE",
"249 360 OFFCURVE",
"249 399 CURVE",
"204 399 OFFCURVE",
"158 399 OFFCURVE",
"113 399 CURVE SMOOTH",
"51 399 OFFCURVE",
"42 387 OFFCURVE",
"42 329 CURVE SMOOTH",
"42 236 OFFCURVE",
"42 144 OFFCURVE",
"42 51 CURVE SMOOTH",
"42 -2 OFFCURVE",
"41 -28 OFFCURVE",
"-9 -28 CURVE SMOOTH",
"-20 -28 OFFCURVE",
"-48 -25 OFFCURVE",
"-57 -22 CURVE"
);
},
{
closed = 1;
nodes = (
"62 442 OFFCURVE",
"97 440 OFFCURVE",
"148 440 CURVE SMOOTH",
"198 440 OFFCURVE",
"233 442 OFFCURVE",
"233 494 CURVE SMOOTH",
"233 541 OFFCURVE",
"201 547 OFFCURVE",
"151 548 CURVE SMOOTH",
"101 548 OFFCURVE",
"62 543 OFFCURVE",
"62 494 CURVE SMOOTH"
);
}
);
};
layerId = "C7668D88-AC50-4107-9C4B-DB5D26A8FA6C";
paths = (
{
closed = 1;
nodes = (
"-57 -46 OFFCURVE",
"-57 -70 OFFCURVE",
"-57 -94 CURVE",
"-46 -96 OFFCURVE",
"5 -106 OFFCURVE",
"69 -106 CURVE SMOOTH",
"284 -106 OFFCURVE",
"250 -3 OFFCURVE",
"250 60 CURVE SMOOTH",
"250 135 OFFCURVE",
"249 360 OFFCURVE",
"249 399 CURVE",
"204 399 OFFCURVE",
"158 399 OFFCURVE",
"113 399 CURVE SMOOTH",
"51 399 OFFCURVE",
"42 387 OFFCURVE",
"42 329 CURVE SMOOTH",
"42 236 OFFCURVE",
"42 144 OFFCURVE",
"42 51 CURVE SMOOTH",
"42 -2 OFFCURVE",
"41 -28 OFFCURVE",
"-9 -28 CURVE SMOOTH",
"-20 -28 OFFCURVE",
"-48 -25 OFFCURVE",
"-57 -22 CURVE"
);
},
{
closed = 1;
nodes = (
"62 442 OFFCURVE",
"97 440 OFFCURVE",
"148 440 CURVE SMOOTH",
"198 440 OFFCURVE",
"233 442 OFFCURVE",
"233 494 CURVE SMOOTH",
"233 541 OFFCURVE",
"201 547 OFFCURVE",
"151 548 CURVE SMOOTH",
"101 548 OFFCURVE",
"62 543 OFFCURVE",
"62 494 CURVE SMOOTH"
);
}
);
width = 280;
},
{
background = {
paths = (
{
closed = 1;
nodes = (
"-14 -73 OFFCURVE",
"-14 -77 OFFCURVE",
"-14 -82 CURVE",
"-6 -83 OFFCURVE",
"16 -85 OFFCURVE",
"35 -85 CURVE SMOOTH",
"90 -85 OFFCURVE",
"90 -50 OFFCURVE",
"90 27 CURVE SMOOTH",
"90 151 OFFCURVE",
"90 275 OFFCURVE",
"90 399 CURVE",
"88 399 OFFCURVE",
"86 399 OFFCURVE",
"84 399 CURVE SMOOTH",
"73 399 OFFCURVE",
"72 394 OFFCURVE",
"72 385 CURVE SMOOTH",
"72 259 OFFCURVE",
"72 132 OFFCURVE",
"72 6 CURVE SMOOTH",
"72 -47 OFFCURVE",
"70 -71 OFFCURVE",
"30 -71 CURVE SMOOTH",
"16 -71 OFFCURVE",
"-7 -69 OFFCURVE",
"-14 -68 CURVE"
);
},
{
closed = 1;
nodes = (
"64 465 OFFCURVE",
"75 464 OFFCURVE",
"82 464 CURVE SMOOTH",
"89 464 OFFCURVE",
"99 465 OFFCURVE",
"99 479 CURVE SMOOTH",
"99 494 OFFCURVE",
"90 495 OFFCURVE",
"81 495 CURVE SMOOTH",
"72 495 OFFCURVE",
"64 493 OFFCURVE",
"64 479 CURVE SMOOTH"
);
}
);
};
layerId = "B4E8C596-9C01-4F8A-BDA4-90320E25C0E6";
paths = (
{
closed = 1;
nodes = (
"-14 -73 OFFCURVE",
"-14 -77 OFFCURVE",
"-14 -82 CURVE",
"-6 -83 OFFCURVE",
"16 -85 OFFCURVE",
"35 -85 CURVE SMOOTH",
"90 -85 OFFCURVE",
"90 -50 OFFCURVE",
"90 27 CURVE SMOOTH",
"90 151 OFFCURVE",
"90 275 OFFCURVE",
"90 399 CURVE",
"88 399 OFFCURVE",
"86 399 OFFCURVE",
"84 399 CURVE SMOOTH",
"73 399 OFFCURVE",
"72 394 OFFCURVE",
"72 385 CURVE SMOOTH",
"72 259 OFFCURVE",
"72 132 OFFCURVE",
"72 6 CURVE SMOOTH",
"72 -47 OFFCURVE",
"70 -71 OFFCURVE",
"30 -71 CURVE SMOOTH",
"16 -71 OFFCURVE",
"-7 -69 OFFCURVE",
"-14 -68 CURVE"
);
},
{
closed = 1;
nodes = (
"64 465 OFFCURVE",
"75 464 OFFCURVE",
"82 464 CURVE SMOOTH",
"89 464 OFFCURVE",
"99 465 OFFCURVE",
"99 479 CURVE SMOOTH",
"99 494 OFFCURVE",
"90 495 OFFCURVE",
"81 495 CURVE SMOOTH",
"72 495 OFFCURVE",
"64 493 OFFCURVE",
"64 479 CURVE SMOOTH"
);
}
);
width = 164;
}
);
leftKerningGroup = j;
note = j;
rightKerningGroup = d;
rightMetricsKey = n;
unicode = 006A;
},
{
glyphname = jdotless;
lastChange = "2021-06-29 03:47:53 +0000";
layers = (
{
anchors = (
{
name = bottom;
position = "{172, -350}";
},
{
name = top;
position = "{215, 399}";
}
);
background = {
anchors = (
{
name = bottom;
position = "{172, -350}";
},
{
name = top;
position = "{215, 399}";
}
);
paths = (
{
closed = 1;
nodes = (
"0 -46 OFFCURVE",
"0 -70 OFFCURVE",
"0 -94 CURVE",
"11 -96 OFFCURVE",
"62 -106 OFFCURVE",
"126 -106 CURVE SMOOTH",
"341 -106 OFFCURVE",
"307 -3 OFFCURVE",
"307 60 CURVE SMOOTH",
"307 135 OFFCURVE",
"306 360 OFFCURVE",
"306 399 CURVE",
"261 399 OFFCURVE",
"215 399 OFFCURVE",
"170 399 CURVE SMOOTH",
"108 399 OFFCURVE",
"99 387 OFFCURVE",
"99 329 CURVE SMOOTH",
"99 236 OFFCURVE",
"99 144 OFFCURVE",
"99 51 CURVE SMOOTH",
"99 -2 OFFCURVE",
"98 -28 OFFCURVE",
"48 -28 CURVE SMOOTH",
"37 -28 OFFCURVE",
"9 -25 OFFCURVE",
"0 -22 CURVE"
);
}
);
};
layerId = "C7668D88-AC50-4107-9C4B-DB5D26A8FA6C";
paths = (
{
closed = 1;
nodes = (
"0 -46 OFFCURVE",
"0 -70 OFFCURVE",
"0 -94 CURVE",
"11 -96 OFFCURVE",
"62 -106 OFFCURVE",
"126 -106 CURVE SMOOTH",
"341 -106 OFFCURVE",
"307 -3 OFFCURVE",
"307 60 CURVE SMOOTH",
"307 135 OFFCURVE",
"306 360 OFFCURVE",
"306 399 CURVE",
"261 399 OFFCURVE",
"215 399 OFFCURVE",
"170 399 CURVE SMOOTH",
"108 399 OFFCURVE",
"99 387 OFFCURVE",
"99 329 CURVE SMOOTH",
"99 236 OFFCURVE",
"99 144 OFFCURVE",
"99 51 CURVE SMOOTH",
"99 -2 OFFCURVE",
"98 -28 OFFCURVE",
"48 -28 CURVE SMOOTH",
"37 -28 OFFCURVE",
"9 -25 OFFCURVE",
"0 -22 CURVE"
);
}
);
width = 344;
},
{
anchors = (
{
name = bottom;
position = "{97, -350}";
},
{
name = top;
position = "{118, 399}";
}
);
background = {
anchors = (
{
name = bottom;
position = "{97, -350}";
},
{
name = top;
position = "{118, 399}";
}
);
paths = (
{
closed = 1;
nodes = (
"20 -73 OFFCURVE",
"20 -77 OFFCURVE",
"20 -82 CURVE",
"28 -83 OFFCURVE",
"50 -85 OFFCURVE",
"69 -85 CURVE SMOOTH",
"124 -85 OFFCURVE",
"124 -50 OFFCURVE",
"124 27 CURVE SMOOTH",
"124 151 OFFCURVE",
"124 275 OFFCURVE",
"124 399 CURVE",
"122 399 OFFCURVE",
"120 399 OFFCURVE",
"118 399 CURVE SMOOTH",
"107 399 OFFCURVE",
"106 394 OFFCURVE",
"106 385 CURVE SMOOTH",
"106 259 OFFCURVE",
"106 132 OFFCURVE",
"106 6 CURVE SMOOTH",
"106 -47 OFFCURVE",
"104 -71 OFFCURVE",
"64 -71 CURVE SMOOTH",
"50 -71 OFFCURVE",
"27 -69 OFFCURVE",
"20 -68 CURVE"
);
}
);
};
layerId = "B4E8C596-9C01-4F8A-BDA4-90320E25C0E6";
paths = (
{
closed = 1;
nodes = (
"20 -73 OFFCURVE",
"20 -77 OFFCURVE",
"20 -82 CURVE",
"28 -83 OFFCURVE",
"50 -85 OFFCURVE",
"69 -85 CURVE SMOOTH",
"124 -85 OFFCURVE",
"124 -50 OFFCURVE",
"124 27 CURVE SMOOTH",
"124 151 OFFCURVE",
"124 275 OFFCURVE",
"124 399 CURVE",
"122 399 OFFCURVE",
"120 399 OFFCURVE",
"118 399 CURVE SMOOTH",
"107 399 OFFCURVE",
"106 394 OFFCURVE",
"106 385 CURVE SMOOTH",
"106 259 OFFCURVE",
"106 132 OFFCURVE",
"106 6 CURVE SMOOTH",
"106 -47 OFFCURVE",
"104 -71 OFFCURVE",
"64 -71 CURVE SMOOTH",
"50 -71 OFFCURVE",
"27 -69 OFFCURVE",
"20 -68 CURVE"
);
}
);
width = 193;
}
);
leftKerningGroup = bracketleft;
note = jcircumflex;
rightKerningGroup = one;
unicode = 0237;
},
{
glyphname = k;
lastChange = "2021-07-01 18:38:34 +0000";
layers = (
{
anchors = (
{
name = bottom;
position = "{347, 0}";
},
{
name = top;
position = "{347, 960}";
}
);
background = {
anchors = (
{
name = bottom;
position = "{347, 0}";
},
{
name = top;
position = "{347, 960}";
}
);
paths = (
{
closed = 1;
nodes = (
"104 0 OFFCURVE",
"173 0 OFFCURVE",
"242 0 CURVE",
"242 39 OFFCURVE",
"242 77 OFFCURVE",
"242 116 CURVE",
"242 116 LINE SMOOTH",
"354 0 OFFCURVE",
"374 0 OFFCURVE",
"412 0 CURVE SMOOTH",
"494 0 OFFCURVE",
"579 -3 OFFCURVE",
"659 0 CURVE",
"656 2 OFFCURVE",
"628 23 OFFCURVE",
"638 15 CURVE",
"628 23 OFFCURVE",
"620 29 OFFCURVE",
"586 62 CURVE",
"481 164 OFFCURVE",
"442 210 OFFCURVE",
"402 249 CURVE",
"419 263 OFFCURVE",
"496 319 OFFCURVE",
"502 323 CURVE SMOOTH",
"550 358 OFFCURVE",
"606 394 OFFCURVE",
"611 399 CURVE",
"513 399 OFFCURVE",
"410 418 OFFCURVE",
"361 377 CURVE",
"361 383 OFFCURVE",
"242 272 OFFCURVE",
"242 276 CURVE",
"242 276 OFFCURVE",
"244 498 OFFCURVE",
"246 505 CURVE",
"197 505 OFFCURVE",
"147 505 OFFCURVE",
"104 505 CURVE SMOOTH",
"37 505 OFFCURVE",
"34 479 OFFCURVE",
"34 436 CURVE SMOOTH",
"34 401 OFFCURVE",
"35 22 OFFCURVE",
"35 0 CURVE"
);
}
);
};
layerId = "C7668D88-AC50-4107-9C4B-DB5D26A8FA6C";
paths = (
{
closed = 1;
nodes = (
"104 0 OFFCURVE",
"173 0 OFFCURVE",
"242 0 CURVE",
"242 39 OFFCURVE",
"242 77 OFFCURVE",
"242 116 CURVE",
"242 116 LINE SMOOTH",
"354 0 OFFCURVE",
"374 0 OFFCURVE",
"412 0 CURVE SMOOTH",
"494 0 OFFCURVE",
"579 -3 OFFCURVE",
"659 0 CURVE",
"656 2 OFFCURVE",
"628 23 OFFCURVE",
"638 15 CURVE",
"628 23 OFFCURVE",
"620 29 OFFCURVE",
"586 62 CURVE",
"481 164 OFFCURVE",
"442 210 OFFCURVE",
"402 249 CURVE",
"419 263 OFFCURVE",
"496 319 OFFCURVE",
"502 323 CURVE SMOOTH",
"550 358 OFFCURVE",
"606 394 OFFCURVE",
"611 399 CURVE",
"513 399 OFFCURVE",
"410 418 OFFCURVE",
"361 377 CURVE",
"361 383 OFFCURVE",
"242 272 OFFCURVE",
"242 276 CURVE",
"242 276 OFFCURVE",
"244 498 OFFCURVE",
"246 505 CURVE",
"197 505 OFFCURVE",
"147 505 OFFCURVE",
"104 505 CURVE SMOOTH",
"37 505 OFFCURVE",
"34 479 OFFCURVE",
"34 436 CURVE SMOOTH",
"34 401 OFFCURVE",
"35 22 OFFCURVE",
"35 0 CURVE"
);
}
);
width = 635;
},
{
anchors = (
{
name = bottom;
position = "{210, 0}";
},
{
name = top;
position = "{210, 960}";
}
);
background = {
anchors = (
{
name = bottom;
position = "{210, 0}";
},
{
name = top;
position = "{210, 960}";
}
);
paths = (
{
closed = 1;
nodes = (
"77 0 OFFCURVE",
"83 0 OFFCURVE",
"89 0 CURVE",
"89 42 OFFCURVE",
"89 84 OFFCURVE",
"89 126 CURVE",
"165 209 LINE",
"222 143 OFFCURVE",
"278 78 OFFCURVE",
"335 12 CURVE SMOOTH",
"344 2 OFFCURVE",
"348 -1 OFFCURVE",
"356 -1 CURVE SMOOTH",
"361 -1 OFFCURVE",
"369 0 OFFCURVE",
"369 0 CURVE",
"369 0 OFFCURVE",
"367 3 OFFCURVE",
"363 7 CURVE SMOOTH",
"335 40 OFFCURVE",
"218 176 OFFCURVE",
"178 223 CURVE",
"223 272 OFFCURVE",
"268 321 OFFCURVE",
"313 370 CURVE SMOOTH",
"323 381 OFFCURVE",
"337 395 OFFCURVE",
"342 399 CURVE",
"334 399 OFFCURVE",
"326 399 OFFCURVE",
"318 399 CURVE",
"204 272 OFFCURVE",
"114 173 OFFCURVE",
"89 146 CURVE",
"89 266 OFFCURVE",
"89 386 OFFCURVE",
"89 506 CURVE",
"86 506 OFFCURVE",
"84 506 OFFCURVE",
"81 506 CURVE SMOOTH",
"71 506 OFFCURVE",
"71 499 OFFCURVE",
"71 487 CURVE SMOOTH",
"71 325 OFFCURVE",
"71 162 OFFCURVE",
"71 0 CURVE"
);
}
);
};
layerId = "B4E8C596-9C01-4F8A-BDA4-90320E25C0E6";
paths = (
{
closed = 1;
nodes = (
"77 0 OFFCURVE",
"83 0 OFFCURVE",
"89 0 CURVE",
"89 42 OFFCURVE",
"89 84 OFFCURVE",
"89 126 CURVE",
"165 209 LINE",
"222 143 OFFCURVE",
"278 78 OFFCURVE",
"335 12 CURVE SMOOTH",
"344 2 OFFCURVE",
"348 -1 OFFCURVE",
"356 -1 CURVE SMOOTH",
"361 -1 OFFCURVE",
"369 0 OFFCURVE",
"369 0 CURVE",
"369 0 OFFCURVE",
"367 3 OFFCURVE",
"363 7 CURVE SMOOTH",
"335 40 OFFCURVE",
"218 176 OFFCURVE",
"178 223 CURVE",
"223 272 OFFCURVE",
"268 321 OFFCURVE",
"313 370 CURVE SMOOTH",
"323 381 OFFCURVE",
"337 395 OFFCURVE",
"342 399 CURVE",
"334 399 OFFCURVE",
"326 399 OFFCURVE",
"318 399 CURVE",
"204 272 OFFCURVE",
"114 173 OFFCURVE",
"89 146 CURVE",
"89 266 OFFCURVE",
"89 386 OFFCURVE",
"89 506 CURVE",
"86 506 OFFCURVE",
"84 506 OFFCURVE",
"81 506 CURVE SMOOTH",
"71 506 OFFCURVE",
"71 499 OFFCURVE",
"71 487 CURVE SMOOTH",
"71 325 OFFCURVE",
"71 162 OFFCURVE",
"71 0 CURVE"
);
}
);
width = 364;
}
);
leftKerningGroup = h;
leftMetricsKey = n;
note = k;
rightKerningGroup = k;
unicode = 006B;
},
{
glyphname = kgreenlandic;
lastChange = "2021-06-29 03:47:53 +0000";
layers = (
{
background = {
hints = (
{
horizontal = 1;
place = "{0, 96}";
type = Stem;
},
{
horizontal = 1;
place = "{180, 97}";
type = Stem;
},
{
horizontal = 1;
place = "{364, 96}";
type = Stem;
},
{
place = "{208, 11}";
type = Stem;
}
);
paths = (
{
closed = 1;
nodes = (
"110 0 OFFCURVE",
"305 0 OFFCURVE",
"311 0 CURVE",
"311 42 OFFCURVE",
"311 65 OFFCURVE",
"311 107 CURVE",
"311 117 LINE",
"321 105 OFFCURVE",
"359 61 OFFCURVE",
"375 41 CURVE SMOOTH",
"407 2 OFFCURVE",
"441 -1 OFFCURVE",
"503 -1 CURVE SMOOTH",
"583 -1 OFFCURVE",
"723 5 OFFCURVE",
"728 0 CURVE",
"728 0 OFFCURVE",
"705 20 OFFCURVE",
"701 24 CURVE SMOOTH",
"670 55 OFFCURVE",
"531 189 OFFCURVE",
"471 250 CURVE",
"471 250 OFFCURVE",
"532 298 OFFCURVE",
"619 370 CURVE SMOOTH",
"631 380 OFFCURVE",
"642 389 OFFCURVE",
"662 399 CURVE",
"654 399 OFFCURVE",
"465 399 OFFCURVE",
"457 399 CURVE",
"440 385 OFFCURVE",
"321 286 OFFCURVE",
"311 275 CURVE",
"311 442 OFFCURVE",
"311 334 OFFCURVE",
"311 342 CURVE SMOOTH",
"311 428 OFFCURVE",
"116 433 OFFCURVE",
"5 406 CURVE",
"5 404 OFFCURVE",
"5 335 OFFCURVE",
"5 334 CURVE",
"23 338 OFFCURVE",
"103 353 OFFCURVE",
"103 305 CURVE SMOOTH",
"103 264 OFFCURVE",
"104 89 OFFCURVE",
"104 0 CURVE"
);
}
);
};
layerId = "C7668D88-AC50-4107-9C4B-DB5D26A8FA6C";
paths = (
{
closed = 1;
nodes = (
"110 0 OFFCURVE",
"305 0 OFFCURVE",
"311 0 CURVE",
"311 42 OFFCURVE",
"311 65 OFFCURVE",
"311 107 CURVE",
"311 117 LINE",
"321 105 OFFCURVE",
"359 61 OFFCURVE",
"375 41 CURVE SMOOTH",
"407 2 OFFCURVE",
"441 -1 OFFCURVE",
"503 -1 CURVE SMOOTH",
"583 -1 OFFCURVE",
"723 5 OFFCURVE",
"728 0 CURVE",
"728 0 OFFCURVE",
"705 20 OFFCURVE",
"701 24 CURVE SMOOTH",
"670 55 OFFCURVE",
"531 189 OFFCURVE",
"471 250 CURVE",
"471 250 OFFCURVE",
"532 298 OFFCURVE",
"619 370 CURVE SMOOTH",
"631 380 OFFCURVE",
"642 389 OFFCURVE",
"662 399 CURVE",
"654 399 OFFCURVE",
"465 399 OFFCURVE",
"457 399 CURVE",
"440 385 OFFCURVE",
"321 286 OFFCURVE",
"311 275 CURVE",
"311 442 OFFCURVE",
"311 334 OFFCURVE",
"311 342 CURVE SMOOTH",
"311 428 OFFCURVE",
"116 433 OFFCURVE",
"5 406 CURVE",
"5 404 OFFCURVE",
"5 335 OFFCURVE",
"5 334 CURVE",
"23 338 OFFCURVE",
"103 353 OFFCURVE",
"103 305 CURVE SMOOTH",
"103 264 OFFCURVE",
"104 89 OFFCURVE",
"104 0 CURVE"
);
}
);
width = 733;
},
{
background = {
hints = (
{
horizontal = 1;
place = "{0, 21}";
target = up;
type = BottomGhost;
},
{
horizontal = 1;
place = "{201, 14}";
type = Stem;
},
{
horizontal = 1;
place = "{386, 14}";
type = Stem;
},
{
place = "{77, 20}";
type = Stem;
}
);
paths = (
{
closed = 1;
nodes = (
"93 0 OFFCURVE",
"100 0 OFFCURVE",
"106 0 CURVE",
"106 42 OFFCURVE",
"106 84 OFFCURVE",
"106 126 CURVE",
"182 209 LINE",
"239 143 OFFCURVE",
"295 78 OFFCURVE",
"352 12 CURVE SMOOTH",
"361 2 OFFCURVE",
"365 -1 OFFCURVE",
"373 -1 CURVE SMOOTH",
"378 -1 OFFCURVE",
"386 0 OFFCURVE",
"386 0 CURVE",
"386 0 OFFCURVE",
"384 3 OFFCURVE",
"380 7 CURVE SMOOTH",
"352 40 OFFCURVE",
"235 176 OFFCURVE",
"195 223 CURVE",
"240 272 OFFCURVE",
"285 321 OFFCURVE",
"330 370 CURVE SMOOTH",
"340 381 OFFCURVE",
"354 395 OFFCURVE",
"359 399 CURVE",
"351 399 OFFCURVE",
"343 399 OFFCURVE",
"335 399 CURVE",
"221 272 OFFCURVE",
"131 173 OFFCURVE",
"106 146 CURVE",
"106 266 OFFCURVE",
"106 217 OFFCURVE",
"106 358 CURVE SMOOTH",
"106 421 OFFCURVE",
"18 397 OFFCURVE",
"15 397 CURVE",
"15 395 OFFCURVE",
"15 383 OFFCURVE",
"15 382 CURVE",
"33 386 OFFCURVE",
"86 399 OFFCURVE",
"86 351 CURVE SMOOTH",
"86 310 OFFCURVE",
"87 89 OFFCURVE",
"87 0 CURVE"
);
}
);
};
layerId = "B4E8C596-9C01-4F8A-BDA4-90320E25C0E6";
paths = (
{
closed = 1;
nodes = (
"93 0 OFFCURVE",
"100 0 OFFCURVE",
"106 0 CURVE",
"106 42 OFFCURVE",
"106 84 OFFCURVE",
"106 126 CURVE",
"182 209 LINE",
"239 143 OFFCURVE",
"295 78 OFFCURVE",
"352 12 CURVE SMOOTH",
"361 2 OFFCURVE",
"365 -1 OFFCURVE",
"373 -1 CURVE SMOOTH",
"378 -1 OFFCURVE",
"386 0 OFFCURVE",
"386 0 CURVE",
"386 0 OFFCURVE",
"384 3 OFFCURVE",
"380 7 CURVE SMOOTH",
"352 40 OFFCURVE",
"235 176 OFFCURVE",
"195 223 CURVE",
"240 272 OFFCURVE",
"285 321 OFFCURVE",
"330 370 CURVE SMOOTH",
"340 381 OFFCURVE",
"354 395 OFFCURVE",
"359 399 CURVE",
"351 399 OFFCURVE",
"343 399 OFFCURVE",
"335 399 CURVE",
"221 272 OFFCURVE",
"131 173 OFFCURVE",
"106 146 CURVE",
"106 266 OFFCURVE",
"106 217 OFFCURVE",
"106 358 CURVE SMOOTH",
"106 421 OFFCURVE",
"18 397 OFFCURVE",
"15 397 CURVE",
"15 395 OFFCURVE",
"15 383 OFFCURVE",
"15 382 CURVE",
"33 386 OFFCURVE",
"86 399 OFFCURVE",
"86 351 CURVE SMOOTH",
"86 310 OFFCURVE",
"87 89 OFFCURVE",
"87 0 CURVE"
);
}
);
width = 401;
}
);
note = kgreenlandic;
unicode = 0138;
},
{
glyphname = l;
lastChange = "2021-08-11 03:35:28 +0000";
layers = (
{
anchors = (
{
name = bottom;
position = "{165, 0}";
},
{
name = center;
position = "{165, 480}";
},
{
name = top;
position = "{136, 505}";
},
{
name = topright;
position = "{255, 514}";
}
);
background = {
anchors = (
{
name = bottom;
position = "{165, 0}";
},
{
name = center;
position = "{165, 480}";
},
{
name = top;
position = "{136, 505}";
},
{
name = topright;
position = "{255, 514}";
}
);
paths = (
{
closed = 1;
nodes = (
"28 132 LINE SMOOTH",
"28 69 OFFCURVE",
"14 -5 OFFCURVE",
"208 -5 CURVE SMOOTH",
"272 -5 OFFCURVE",
"296 5 OFFCURVE",
"307 7 CURVE",
"307 79 LINE",
"304 77 OFFCURVE",
"291 73 OFFCURVE",
"281 73 CURVE SMOOTH",
"234 73 OFFCURVE",
"235 99 OFFCURVE",
"235 152 CURVE SMOOTH",
"235 426 LINE",
"235 426 OFFCURVE",
"237 498 OFFCURVE",
"239 505 CURVE",
"102 505 LINE SMOOTH",
"39 505 OFFCURVE",
"28 498 OFFCURVE",
"28 436 CURVE SMOOTH"
);
}
);
};
layerId = "C7668D88-AC50-4107-9C4B-DB5D26A8FA6C";
paths = (
{
closed = 1;
nodes = (
"28 132 LINE SMOOTH",
"28 69 OFFCURVE",
"14 -5 OFFCURVE",
"208 -5 CURVE SMOOTH",
"272 -5 OFFCURVE",
"296 5 OFFCURVE",
"307 7 CURVE",
"307 79 LINE",
"304 77 OFFCURVE",
"291 73 OFFCURVE",
"281 73 CURVE SMOOTH",
"234 73 OFFCURVE",
"235 99 OFFCURVE",
"235 152 CURVE SMOOTH",
"235 426 LINE",
"235 426 OFFCURVE",
"237 498 OFFCURVE",
"239 505 CURVE",
"102 505 LINE SMOOTH",
"39 505 OFFCURVE",
"28 498 OFFCURVE",
"28 436 CURVE SMOOTH"
);
}
);
width = 315;
},
{
anchors = (
{
name = bottom;
position = "{103, 0}";
},
{
name = center;
position = "{103, 480}";
},
{
name = top;
position = "{77, 505}";
},
{
name = topright;
position = "{141, 505}";
}
);
background = {
anchors = (
{
name = bottom;
position = "{103, 0}";
},
{
name = center;
position = "{103, 480}";
},
{
name = top;
position = "{77, 505}";
},
{
name = topright;
position = "{141, 505}";
}
);
paths = (
{
closed = 1;
nodes = (
"65 98 LINE SMOOTH",
"65 42 OFFCURVE",
"66 -3 OFFCURVE",
"114 -3 CURVE SMOOTH",
"122 -3 OFFCURVE",
"154 0 OFFCURVE",
"161 2 CURVE",
"161 16 LINE",
"156 13 OFFCURVE",
"132 11 OFFCURVE",
"125 11 CURVE SMOOTH",
"90 11 OFFCURVE",
"83 35 OFFCURVE",
"83 88 CURVE SMOOTH",
"83 476 LINE SMOOTH",
"83 496 OFFCURVE",
"84 505 OFFCURVE",
"84 505 CURVE",
"77 505 LINE SMOOTH",
"66 505 OFFCURVE",
"65 496 OFFCURVE",
"65 485 CURVE SMOOTH"
);
}
);
};
layerId = "B4E8C596-9C01-4F8A-BDA4-90320E25C0E6";
paths = (
{
closed = 1;
nodes = (
"65 98 LINE SMOOTH",
"65 42 OFFCURVE",
"66 -3 OFFCURVE",
"114 -3 CURVE SMOOTH",
"122 -3 OFFCURVE",
"154 0 OFFCURVE",
"161 2 CURVE",
"161 16 LINE",
"156 13 OFFCURVE",
"132 11 OFFCURVE",
"125 11 CURVE SMOOTH",
"90 11 OFFCURVE",
"83 35 OFFCURVE",
"83 88 CURVE SMOOTH",
"83 476 LINE SMOOTH",
"83 496 OFFCURVE",
"84 505 OFFCURVE",
"84 505 CURVE",
"77 505 LINE SMOOTH",
"66 505 OFFCURVE",
"65 496 OFFCURVE",
"65 485 CURVE SMOOTH"
);
}
);
width = 201;
}
);
leftKerningGroup = l;
leftMetricsKey = "=n-6";
note = l;
rightKerningGroup = i;
unicode = 006C;
},
{
glyphname = lslash;
lastChange = "2021-06-29 03:47:53 +0000";
layers = (
{
background = {
components = (
{
name = l;
transform = "{1, 0, 0, 1, 46, 0}";
}
);
hints = (
{
horizontal = 1;
place = "{-5, 78}";
type = Stem;
},
{
horizontal = 1;
place = "{426, 79}";
type = Stem;
},
{
place = "{73, 207}";
type = Stem;
}
);
paths = (
{
closed = 1;
nodes = (
"13 216 LINE",
"26 160 LINE",
"355 239 LINE",
"342 295 LINE"
);
}
);
};
components = (
{
name = l;
transform = "{1, 0, 0, 1, 46, 0}";
}
);
layerId = "C7668D88-AC50-4107-9C4B-DB5D26A8FA6C";
paths = (
{
closed = 1;
nodes = (
"13 216 LINE",
"26 160 LINE",
"355 239 LINE",
"342 295 LINE"
);
}
);
width = 359;
},
{
background = {
components = (
{
name = l;
}
);
paths = (
{
closed = 1;
nodes = (
"0 137 LINE",
"5 123 LINE",
"184 189 LINE",
"180 202 LINE"
);
}
);
};
components = (
{
name = l;
}
);
layerId = "B4E8C596-9C01-4F8A-BDA4-90320E25C0E6";
paths = (
{
closed = 1;
nodes = (
"0 137 LINE",
"5 123 LINE",
"184 189 LINE",
"180 202 LINE"
);
}
);
width = 196;
}
);
note = lslash;
unicode = 0142;
},
